<svg xmlns="http://www.w3.org/2000/svg" xmlns:xlink="http://www.w3.org/1999/xlink" width="500" zoomAndPan="magnify" viewBox="0 0 375 225" height="300" preserveAspectRatio="xMidYMid meet" version="1.0"><defs><clipPath id="517a126a9d"><path d="M 0 49.769531 L 375 49.769531 L 375 160 L 0 160 Z M 0 49.769531 " clip-rule="nonzero"/></clipPath></defs><g clip-path="url(#517a126a9d)"><path fill="#ffbd59" d="M 374.433594 108.164062 C 374.472656 107.855469 374.476562 107.550781 374.445312 107.242188 C 374.410156 106.933594 374.34375 106.636719 374.238281 106.34375 C 374.132812 106.054688 373.996094 105.777344 373.824219 105.519531 C 373.652344 105.261719 373.457031 105.027344 373.230469 104.816406 C 373.003906 104.609375 372.753906 104.425781 372.484375 104.277344 C 372.214844 104.125 371.929688 104.007812 371.632812 103.921875 C 371.335938 103.839844 371.03125 103.792969 370.722656 103.78125 C 370.414062 103.769531 370.109375 103.796875 369.804688 103.859375 C 369.503906 103.921875 369.210938 104.019531 368.929688 104.152344 C 368.652344 104.28125 368.390625 104.445312 368.152344 104.640625 C 367.910156 104.835938 367.695312 105.054688 367.507812 105.300781 C 367.320312 105.546875 367.164062 105.808594 367.039062 106.09375 C 366.914062 106.375 366.824219 106.667969 366.769531 106.972656 C 366.714844 107.277344 366.695312 107.585938 366.714844 107.894531 C 366.734375 108.203125 366.789062 108.503906 366.878906 108.800781 C 366.96875 109.09375 367.09375 109.375 367.253906 109.640625 C 366.59375 110.8125 365.820312 111.90625 364.929688 112.914062 C 363.945312 114.003906 360.472656 114.1875 357.597656 113.933594 C 360.320312 112.84375 363.496094 110.785156 364.554688 106.972656 C 365.109375 104.980469 365.269531 103.355469 365.210938 102.042969 C 365.425781 101.871094 365.621094 101.675781 365.792969 101.457031 C 365.96875 101.242188 366.117188 101.011719 366.238281 100.761719 C 366.363281 100.515625 366.460938 100.257812 366.527344 99.988281 C 366.597656 99.71875 366.636719 99.449219 366.644531 99.171875 C 366.65625 98.894531 366.636719 98.621094 366.585938 98.347656 C 366.539062 98.074219 366.460938 97.808594 366.355469 97.554688 C 366.25 97.296875 366.121094 97.054688 365.960938 96.828125 C 365.804688 96.601562 365.625 96.390625 365.425781 96.203125 C 365.222656 96.011719 365.003906 95.847656 364.765625 95.703125 C 364.527344 95.5625 364.277344 95.445312 364.015625 95.355469 C 363.753906 95.265625 363.484375 95.207031 363.207031 95.175781 C 362.933594 95.144531 362.660156 95.144531 362.382812 95.171875 C 362.105469 95.199219 361.835938 95.253906 361.574219 95.339844 C 361.3125 95.425781 361.058594 95.539062 360.820312 95.675781 C 360.582031 95.816406 360.359375 95.976562 360.152344 96.164062 C 359.949219 96.351562 359.765625 96.558594 359.605469 96.785156 C 359.445312 97.011719 359.3125 97.25 359.203125 97.503906 C 359.09375 97.757812 359.011719 98.023438 358.960938 98.292969 C 358.90625 98.566406 358.886719 98.839844 358.890625 99.117188 C 358.898438 99.394531 358.933594 99.667969 358.996094 99.9375 C 359.0625 100.207031 359.15625 100.464844 359.273438 100.714844 C 359.394531 100.964844 359.539062 101.199219 359.710938 101.417969 C 359.882812 101.636719 360.074219 101.832031 360.285156 102.011719 C 360.5 102.1875 360.726562 102.339844 360.972656 102.46875 C 360.980469 103.292969 360.855469 104.398438 360.460938 105.835938 C 359.554688 109.09375 355.449219 110.328125 353.621094 110.722656 C 353.585938 110.695312 353.554688 110.664062 353.519531 110.632812 C 352.363281 109.667969 351.140625 108.789062 349.855469 108.003906 C 353.183594 102.742188 361.675781 88.070312 359.171875 78.824219 C 358.339844 75.765625 356.457031 73.53125 353.574219 72.179688 C 347.316406 69.25 342.679688 71.121094 339.894531 73.207031 C 334.582031 77.1875 331.296875 85.578125 330.882812 95.207031 C 327.425781 86.660156 321.3125 74.449219 313.664062 71.378906 C 310.632812 70.160156 307.621094 70.375 304.71875 72.015625 C 301.570312 73.792969 299.71875 76.453125 299.367188 79.699219 C 298.410156 88.523438 308.660156 99.839844 313.722656 104.84375 C 313.371094 104.992188 313.015625 105.148438 312.671875 105.3125 C 308.246094 107.390625 305.039062 110.300781 303.289062 113.726562 C 290.242188 114.300781 289.601562 116.769531 289.320312 117.835938 C 289.058594 118.847656 289.304688 119.925781 290.015625 120.882812 C 291.699219 123.140625 296.394531 125.050781 301.578125 125.722656 C 302.054688 125.785156 302.539062 125.835938 303.03125 125.878906 C 304.21875 128.597656 306.226562 131.191406 309 133.519531 C 314.027344 137.742188 321.03125 140.617188 328.714844 141.621094 C 336.398438 142.621094 343.902344 141.632812 349.847656 138.835938 C 356.105469 135.894531 359.941406 131.296875 360.644531 125.894531 C 360.980469 123.324219 360.574219 120.757812 359.5 118.289062 C 362.46875 118.335938 366.144531 117.894531 368.078125 115.753906 C 369.234375 114.449219 370.234375 113.035156 371.078125 111.511719 C 371.503906 111.457031 371.90625 111.335938 372.292969 111.148438 C 372.679688 110.960938 373.023438 110.714844 373.328125 110.410156 C 373.628906 110.105469 373.875 109.761719 374.066406 109.378906 C 374.257812 108.992188 374.378906 108.589844 374.433594 108.164062 Z M 342.441406 76.609375 C 345.136719 74.589844 348.277344 74.394531 351.769531 76.023438 C 353.496094 76.832031 354.578125 78.109375 355.070312 79.933594 C 356.976562 86.96875 349.984375 99.945312 346.101562 106.003906 C 342.683594 104.453125 339.125 103.375 335.421875 102.773438 C 334.074219 91.570312 336.933594 80.738281 342.441406 76.609375 Z M 320.855469 107.070312 C 322.796875 106.6875 324.753906 106.46875 326.730469 106.414062 C 324.449219 111.207031 320.742188 121.730469 323.054688 136.109375 C 321.164062 135.558594 319.328125 134.855469 317.546875 134.003906 C 314.207031 119.109375 319.082031 109.820312 320.855469 107.070312 Z M 303.589844 80.160156 C 303.796875 78.253906 304.820312 76.839844 306.808594 75.71875 C 308.578125 74.714844 310.257812 74.589844 312.078125 75.324219 C 319.382812 78.253906 326.035156 93.695312 328.96875 102.167969 C 325.226562 102.082031 321.613281 102.476562 318.273438 103.328125 C 313.234375 98.613281 302.820312 87.246094 303.589844 80.160156 Z M 294.304688 119.09375 C 295.933594 118.679688 298.804688 118.296875 301.902344 118.082031 C 301.894531 118.140625 301.882812 118.199219 301.875 118.257812 C 301.734375 119.332031 301.726562 120.410156 301.839844 121.488281 C 298.332031 121 295.648438 119.929688 294.304688 119.089844 Z M 306.085938 118.804688 C 306.648438 114.496094 310.09375 110.980469 315.171875 108.804688 C 313.1875 113.410156 311.1875 120.964844 312.683594 131.085938 C 308.09375 127.636719 305.507812 123.234375 306.085938 118.800781 Z M 327.550781 137.148438 C 324.394531 120.742188 329.898438 109.332031 331.445312 106.554688 C 332.046875 106.605469 332.648438 106.671875 333.253906 106.742188 C 334.523438 106.910156 335.769531 107.132812 336.976562 107.402344 C 334.699219 112.058594 330.707031 122.851562 333.191406 137.734375 C 331.902344 137.691406 330.59375 137.582031 329.265625 137.414062 C 328.6875 137.339844 328.117188 137.246094 327.550781 137.148438 Z M 337.480469 137.648438 C 334.855469 122.824219 339.28125 112.21875 341.152344 108.585938 C 350.855469 111.921875 357.308594 118.601562 356.429688 125.355469 C 355.558594 132.082031 347.660156 136.875 337.488281 137.648438 Z M 349.699219 121.078125 C 349.664062 121.359375 349.574219 121.625 349.429688 121.871094 C 349.289062 122.121094 349.105469 122.332031 348.878906 122.503906 C 348.65625 122.679688 348.402344 122.800781 348.128906 122.875 C 347.855469 122.949219 347.574219 122.96875 347.292969 122.933594 C 347.011719 122.894531 346.746094 122.804688 346.5 122.664062 C 346.253906 122.523438 346.042969 122.339844 345.867188 122.113281 C 345.695312 121.886719 345.570312 121.636719 345.496094 121.363281 C 345.421875 121.085938 345.402344 120.808594 345.441406 120.527344 C 345.476562 120.242188 345.566406 119.980469 345.707031 119.730469 C 345.847656 119.484375 346.035156 119.273438 346.257812 119.101562 C 346.484375 118.925781 346.734375 118.804688 347.011719 118.730469 C 347.285156 118.65625 347.5625 118.636719 347.847656 118.671875 C 348.128906 118.710938 348.394531 118.796875 348.640625 118.941406 C 348.886719 119.082031 349.097656 119.265625 349.273438 119.492188 C 349.445312 119.71875 349.570312 119.96875 349.644531 120.242188 C 349.71875 120.515625 349.738281 120.796875 349.703125 121.078125 Z M 1.644531 159.863281 C 1.390625 159.828125 1.160156 159.726562 0.960938 159.566406 C 0.757812 159.40625 0.613281 159.207031 0.523438 158.964844 C 0.433594 158.722656 0.410156 158.476562 0.453125 158.222656 C 0.5 157.96875 0.609375 157.746094 0.777344 157.550781 C 0.824219 157.496094 1.953125 156.210938 4.007812 154.054688 C 4.136719 153.933594 4.285156 153.839844 4.453125 153.777344 C 4.621094 153.710938 4.792969 153.679688 4.96875 153.683594 C 5.148438 153.683594 5.320312 153.71875 5.484375 153.785156 C 5.648438 153.851562 5.796875 153.945312 5.925781 154.070312 C 6.054688 154.191406 6.15625 154.335938 6.230469 154.496094 C 6.304688 154.65625 6.347656 154.828125 6.359375 155.003906 C 6.367188 155.183594 6.347656 155.355469 6.289062 155.527344 C 6.234375 155.695312 6.148438 155.847656 6.035156 155.984375 C 4.019531 158.09375 2.890625 159.382812 2.882812 159.394531 C 2.550781 159.769531 2.140625 159.925781 1.644531 159.863281 Z M 8.101562 153.054688 C 7.839844 153.019531 7.605469 152.917969 7.398438 152.746094 C 7.195312 152.578125 7.046875 152.367188 6.964844 152.117188 C 6.878906 151.863281 6.863281 151.609375 6.921875 151.351562 C 6.984375 151.089844 7.105469 150.867188 7.292969 150.679688 C 8.382812 149.585938 9.515625 148.476562 10.652344 147.378906 C 10.789062 147.265625 10.941406 147.179688 11.109375 147.125 C 11.277344 147.070312 11.449219 147.046875 11.628906 147.058594 C 11.804688 147.066406 11.972656 147.109375 12.132812 147.183594 C 12.292969 147.257812 12.4375 147.355469 12.558594 147.484375 C 12.683594 147.613281 12.777344 147.757812 12.84375 147.921875 C 12.914062 148.082031 12.949219 148.253906 12.953125 148.429688 C 12.957031 148.609375 12.925781 148.777344 12.863281 148.945312 C 12.804688 149.109375 12.714844 149.261719 12.59375 149.390625 C 11.46875 150.476562 10.351562 151.574219 9.277344 152.652344 C 8.953125 152.980469 8.558594 153.113281 8.101562 153.054688 Z M 14.847656 146.566406 C 14.578125 146.53125 14.339844 146.425781 14.132812 146.25 C 13.925781 146.078125 13.78125 145.859375 13.699219 145.601562 C 13.617188 145.34375 13.609375 145.082031 13.679688 144.820312 C 13.746094 144.558594 13.882812 144.335938 14.082031 144.148438 C 15.230469 143.085938 16.40625 142.023438 17.574219 140.992188 C 17.714844 140.882812 17.871094 140.804688 18.039062 140.753906 C 18.210938 140.703125 18.386719 140.6875 18.5625 140.703125 C 18.742188 140.71875 18.910156 140.769531 19.070312 140.847656 C 19.226562 140.929688 19.367188 141.039062 19.484375 141.171875 C 19.601562 141.304688 19.691406 141.453125 19.753906 141.621094 C 19.8125 141.789062 19.839844 141.964844 19.835938 142.140625 C 19.832031 142.320312 19.792969 142.492188 19.722656 142.65625 C 19.652344 142.820312 19.554688 142.964844 19.429688 143.089844 C 18.277344 144.109375 17.117188 145.15625 15.980469 146.207031 C 15.660156 146.503906 15.28125 146.625 14.847656 146.566406 Z M 21.855469 140.371094 C 21.582031 140.332031 21.339844 140.226562 21.128906 140.046875 C 20.921875 139.867188 20.777344 139.644531 20.699219 139.378906 C 20.621094 139.113281 20.621094 138.847656 20.699219 138.582031 C 20.777344 138.316406 20.921875 138.09375 21.128906 137.914062 C 22.335938 136.894531 23.558594 135.882812 24.753906 134.914062 C 24.898438 134.78125 25.058594 134.683594 25.242188 134.621094 C 25.425781 134.554688 25.613281 134.53125 25.808594 134.542969 C 26 134.558594 26.183594 134.609375 26.355469 134.699219 C 26.527344 134.789062 26.675781 134.910156 26.796875 135.0625 C 26.917969 135.210938 27.007812 135.382812 27.058594 135.566406 C 27.109375 135.753906 27.125 135.945312 27.097656 136.136719 C 27.070312 136.328125 27.003906 136.507812 26.90625 136.675781 C 26.804688 136.839844 26.675781 136.976562 26.515625 137.089844 C 25.332031 138.046875 24.125 139.046875 22.9375 140.050781 C 22.625 140.316406 22.261719 140.421875 21.855469 140.367188 Z M 29.128906 134.492188 C 28.847656 134.457031 28.601562 134.34375 28.390625 134.15625 C 28.175781 133.96875 28.035156 133.742188 27.960938 133.46875 C 27.886719 133.195312 27.894531 132.925781 27.984375 132.65625 C 28.074219 132.390625 28.230469 132.167969 28.453125 131.996094 C 29.707031 131.035156 30.972656 130.082031 32.226562 129.164062 C 32.378906 129.070312 32.539062 129.003906 32.714844 128.96875 C 32.890625 128.933594 33.066406 128.933594 33.242188 128.96875 C 33.417969 129 33.582031 129.066406 33.734375 129.160156 C 33.886719 129.257812 34.011719 129.375 34.117188 129.519531 C 34.222656 129.664062 34.296875 129.824219 34.34375 129.996094 C 34.386719 130.171875 34.398438 130.347656 34.375 130.523438 C 34.351562 130.703125 34.296875 130.867188 34.210938 131.023438 C 34.125 131.183594 34.011719 131.316406 33.875 131.429688 C 32.644531 132.328125 31.394531 133.261719 30.160156 134.210938 C 29.855469 134.445312 29.511719 134.539062 29.128906 134.492188 Z M 36.6875 129 C 36.402344 128.960938 36.148438 128.84375 35.933594 128.648438 C 35.71875 128.457031 35.578125 128.21875 35.511719 127.9375 C 35.441406 127.65625 35.460938 127.378906 35.5625 127.109375 C 35.667969 126.835938 35.839844 126.621094 36.078125 126.453125 C 37.390625 125.554688 38.714844 124.675781 40.007812 123.847656 C 40.164062 123.734375 40.335938 123.652344 40.527344 123.609375 C 40.714844 123.566406 40.90625 123.5625 41.097656 123.597656 C 41.289062 123.632812 41.464844 123.707031 41.625 123.8125 C 41.785156 123.921875 41.917969 124.058594 42.023438 124.222656 C 42.128906 124.386719 42.195312 124.5625 42.226562 124.753906 C 42.257812 124.945312 42.25 125.136719 42.199219 125.324219 C 42.152344 125.511719 42.070312 125.683594 41.949219 125.835938 C 41.832031 125.988281 41.6875 126.113281 41.519531 126.207031 C 40.25 127.023438 38.945312 127.882812 37.660156 128.765625 C 37.363281 128.964844 37.042969 129.039062 36.6875 128.992188 Z M 44.558594 123.972656 C 44.261719 123.929688 44.007812 123.808594 43.789062 123.605469 C 43.570312 123.402344 43.433594 123.15625 43.371094 122.863281 C 43.3125 122.574219 43.34375 122.289062 43.460938 122.015625 C 43.582031 121.746094 43.769531 121.53125 44.023438 121.378906 C 45.402344 120.558594 46.789062 119.773438 48.140625 119.039062 C 48.304688 118.9375 48.480469 118.871094 48.675781 118.839844 C 48.867188 118.8125 49.054688 118.820312 49.242188 118.871094 C 49.429688 118.917969 49.601562 119.003906 49.753906 119.125 C 49.90625 119.242188 50.027344 119.386719 50.121094 119.558594 C 50.214844 119.730469 50.269531 119.910156 50.285156 120.105469 C 50.300781 120.296875 50.28125 120.488281 50.21875 120.671875 C 50.15625 120.855469 50.0625 121.019531 49.933594 121.164062 C 49.800781 121.308594 49.648438 121.421875 49.472656 121.503906 C 48.152344 122.214844 46.800781 122.984375 45.453125 123.78125 C 45.175781 123.945312 44.875 124.003906 44.558594 123.957031 Z M 52.78125 119.527344 C 52.476562 119.488281 52.210938 119.359375 51.992188 119.144531 C 51.769531 118.929688 51.636719 118.667969 51.585938 118.363281 C 51.535156 118.0625 51.582031 117.773438 51.722656 117.496094 C 51.863281 117.222656 52.070312 117.019531 52.347656 116.882812 C 53.785156 116.179688 55.238281 115.515625 56.65625 114.910156 C 56.832031 114.820312 57.015625 114.765625 57.210938 114.753906 C 57.40625 114.738281 57.59375 114.765625 57.777344 114.832031 C 57.960938 114.898438 58.125 114.996094 58.269531 115.128906 C 58.410156 115.265625 58.519531 115.421875 58.597656 115.601562 C 58.671875 115.78125 58.710938 115.96875 58.710938 116.164062 C 58.707031 116.359375 58.667969 116.546875 58.589844 116.726562 C 58.507812 116.902344 58.394531 117.058594 58.25 117.191406 C 58.105469 117.320312 57.941406 117.417969 57.757812 117.480469 C 56.382812 118.066406 54.972656 118.714844 53.574219 119.394531 C 53.320312 119.515625 53.054688 119.554688 52.78125 119.511719 Z M 161.832031 129.519531 C 160.882812 129.394531 159.941406 129.25 159.023438 129.085938 C 158.839844 129.054688 158.671875 128.988281 158.515625 128.886719 C 158.359375 128.789062 158.226562 128.660156 158.121094 128.511719 C 158.015625 128.359375 157.941406 128.191406 157.902344 128.007812 C 157.863281 127.828125 157.859375 127.644531 157.890625 127.464844 C 157.925781 127.28125 157.992188 127.113281 158.09375 126.957031 C 158.195312 126.804688 158.320312 126.671875 158.472656 126.566406 C 158.625 126.460938 158.789062 126.386719 158.96875 126.347656 C 159.148438 126.304688 159.332031 126.300781 159.515625 126.328125 C 160.964844 126.585938 162.472656 126.796875 164.03125 126.953125 C 164.222656 126.960938 164.40625 127.003906 164.582031 127.085938 C 164.757812 127.171875 164.910156 127.285156 165.039062 127.429688 C 165.164062 127.578125 165.257812 127.742188 165.316406 127.925781 C 165.378906 128.113281 165.398438 128.300781 165.378906 128.496094 C 165.359375 128.6875 165.300781 128.867188 165.207031 129.039062 C 165.113281 129.207031 164.988281 129.351562 164.835938 129.46875 C 164.679688 129.585938 164.507812 129.667969 164.320312 129.714844 C 164.132812 129.761719 163.941406 129.769531 163.75 129.738281 C 163.105469 129.664062 162.464844 129.585938 161.832031 129.5 Z M 124.777344 124.523438 L 124.183594 124.445312 C 123.992188 124.429688 123.808594 124.378906 123.636719 124.285156 C 123.464844 124.195312 123.316406 124.078125 123.195312 123.925781 C 123.074219 123.773438 122.988281 123.605469 122.9375 123.417969 C 122.882812 123.230469 122.871094 123.042969 122.898438 122.851562 C 122.925781 122.660156 122.988281 122.480469 123.089844 122.3125 C 123.191406 122.148438 123.320312 122.011719 123.480469 121.898438 C 123.636719 121.785156 123.8125 121.710938 124 121.671875 C 124.191406 121.632812 124.382812 121.632812 124.570312 121.671875 C 126.089844 121.882812 127.621094 122.039062 129.109375 122.136719 C 129.300781 122.136719 129.488281 122.175781 129.664062 122.253906 C 129.84375 122.332031 130 122.441406 130.128906 122.582031 C 130.261719 122.726562 130.363281 122.886719 130.425781 123.070312 C 130.492188 123.25 130.519531 123.441406 130.503906 123.632812 C 130.492188 123.828125 130.441406 124.007812 130.355469 124.183594 C 130.265625 124.355469 130.144531 124.5 129.996094 124.625 C 129.847656 124.746094 129.679688 124.835938 129.492188 124.890625 C 129.304688 124.941406 129.117188 124.957031 128.925781 124.933594 C 127.5625 124.824219 126.167969 124.6875 124.777344 124.507812 Z M 168.371094 130.035156 C 168.195312 130.007812 168.03125 129.949219 167.882812 129.859375 C 167.730469 129.769531 167.597656 129.652344 167.492188 129.515625 C 167.382812 129.375 167.304688 129.222656 167.253906 129.050781 C 167.203125 128.882812 167.183594 128.710938 167.199219 128.535156 C 167.214844 128.359375 167.261719 128.191406 167.339844 128.035156 C 167.417969 127.875 167.519531 127.738281 167.648438 127.617188 C 167.78125 127.5 167.925781 127.40625 168.09375 127.34375 C 168.257812 127.28125 168.425781 127.25 168.601562 127.25 C 170.082031 127.296875 171.625 127.300781 173.1875 127.261719 C 173.382812 127.246094 173.570312 127.265625 173.753906 127.328125 C 173.9375 127.386719 174.105469 127.484375 174.25 127.613281 C 174.394531 127.742188 174.507812 127.894531 174.589844 128.070312 C 174.671875 128.246094 174.714844 128.429688 174.71875 128.625 C 174.722656 128.820312 174.691406 129.003906 174.617188 129.183594 C 174.542969 129.367188 174.4375 129.523438 174.300781 129.660156 C 174.160156 129.796875 174.003906 129.898438 173.820312 129.96875 C 173.640625 130.039062 173.453125 130.070312 173.257812 130.0625 C 171.640625 130.101562 170.042969 130.097656 168.511719 130.046875 C 168.464844 130.042969 168.417969 130.03125 168.371094 130.019531 Z M 119.601562 123.648438 C 119.566406 123.648438 119.53125 123.636719 119.496094 123.628906 C 117.976562 123.3125 116.421875 122.941406 114.875 122.519531 C 114.707031 122.464844 114.550781 122.378906 114.414062 122.261719 C 114.277344 122.144531 114.167969 122.007812 114.082031 121.851562 C 114 121.695312 113.945312 121.527344 113.925781 121.347656 C 113.90625 121.167969 113.921875 120.996094 113.96875 120.820312 C 114.015625 120.648438 114.089844 120.492188 114.199219 120.347656 C 114.304688 120.203125 114.4375 120.085938 114.589844 119.992188 C 114.742188 119.898438 114.90625 119.835938 115.082031 119.808594 C 115.261719 119.777344 115.4375 119.78125 115.609375 119.816406 C 117.105469 120.222656 118.601562 120.582031 120.066406 120.886719 C 120.238281 120.929688 120.398438 121 120.542969 121.101562 C 120.6875 121.203125 120.8125 121.328125 120.910156 121.476562 C 121.007812 121.625 121.074219 121.789062 121.113281 121.960938 C 121.148438 122.136719 121.152344 122.3125 121.121094 122.484375 C 121.09375 122.660156 121.03125 122.824219 120.941406 122.976562 C 120.847656 123.128906 120.730469 123.261719 120.589844 123.367188 C 120.449219 123.476562 120.292969 123.554688 120.121094 123.601562 C 119.949219 123.648438 119.773438 123.664062 119.597656 123.648438 Z M 154.546875 128.089844 C 154.484375 128.082031 154.421875 128.070312 154.359375 128.054688 C 152.804688 127.636719 151.269531 127.144531 149.792969 126.597656 C 149.609375 126.542969 149.441406 126.453125 149.292969 126.328125 C 149.144531 126.203125 149.027344 126.050781 148.941406 125.878906 C 148.855469 125.707031 148.804688 125.519531 148.796875 125.328125 C 148.785156 125.132812 148.8125 124.945312 148.878906 124.765625 C 148.949219 124.582031 149.050781 124.421875 149.183594 124.28125 C 149.316406 124.140625 149.472656 124.035156 149.652344 123.960938 C 149.832031 123.882812 150.019531 123.847656 150.210938 123.851562 C 150.40625 123.851562 150.59375 123.894531 150.769531 123.972656 C 152.164062 124.492188 153.617188 124.953125 155.089844 125.347656 C 155.257812 125.398438 155.410156 125.476562 155.546875 125.582031 C 155.6875 125.6875 155.800781 125.816406 155.894531 125.96875 C 155.984375 126.117188 156.046875 126.277344 156.074219 126.449219 C 156.105469 126.625 156.105469 126.796875 156.070312 126.96875 C 156.035156 127.140625 155.972656 127.300781 155.878906 127.445312 C 155.785156 127.59375 155.667969 127.722656 155.527344 127.824219 C 155.386719 127.929688 155.230469 128.003906 155.0625 128.050781 C 154.890625 128.09375 154.71875 128.109375 154.546875 128.089844 Z M 61.363281 115.871094 C 61.039062 115.835938 60.757812 115.699219 60.527344 115.46875 C 60.296875 115.234375 60.164062 114.953125 60.128906 114.628906 C 60.09375 114.300781 60.164062 114 60.339844 113.722656 C 60.515625 113.445312 60.761719 113.253906 61.070312 113.148438 C 62.589844 112.597656 64.113281 112.097656 65.59375 111.667969 C 65.773438 111.601562 65.960938 111.574219 66.152344 111.589844 C 66.347656 111.601562 66.527344 111.652344 66.699219 111.738281 C 66.871094 111.828125 67.019531 111.945312 67.144531 112.09375 C 67.265625 112.242188 67.355469 112.410156 67.410156 112.59375 C 67.460938 112.78125 67.476562 112.96875 67.453125 113.160156 C 67.429688 113.351562 67.371094 113.53125 67.273438 113.695312 C 67.175781 113.863281 67.046875 114.003906 66.894531 114.117188 C 66.738281 114.234375 66.566406 114.3125 66.378906 114.355469 C 64.953125 114.769531 63.488281 115.25 62.027344 115.78125 C 61.8125 115.859375 61.59375 115.882812 61.371094 115.851562 Z M 133.492188 125.050781 C 133.320312 125.023438 133.15625 124.964844 133.007812 124.878906 C 132.855469 124.792969 132.726562 124.679688 132.613281 124.542969 C 132.503906 124.410156 132.425781 124.257812 132.371094 124.089844 C 132.316406 123.925781 132.296875 123.753906 132.304688 123.582031 C 132.316406 123.40625 132.359375 123.238281 132.429688 123.082031 C 132.503906 122.921875 132.601562 122.78125 132.726562 122.660156 C 132.851562 122.539062 132.992188 122.441406 133.152344 122.375 C 133.3125 122.304688 133.480469 122.265625 133.65625 122.261719 C 135.175781 122.238281 136.707031 122.15625 138.191406 122.007812 C 138.371094 122 138.542969 122.027344 138.714844 122.085938 C 138.882812 122.148438 139.03125 122.234375 139.167969 122.351562 C 139.300781 122.472656 139.410156 122.609375 139.492188 122.769531 C 139.574219 122.925781 139.625 123.09375 139.640625 123.273438 C 139.660156 123.449219 139.644531 123.625 139.59375 123.796875 C 139.542969 123.96875 139.464844 124.125 139.355469 124.265625 C 139.246094 124.410156 139.117188 124.523438 138.960938 124.617188 C 138.808594 124.707031 138.644531 124.765625 138.46875 124.796875 C 136.902344 124.949219 135.296875 125.039062 133.691406 125.0625 C 133.625 125.054688 133.5625 125.042969 133.496094 125.03125 Z M 110.597656 121.191406 C 110.507812 121.179688 110.417969 121.160156 110.335938 121.128906 C 108.867188 120.640625 107.367188 120.101562 105.878906 119.523438 C 105.695312 119.460938 105.527344 119.371094 105.382812 119.242188 C 105.238281 119.117188 105.121094 118.964844 105.039062 118.789062 C 104.953125 118.613281 104.910156 118.429688 104.902344 118.238281 C 104.894531 118.042969 104.925781 117.855469 104.996094 117.675781 C 105.066406 117.496094 105.171875 117.335938 105.308594 117.199219 C 105.441406 117.058594 105.601562 116.957031 105.78125 116.882812 C 105.960938 116.8125 106.148438 116.777344 106.339844 116.78125 C 106.535156 116.789062 106.71875 116.832031 106.894531 116.910156 C 108.339844 117.472656 109.792969 118 111.222656 118.472656 C 111.382812 118.53125 111.53125 118.613281 111.664062 118.726562 C 111.792969 118.835938 111.902344 118.96875 111.984375 119.117188 C 112.070312 119.269531 112.121094 119.429688 112.148438 119.601562 C 112.171875 119.773438 112.164062 119.941406 112.125 120.109375 C 112.085938 120.277344 112.019531 120.433594 111.921875 120.578125 C 111.828125 120.722656 111.710938 120.84375 111.570312 120.941406 C 111.425781 121.042969 111.273438 121.113281 111.105469 121.15625 C 110.9375 121.199219 110.769531 121.210938 110.597656 121.191406 Z M 177.695312 129.796875 C 177.34375 129.746094 177.054688 129.585938 176.828125 129.3125 C 176.597656 129.039062 176.488281 128.726562 176.5 128.371094 C 176.507812 128.015625 176.636719 127.710938 176.878906 127.449219 C 177.121094 127.191406 177.417969 127.046875 177.773438 127.011719 C 179.257812 126.898438 180.800781 126.753906 182.359375 126.570312 C 182.550781 126.535156 182.738281 126.539062 182.929688 126.585938 C 183.117188 126.628906 183.289062 126.707031 183.445312 126.824219 C 183.601562 126.9375 183.726562 127.078125 183.824219 127.246094 C 183.921875 127.414062 183.980469 127.59375 184.003906 127.789062 C 184.027344 127.980469 184.007812 128.167969 183.953125 128.355469 C 183.898438 128.539062 183.808594 128.707031 183.683594 128.855469 C 183.558594 129.003906 183.410156 129.121094 183.234375 129.207031 C 183.0625 129.292969 182.878906 129.339844 182.683594 129.351562 C 181.089844 129.539062 179.503906 129.691406 177.980469 129.804688 C 177.886719 129.8125 177.789062 129.8125 177.695312 129.796875 Z M 145.816406 124.820312 C 145.664062 124.800781 145.519531 124.757812 145.382812 124.691406 C 144.898438 124.457031 144.410156 124.210938 143.925781 123.949219 C 143.6875 124 143.449219 124.046875 143.214844 124.09375 C 143.03125 124.128906 142.847656 124.125 142.667969 124.085938 C 142.484375 124.050781 142.316406 123.980469 142.164062 123.875 C 142.011719 123.769531 141.882812 123.640625 141.78125 123.484375 C 141.679688 123.332031 141.613281 123.160156 141.578125 122.980469 C 141.554688 122.859375 141.546875 122.738281 141.554688 122.617188 L 141.175781 122.382812 C 141.03125 122.28125 140.90625 122.15625 140.808594 122.003906 C 140.710938 121.855469 140.640625 121.695312 140.605469 121.519531 C 140.570312 121.34375 140.566406 121.167969 140.597656 120.992188 C 140.625 120.816406 140.6875 120.652344 140.78125 120.5 C 140.875 120.347656 140.992188 120.21875 141.136719 120.109375 C 141.277344 120.003906 141.433594 119.925781 141.609375 119.878906 C 141.78125 119.832031 141.957031 119.816406 142.132812 119.835938 C 142.3125 119.855469 142.480469 119.90625 142.636719 119.992188 C 143.199219 120.335938 143.769531 120.667969 144.347656 120.988281 C 145.277344 120.777344 146.195312 120.542969 147.09375 120.277344 C 147.269531 120.238281 147.445312 120.234375 147.621094 120.261719 C 147.796875 120.289062 147.960938 120.347656 148.113281 120.4375 C 148.269531 120.53125 148.398438 120.644531 148.507812 120.785156 C 148.621094 120.925781 148.699219 121.082031 148.75 121.253906 C 148.796875 121.425781 148.816406 121.601562 148.796875 121.777344 C 148.78125 121.957031 148.734375 122.125 148.652344 122.285156 C 148.570312 122.441406 148.464844 122.582031 148.328125 122.699219 C 148.195312 122.816406 148.042969 122.90625 147.875 122.96875 L 147.363281 123.113281 C 147.414062 123.335938 147.410156 123.558594 147.351562 123.78125 C 147.292969 124 147.183594 124.195312 147.03125 124.363281 C 146.878906 124.535156 146.695312 124.660156 146.480469 124.738281 C 146.265625 124.816406 146.042969 124.84375 145.816406 124.8125 Z M 101.898438 117.8125 C 101.765625 117.796875 101.636719 117.757812 101.511719 117.703125 C 100.152344 117.101562 98.765625 116.453125 97.394531 115.777344 L 97.242188 115.703125 C 97.0625 115.632812 96.902344 115.527344 96.769531 115.386719 C 96.632812 115.25 96.527344 115.089844 96.457031 114.90625 C 96.390625 114.726562 96.359375 114.539062 96.367188 114.34375 C 96.375 114.152344 96.421875 113.964844 96.503906 113.792969 C 96.589844 113.617188 96.707031 113.464844 96.851562 113.339844 C 97 113.214844 97.167969 113.121094 97.351562 113.0625 C 97.539062 113.007812 97.726562 112.988281 97.921875 113.007812 C 98.113281 113.03125 98.292969 113.089844 98.464844 113.183594 L 98.632812 113.265625 C 99.96875 113.925781 101.320312 114.554688 102.644531 115.136719 C 102.960938 115.28125 103.191406 115.507812 103.335938 115.824219 C 103.480469 116.136719 103.507812 116.457031 103.414062 116.792969 C 103.320312 117.125 103.128906 117.386719 102.84375 117.578125 C 102.558594 117.769531 102.242188 117.847656 101.898438 117.804688 Z M 186.964844 128.71875 C 186.621094 128.671875 186.335938 128.515625 186.105469 128.257812 C 185.878906 127.996094 185.761719 127.691406 185.757812 127.347656 C 185.753906 127 185.863281 126.695312 186.085938 126.429688 C 186.308594 126.164062 186.589844 126.003906 186.933594 125.945312 C 188.414062 125.710938 189.945312 125.453125 191.492188 125.167969 C 191.679688 125.121094 191.871094 125.109375 192.0625 125.140625 C 192.253906 125.171875 192.429688 125.238281 192.59375 125.34375 C 192.757812 125.449219 192.894531 125.582031 193.003906 125.742188 C 193.109375 125.902344 193.183594 126.078125 193.21875 126.269531 C 193.253906 126.460938 193.25 126.648438 193.207031 126.839844 C 193.164062 127.027344 193.085938 127.199219 192.96875 127.355469 C 192.855469 127.511719 192.714844 127.640625 192.546875 127.738281 C 192.378906 127.835938 192.199219 127.898438 192.003906 127.917969 C 190.4375 128.214844 188.875 128.480469 187.363281 128.714844 C 187.230469 128.734375 187.097656 128.734375 186.964844 128.71875 Z M 70.328125 113.25 C 69.992188 113.203125 69.710938 113.054688 69.480469 112.804688 C 69.253906 112.554688 69.132812 112.261719 69.117188 111.921875 C 69.105469 111.582031 69.199219 111.277344 69.40625 111.007812 C 69.613281 110.742188 69.878906 110.566406 70.210938 110.492188 C 71.800781 110.152344 73.386719 109.882812 74.925781 109.6875 C 75.117188 109.652344 75.304688 109.65625 75.496094 109.695312 C 75.683594 109.738281 75.855469 109.816406 76.015625 109.929688 C 76.171875 110.042969 76.300781 110.183594 76.398438 110.351562 C 76.496094 110.519531 76.558594 110.699219 76.582031 110.890625 C 76.605469 111.082031 76.59375 111.273438 76.539062 111.457031 C 76.484375 111.644531 76.394531 111.8125 76.269531 111.960938 C 76.148438 112.113281 76 112.230469 75.824219 112.316406 C 75.652344 112.40625 75.46875 112.457031 75.277344 112.46875 C 73.816406 112.652344 72.308594 112.910156 70.796875 113.230469 C 70.640625 113.265625 70.484375 113.269531 70.328125 113.25 Z M 137.859375 119.976562 C 137.617188 119.945312 137.402344 119.859375 137.207031 119.714844 C 135.964844 118.796875 134.714844 117.792969 133.484375 116.726562 C 133.328125 116.613281 133.203125 116.46875 133.109375 116.300781 C 133.011719 116.128906 132.953125 115.949219 132.933594 115.757812 C 132.914062 115.5625 132.933594 115.375 132.992188 115.1875 C 133.050781 115.003906 133.140625 114.835938 133.269531 114.691406 C 133.398438 114.542969 133.546875 114.429688 133.722656 114.34375 C 133.898438 114.261719 134.082031 114.214844 134.277344 114.207031 C 134.46875 114.199219 134.65625 114.230469 134.839844 114.300781 C 135.019531 114.371094 135.179688 114.476562 135.316406 114.613281 C 136.484375 115.628906 137.6875 116.589844 138.871094 117.460938 C 139.125 117.652344 139.296875 117.902344 139.382812 118.207031 C 139.46875 118.515625 139.449219 118.816406 139.332031 119.109375 C 139.210938 119.40625 139.015625 119.632812 138.742188 119.792969 C 138.46875 119.957031 138.175781 120.015625 137.859375 119.976562 Z M 93.359375 114.066406 C 93.265625 114.054688 93.175781 114.035156 93.089844 114.003906 C 91.667969 113.527344 90.222656 113.140625 88.753906 112.84375 C 88.582031 112.796875 88.425781 112.722656 88.28125 112.613281 C 88.136719 112.507812 88.019531 112.378906 87.925781 112.226562 C 87.832031 112.074219 87.769531 111.914062 87.734375 111.738281 C 87.703125 111.5625 87.707031 111.386719 87.742188 111.210938 C 87.777344 111.035156 87.84375 110.875 87.941406 110.722656 C 88.039062 110.574219 88.160156 110.449219 88.304688 110.34375 C 88.449219 110.242188 88.609375 110.167969 88.785156 110.125 C 88.957031 110.082031 89.132812 110.074219 89.308594 110.097656 C 90.894531 110.417969 92.453125 110.835938 93.984375 111.347656 C 94.148438 111.40625 94.292969 111.492188 94.425781 111.601562 C 94.554688 111.714844 94.664062 111.847656 94.746094 111.996094 C 94.828125 112.148438 94.878906 112.308594 94.90625 112.480469 C 94.929688 112.648438 94.921875 112.820312 94.882812 112.988281 C 94.84375 113.152344 94.777344 113.308594 94.679688 113.453125 C 94.585938 113.59375 94.464844 113.714844 94.324219 113.816406 C 94.183594 113.914062 94.03125 113.988281 93.863281 114.03125 C 93.699219 114.074219 93.53125 114.085938 93.359375 114.066406 Z M 151.710938 121.503906 C 151.398438 121.457031 151.128906 121.324219 150.90625 121.097656 C 150.683594 120.871094 150.550781 120.601562 150.511719 120.289062 C 150.472656 119.972656 150.53125 119.679688 150.691406 119.402344 C 150.851562 119.128906 151.078125 118.933594 151.375 118.8125 C 152.777344 118.257812 154.15625 117.621094 155.492188 116.933594 C 155.660156 116.832031 155.839844 116.769531 156.03125 116.742188 C 156.222656 116.714844 156.414062 116.730469 156.597656 116.78125 C 156.785156 116.835938 156.953125 116.921875 157.105469 117.042969 C 157.257812 117.167969 157.375 117.316406 157.464844 117.488281 C 157.554688 117.660156 157.605469 117.84375 157.617188 118.035156 C 157.632812 118.230469 157.605469 118.417969 157.539062 118.601562 C 157.476562 118.785156 157.378906 118.949219 157.246094 119.089844 C 157.113281 119.230469 156.957031 119.339844 156.777344 119.417969 C 155.363281 120.152344 153.894531 120.820312 152.410156 121.414062 C 152.183594 121.503906 151.953125 121.535156 151.710938 121.503906 Z M 79.566406 112.101562 C 79.394531 112.074219 79.230469 112.019531 79.082031 111.933594 C 78.929688 111.847656 78.796875 111.738281 78.6875 111.601562 C 78.578125 111.46875 78.496094 111.316406 78.441406 111.152344 C 78.386719 110.988281 78.367188 110.816406 78.375 110.644531 C 78.382812 110.46875 78.421875 110.304688 78.492188 110.144531 C 78.5625 109.984375 78.660156 109.84375 78.785156 109.722656 C 78.90625 109.597656 79.046875 109.503906 79.207031 109.433594 C 79.367188 109.363281 79.53125 109.324219 79.707031 109.3125 C 81.3125 109.265625 82.917969 109.304688 84.519531 109.429688 C 84.714844 109.433594 84.902344 109.472656 85.078125 109.554688 C 85.253906 109.632812 85.410156 109.746094 85.539062 109.886719 C 85.671875 110.03125 85.769531 110.195312 85.832031 110.378906 C 85.894531 110.5625 85.917969 110.75 85.902344 110.945312 C 85.886719 111.136719 85.835938 111.320312 85.742188 111.492188 C 85.652344 111.664062 85.53125 111.808594 85.378906 111.929688 C 85.226562 112.050781 85.054688 112.136719 84.867188 112.1875 C 84.679688 112.238281 84.492188 112.25 84.300781 112.222656 C 82.796875 112.101562 81.292969 112.066406 79.789062 112.113281 C 79.714844 112.113281 79.640625 112.109375 79.566406 112.101562 Z M 196.140625 127.011719 C 195.804688 126.964844 195.523438 126.816406 195.292969 126.566406 C 195.066406 126.316406 194.945312 126.019531 194.929688 125.683594 C 194.917969 125.34375 195.011719 125.039062 195.21875 124.769531 C 195.425781 124.5 195.691406 124.328125 196.023438 124.253906 C 197.488281 123.9375 199.007812 123.59375 200.539062 123.222656 C 200.71875 123.191406 200.894531 123.195312 201.070312 123.230469 C 201.242188 123.265625 201.40625 123.332031 201.558594 123.429688 C 201.707031 123.527344 201.832031 123.648438 201.9375 123.796875 C 202.039062 123.941406 202.113281 124.101562 202.152344 124.277344 C 202.195312 124.453125 202.203125 124.628906 202.179688 124.804688 C 202.152344 124.980469 202.09375 125.148438 202.007812 125.304688 C 201.917969 125.460938 201.800781 125.59375 201.660156 125.703125 C 201.523438 125.816406 201.367188 125.898438 201.195312 125.949219 C 199.640625 126.320312 198.097656 126.671875 196.609375 126.992188 C 196.457031 127.027344 196.296875 127.03125 196.140625 127.011719 Z M 205.21875 124.835938 C 204.886719 124.792969 204.609375 124.644531 204.382812 124.402344 C 204.15625 124.15625 204.03125 123.867188 204.011719 123.535156 C 203.992188 123.203125 204.078125 122.902344 204.273438 122.628906 C 204.464844 122.359375 204.722656 122.179688 205.046875 122.09375 C 206.554688 121.703125 208.085938 121.320312 209.597656 120.957031 C 209.773438 120.925781 209.949219 120.929688 210.125 120.964844 C 210.296875 121 210.460938 121.066406 210.609375 121.164062 C 210.757812 121.265625 210.886719 121.386719 210.988281 121.53125 C 211.089844 121.679688 211.164062 121.835938 211.203125 122.011719 C 211.246094 122.183594 211.253906 122.359375 211.230469 122.535156 C 211.203125 122.714844 211.148438 122.878906 211.058594 123.035156 C 210.972656 123.1875 210.855469 123.324219 210.71875 123.433594 C 210.578125 123.546875 210.421875 123.628906 210.253906 123.679688 C 208.757812 124.039062 207.242188 124.417969 205.746094 124.804688 C 205.574219 124.851562 205.394531 124.863281 205.21875 124.839844 Z M 130.796875 113.886719 C 130.484375 113.847656 130.21875 113.71875 129.996094 113.496094 C 128.921875 112.4375 127.816406 111.289062 126.714844 110.078125 C 126.574219 109.941406 126.464844 109.785156 126.390625 109.605469 C 126.316406 109.429688 126.28125 109.242188 126.28125 109.046875 C 126.285156 108.851562 126.324219 108.667969 126.40625 108.492188 C 126.484375 108.3125 126.597656 108.160156 126.738281 108.027344 C 126.882812 107.898438 127.046875 107.800781 127.230469 107.738281 C 127.414062 107.675781 127.601562 107.652344 127.796875 107.667969 C 127.988281 107.679688 128.171875 107.734375 128.34375 107.824219 C 128.515625 107.917969 128.660156 108.039062 128.78125 108.191406 C 129.855469 109.359375 130.925781 110.476562 131.960938 111.503906 C 132.175781 111.714844 132.304688 111.96875 132.355469 112.265625 C 132.40625 112.5625 132.363281 112.84375 132.230469 113.113281 C 132.097656 113.382812 131.902344 113.589844 131.636719 113.730469 C 131.371094 113.875 131.089844 113.925781 130.792969 113.886719 Z M 159.992188 117.222656 C 159.703125 117.183594 159.449219 117.066406 159.230469 116.867188 C 159.015625 116.671875 158.875 116.429688 158.808594 116.144531 C 158.742188 115.855469 158.765625 115.578125 158.875 115.304688 C 158.984375 115.035156 159.164062 114.816406 159.410156 114.65625 C 160.667969 113.839844 161.90625 112.957031 163.09375 112.019531 C 163.242188 111.914062 163.402344 111.84375 163.574219 111.804688 C 163.75 111.761719 163.925781 111.753906 164.101562 111.78125 C 164.277344 111.808594 164.445312 111.863281 164.597656 111.953125 C 164.753906 112.042969 164.886719 112.160156 164.996094 112.300781 C 165.109375 112.4375 165.191406 112.59375 165.242188 112.765625 C 165.292969 112.9375 165.308594 113.113281 165.292969 113.289062 C 165.277344 113.46875 165.230469 113.636719 165.152344 113.796875 C 165.070312 113.957031 164.964844 114.097656 164.832031 114.214844 C 163.574219 115.207031 162.257812 116.148438 160.929688 117.007812 C 160.644531 117.195312 160.332031 117.265625 159.992188 117.222656 Z M 214.289062 122.660156 C 213.957031 122.609375 213.675781 122.460938 213.449219 122.210938 C 213.222656 121.960938 213.101562 121.667969 213.089844 121.328125 C 213.074219 120.992188 213.167969 120.6875 213.375 120.417969 C 213.578125 120.152344 213.84375 119.980469 214.175781 119.902344 C 215.710938 119.5625 217.253906 119.234375 218.765625 118.929688 C 218.953125 118.878906 219.140625 118.867188 219.335938 118.894531 C 219.527344 118.921875 219.707031 118.988281 219.871094 119.089844 C 220.039062 119.191406 220.175781 119.320312 220.285156 119.480469 C 220.398438 119.640625 220.472656 119.816406 220.511719 120.003906 C 220.550781 120.195312 220.550781 120.386719 220.507812 120.574219 C 220.46875 120.765625 220.390625 120.941406 220.277344 121.097656 C 220.164062 121.257812 220.023438 121.386719 219.859375 121.484375 C 219.691406 121.585938 219.511719 121.648438 219.320312 121.675781 C 217.828125 121.976562 216.296875 122.300781 214.78125 122.636719 C 214.617188 122.671875 214.453125 122.679688 214.289062 122.660156 Z M 223.4375 120.808594 C 223.097656 120.761719 222.816406 120.609375 222.585938 120.355469 C 222.359375 120.097656 222.238281 119.800781 222.230469 119.457031 C 222.222656 119.113281 222.324219 118.808594 222.539062 118.539062 C 222.757812 118.273438 223.03125 118.105469 223.371094 118.042969 C 224.914062 117.761719 226.472656 117.496094 227.996094 117.246094 C 228.183594 117.203125 228.375 117.199219 228.566406 117.234375 C 228.757812 117.269531 228.933594 117.34375 229.09375 117.449219 C 229.253906 117.558594 229.386719 117.695312 229.492188 117.859375 C 229.597656 118.019531 229.664062 118.199219 229.695312 118.390625 C 229.726562 118.582031 229.71875 118.773438 229.671875 118.960938 C 229.621094 119.148438 229.539062 119.320312 229.421875 119.472656 C 229.300781 119.625 229.15625 119.75 228.988281 119.84375 C 228.816406 119.9375 228.636719 119.992188 228.441406 120.011719 C 226.9375 120.253906 225.402344 120.519531 223.871094 120.796875 C 223.726562 120.824219 223.585938 120.828125 223.4375 120.808594 Z M 124.496094 107.015625 C 124.136719 106.96875 123.839844 106.804688 123.605469 106.527344 C 122.636719 105.378906 121.664062 104.191406 120.628906 102.878906 C 120.527344 102.730469 120.457031 102.574219 120.417969 102.398438 C 120.375 102.226562 120.367188 102.050781 120.394531 101.875 C 120.421875 101.695312 120.476562 101.53125 120.566406 101.375 C 120.65625 101.222656 120.769531 101.089844 120.910156 100.980469 C 121.050781 100.867188 121.207031 100.785156 121.375 100.734375 C 121.546875 100.683594 121.722656 100.664062 121.898438 100.679688 C 122.078125 100.695312 122.246094 100.742188 122.40625 100.820312 C 122.566406 100.902344 122.703125 101.007812 122.824219 101.140625 C 123.84375 102.425781 124.800781 103.59375 125.746094 104.722656 C 125.933594 104.945312 126.039062 105.199219 126.066406 105.484375 C 126.09375 105.773438 126.039062 106.042969 125.902344 106.296875 C 125.761719 106.546875 125.566406 106.738281 125.308594 106.871094 C 125.050781 107.003906 124.78125 107.050781 124.496094 107.015625 Z M 167.308594 111.457031 C 167.039062 111.421875 166.804688 111.316406 166.597656 111.144531 C 166.390625 110.972656 166.242188 110.757812 166.160156 110.5 C 166.078125 110.242188 166.070312 109.984375 166.132812 109.722656 C 166.199219 109.460938 166.332031 109.238281 166.527344 109.050781 C 167.609375 108.023438 168.671875 106.921875 169.683594 105.777344 C 169.808594 105.652344 169.953125 105.554688 170.117188 105.484375 C 170.28125 105.414062 170.453125 105.375 170.632812 105.371094 C 170.808594 105.367188 170.980469 105.394531 171.148438 105.453125 C 171.316406 105.515625 171.46875 105.605469 171.601562 105.722656 C 171.734375 105.839844 171.84375 105.980469 171.921875 106.140625 C 172.003906 106.296875 172.050781 106.464844 172.066406 106.644531 C 172.085938 106.820312 172.066406 106.996094 172.019531 107.167969 C 171.96875 107.339844 171.886719 107.496094 171.777344 107.636719 C 170.714844 108.835938 169.597656 109.992188 168.453125 111.078125 C 168.132812 111.382812 167.75 111.507812 167.308594 111.449219 Z M 232.652344 119.320312 C 232.308594 119.273438 232.023438 119.117188 231.792969 118.855469 C 231.566406 118.59375 231.449219 118.285156 231.449219 117.9375 C 231.445312 117.589844 231.558594 117.285156 231.785156 117.019531 C 232.011719 116.757812 232.296875 116.597656 232.640625 116.546875 C 234.195312 116.328125 235.765625 116.125 237.296875 115.945312 C 237.476562 115.933594 237.648438 115.960938 237.816406 116.015625 C 237.984375 116.074219 238.136719 116.160156 238.273438 116.273438 C 238.410156 116.390625 238.519531 116.523438 238.601562 116.679688 C 238.6875 116.839844 238.738281 117.003906 238.761719 117.179688 C 238.78125 117.359375 238.769531 117.53125 238.722656 117.703125 C 238.679688 117.875 238.601562 118.035156 238.496094 118.175781 C 238.390625 118.320312 238.265625 118.4375 238.113281 118.53125 C 237.964844 118.628906 237.800781 118.691406 237.625 118.722656 C 236.113281 118.902344 234.566406 119.105469 233.027344 119.320312 C 232.902344 119.335938 232.777344 119.335938 232.652344 119.320312 Z M 241.921875 118.226562 C 241.570312 118.175781 241.285156 118.015625 241.054688 117.746094 C 240.828125 117.476562 240.714844 117.167969 240.722656 116.816406 C 240.726562 116.460938 240.851562 116.15625 241.085938 115.894531 C 241.324219 115.632812 241.621094 115.484375 241.96875 115.445312 C 243.523438 115.296875 245.101562 115.164062 246.65625 115.054688 C 246.832031 115.054688 247.003906 115.085938 247.171875 115.148438 C 247.335938 115.214844 247.484375 115.304688 247.617188 115.425781 C 247.746094 115.546875 247.851562 115.6875 247.929688 115.851562 C 248.007812 116.011719 248.050781 116.179688 248.0625 116.359375 C 248.078125 116.535156 248.054688 116.710938 248.003906 116.878906 C 247.949219 117.050781 247.867188 117.203125 247.753906 117.34375 C 247.640625 117.480469 247.507812 117.59375 247.351562 117.679688 C 247.195312 117.769531 247.03125 117.824219 246.855469 117.847656 C 245.320312 117.957031 243.765625 118.082031 242.234375 118.230469 C 242.128906 118.242188 242.027344 118.242188 241.921875 118.226562 Z M 251.230469 117.566406 C 251.058594 117.539062 250.898438 117.484375 250.746094 117.398438 C 250.597656 117.3125 250.464844 117.203125 250.355469 117.070312 C 250.246094 116.9375 250.164062 116.789062 250.109375 116.625 C 250.054688 116.460938 250.03125 116.292969 250.039062 116.121094 C 250.042969 115.945312 250.082031 115.78125 250.152344 115.621094 C 250.21875 115.464844 250.3125 115.320312 250.433594 115.199219 C 250.554688 115.074219 250.695312 114.976562 250.851562 114.902344 C 251.007812 114.832031 251.175781 114.789062 251.347656 114.777344 C 252.925781 114.707031 254.507812 114.65625 256.046875 114.625 C 256.234375 114.621094 256.414062 114.652344 256.585938 114.722656 C 256.761719 114.789062 256.914062 114.886719 257.046875 115.015625 C 257.183594 115.144531 257.285156 115.296875 257.359375 115.464844 C 257.433594 115.636719 257.472656 115.816406 257.476562 116 C 257.480469 116.1875 257.449219 116.367188 257.382812 116.539062 C 257.3125 116.714844 257.214844 116.867188 257.085938 117 C 256.957031 117.136719 256.808594 117.238281 256.636719 117.3125 C 256.464844 117.386719 256.289062 117.425781 256.101562 117.429688 C 254.585938 117.460938 253.03125 117.511719 251.476562 117.582031 C 251.394531 117.582031 251.3125 117.578125 251.230469 117.566406 Z M 118.6875 99.703125 C 118.300781 99.652344 117.988281 99.472656 117.753906 99.164062 C 116.824219 97.9375 115.890625 96.6875 114.949219 95.410156 C 114.851562 95.261719 114.785156 95.097656 114.75 94.925781 C 114.714844 94.75 114.714844 94.574219 114.746094 94.398438 C 114.777344 94.222656 114.839844 94.058594 114.933594 93.90625 C 115.03125 93.757812 115.148438 93.628906 115.292969 93.523438 C 115.4375 93.414062 115.59375 93.339844 115.765625 93.292969 C 115.9375 93.25 116.113281 93.234375 116.289062 93.257812 C 116.46875 93.277344 116.632812 93.332031 116.792969 93.414062 C 116.949219 93.5 117.085938 93.609375 117.199219 93.746094 C 118.136719 95.015625 119.0625 96.253906 119.984375 97.46875 C 120.152344 97.695312 120.246094 97.949219 120.261719 98.226562 C 120.28125 98.507812 120.21875 98.773438 120.074219 99.015625 C 119.933594 99.257812 119.738281 99.441406 119.484375 99.566406 C 119.234375 99.691406 118.96875 99.738281 118.6875 99.703125 Z M 260.558594 117.390625 C 260.386719 117.363281 260.222656 117.304688 260.070312 117.214844 C 259.921875 117.128906 259.789062 117.015625 259.679688 116.878906 C 259.570312 116.742188 259.492188 116.589844 259.4375 116.421875 C 259.386719 116.253906 259.367188 116.082031 259.378906 115.90625 C 259.390625 115.730469 259.4375 115.566406 259.511719 115.40625 C 259.585938 115.246094 259.6875 115.109375 259.8125 114.988281 C 259.941406 114.867188 260.085938 114.773438 260.25 114.707031 C 260.410156 114.640625 260.578125 114.605469 260.753906 114.601562 C 262.332031 114.617188 263.910156 114.65625 265.460938 114.71875 C 265.640625 114.738281 265.808594 114.789062 265.964844 114.871094 C 266.125 114.953125 266.261719 115.0625 266.378906 115.195312 C 266.492188 115.332031 266.582031 115.480469 266.640625 115.652344 C 266.699219 115.820312 266.726562 115.992188 266.71875 116.167969 C 266.710938 116.347656 266.671875 116.519531 266.597656 116.679688 C 266.527344 116.84375 266.425781 116.988281 266.300781 117.113281 C 266.175781 117.238281 266.027344 117.335938 265.863281 117.40625 C 265.699219 117.476562 265.53125 117.511719 265.351562 117.515625 C 263.832031 117.457031 262.277344 117.417969 260.730469 117.398438 C 260.671875 117.398438 260.617188 117.394531 260.558594 117.390625 Z M 283.753906 119.648438 C 283.714844 119.648438 283.679688 119.636719 283.636719 119.628906 C 282.226562 119.328125 280.714844 119.050781 279.121094 118.808594 C 278.9375 118.78125 278.765625 118.71875 278.609375 118.621094 C 278.449219 118.523438 278.316406 118.402344 278.207031 118.25 C 278.097656 118.101562 278.019531 117.9375 277.976562 117.757812 C 277.929688 117.574219 277.921875 117.394531 277.953125 117.210938 C 277.976562 117.027344 278.039062 116.855469 278.136719 116.695312 C 278.230469 116.535156 278.355469 116.398438 278.503906 116.289062 C 278.65625 116.179688 278.820312 116.101562 279.003906 116.058594 C 279.183594 116.015625 279.367188 116.011719 279.550781 116.042969 C 281.1875 116.296875 282.757812 116.582031 284.21875 116.890625 C 284.386719 116.933594 284.546875 117.007812 284.691406 117.109375 C 284.832031 117.214844 284.953125 117.339844 285.050781 117.484375 C 285.144531 117.632812 285.210938 117.792969 285.25 117.96875 C 285.285156 118.140625 285.289062 118.3125 285.257812 118.488281 C 285.230469 118.660156 285.167969 118.824219 285.078125 118.976562 C 284.988281 119.125 284.871094 119.257812 284.730469 119.363281 C 284.589844 119.472656 284.4375 119.550781 284.265625 119.601562 C 284.097656 119.648438 283.925781 119.667969 283.75 119.648438 Z M 269.882812 117.769531 C 269.710938 117.738281 269.546875 117.675781 269.394531 117.585938 C 269.242188 117.492188 269.113281 117.375 269.003906 117.234375 C 268.898438 117.09375 268.820312 116.933594 268.769531 116.765625 C 268.722656 116.59375 268.707031 116.417969 268.726562 116.242188 C 268.746094 116.066406 268.792969 115.898438 268.875 115.738281 C 268.957031 115.582031 269.066406 115.445312 269.199219 115.328125 C 269.332031 115.210938 269.484375 115.121094 269.652344 115.0625 C 269.820312 115.003906 269.992188 114.976562 270.167969 114.984375 C 271.761719 115.101562 273.34375 115.246094 274.867188 115.414062 L 274.894531 115.414062 C 275.070312 115.449219 275.234375 115.511719 275.386719 115.605469 C 275.535156 115.699219 275.664062 115.820312 275.769531 115.964844 C 275.875 116.109375 275.953125 116.265625 275.996094 116.4375 C 276.042969 116.613281 276.054688 116.785156 276.035156 116.964844 C 276.011719 117.140625 275.957031 117.308594 275.875 117.464844 C 275.789062 117.621094 275.675781 117.757812 275.539062 117.871094 C 275.402344 117.988281 275.25 118.070312 275.082031 118.128906 C 274.910156 118.183594 274.738281 118.207031 274.558594 118.195312 C 273.070312 118.03125 271.519531 117.886719 269.960938 117.773438 Z M 173.488281 104.476562 C 173.367188 104.460938 173.253906 104.429688 173.140625 104.382812 C 173.027344 104.335938 172.925781 104.273438 172.828125 104.199219 C 172.730469 104.125 172.648438 104.042969 172.574219 103.945312 C 172.5 103.847656 172.4375 103.746094 172.390625 103.632812 C 172.34375 103.519531 172.3125 103.40625 172.292969 103.285156 C 172.277344 103.164062 172.277344 103.042969 172.289062 102.921875 C 172.304688 102.804688 172.335938 102.6875 172.378906 102.574219 C 172.421875 102.460938 172.480469 102.355469 172.554688 102.257812 C 173.453125 101.054688 174.320312 99.792969 175.136719 98.503906 C 175.230469 98.335938 175.355469 98.191406 175.507812 98.070312 C 175.660156 97.953125 175.832031 97.867188 176.019531 97.820312 C 176.207031 97.769531 176.394531 97.761719 176.585938 97.792969 C 176.777344 97.824219 176.957031 97.890625 177.121094 97.992188 C 177.285156 98.097656 177.421875 98.230469 177.53125 98.390625 C 177.640625 98.550781 177.710938 98.726562 177.746094 98.914062 C 177.785156 99.105469 177.78125 99.296875 177.738281 99.484375 C 177.695312 99.675781 177.617188 99.847656 177.503906 100.003906 C 176.648438 101.351562 175.738281 102.675781 174.796875 103.933594 C 174.644531 104.136719 174.449219 104.285156 174.21875 104.382812 C 173.984375 104.480469 173.742188 104.511719 173.492188 104.476562 Z M 113.179688 92.171875 C 112.757812 92.117188 112.429688 91.914062 112.195312 91.558594 C 111.277344 90.183594 110.441406 88.804688 109.714844 87.460938 C 109.640625 87.296875 109.597656 87.128906 109.585938 86.949219 C 109.574219 86.769531 109.597656 86.597656 109.652344 86.425781 C 109.710938 86.257812 109.792969 86.105469 109.910156 85.964844 C 110.023438 85.828125 110.160156 85.71875 110.316406 85.632812 C 110.472656 85.546875 110.640625 85.496094 110.820312 85.472656 C 110.996094 85.453125 111.171875 85.464844 111.34375 85.511719 C 111.515625 85.554688 111.675781 85.632812 111.820312 85.738281 C 111.964844 85.84375 112.082031 85.972656 112.175781 86.125 C 112.867188 87.394531 113.65625 88.703125 114.527344 90.007812 C 114.675781 90.238281 114.753906 90.488281 114.757812 90.761719 C 114.761719 91.035156 114.691406 91.289062 114.546875 91.519531 C 114.402344 91.753906 114.207031 91.929688 113.957031 92.046875 C 113.710938 92.164062 113.453125 92.207031 113.179688 92.171875 Z M 178.484375 96.609375 C 178.316406 96.585938 178.15625 96.535156 178.007812 96.453125 C 177.84375 96.367188 177.703125 96.25 177.585938 96.105469 C 177.46875 95.960938 177.382812 95.800781 177.328125 95.625 C 177.277344 95.449219 177.257812 95.265625 177.277344 95.082031 C 177.292969 94.898438 177.347656 94.722656 177.433594 94.558594 C 177.984375 93.53125 178.515625 92.464844 179.015625 91.390625 C 179.164062 91.074219 179.308594 90.761719 179.445312 90.453125 C 179.527344 90.296875 179.640625 90.160156 179.773438 90.042969 C 179.910156 89.929688 180.0625 89.84375 180.230469 89.785156 C 180.398438 89.726562 180.574219 89.703125 180.75 89.710938 C 180.929688 89.71875 181.097656 89.757812 181.261719 89.832031 C 181.421875 89.90625 181.566406 90.003906 181.691406 90.132812 C 181.816406 90.261719 181.910156 90.40625 181.980469 90.570312 C 182.050781 90.738281 182.085938 90.90625 182.089844 91.085938 C 182.089844 91.265625 182.0625 91.4375 182 91.605469 C 181.855469 91.925781 181.707031 92.246094 181.554688 92.570312 C 181.035156 93.695312 180.476562 94.808594 179.902344 95.878906 C 179.765625 96.136719 179.566406 96.332031 179.308594 96.464844 C 179.046875 96.597656 178.773438 96.644531 178.484375 96.609375 Z M 108.773438 83.964844 C 108.519531 83.933594 108.296875 83.839844 108.09375 83.683594 C 107.894531 83.527344 107.746094 83.335938 107.652344 83.097656 C 107.042969 81.59375 106.542969 80.046875 106.160156 78.46875 C 106.101562 78.28125 106.082031 78.09375 106.101562 77.902344 C 106.121094 77.707031 106.179688 77.527344 106.277344 77.359375 C 106.371094 77.1875 106.496094 77.046875 106.652344 76.929688 C 106.808594 76.8125 106.980469 76.730469 107.167969 76.683594 C 107.355469 76.640625 107.546875 76.632812 107.738281 76.667969 C 107.929688 76.699219 108.105469 76.769531 108.269531 76.878906 C 108.429688 76.984375 108.566406 77.121094 108.671875 77.28125 C 108.777344 77.445312 108.847656 77.621094 108.878906 77.8125 C 109.234375 79.257812 109.691406 80.671875 110.25 82.050781 C 110.320312 82.222656 110.351562 82.402344 110.351562 82.585938 C 110.347656 82.773438 110.3125 82.949219 110.238281 83.121094 C 110.164062 83.292969 110.0625 83.441406 109.929688 83.570312 C 109.796875 83.703125 109.644531 83.800781 109.472656 83.871094 C 109.25 83.964844 109.015625 83.996094 108.773438 83.964844 Z M 182.34375 88.113281 C 182.234375 88.097656 182.128906 88.070312 182.023438 88.03125 C 181.851562 87.964844 181.699219 87.867188 181.5625 87.742188 C 181.429688 87.613281 181.324219 87.464844 181.246094 87.296875 C 181.171875 87.125 181.128906 86.949219 181.125 86.761719 C 181.121094 86.578125 181.148438 86.398438 181.214844 86.222656 C 181.78125 84.738281 182.273438 83.285156 182.675781 81.910156 C 182.71875 81.722656 182.796875 81.550781 182.910156 81.394531 C 183.023438 81.238281 183.164062 81.113281 183.332031 81.015625 C 183.5 80.917969 183.679688 80.855469 183.871094 80.832031 C 184.0625 80.808594 184.25 80.824219 184.433594 80.878906 C 184.621094 80.933594 184.789062 81.019531 184.9375 81.144531 C 185.085938 81.265625 185.203125 81.414062 185.292969 81.585938 C 185.378906 81.757812 185.429688 81.941406 185.441406 82.132812 C 185.453125 82.328125 185.429688 82.515625 185.363281 82.695312 C 184.941406 84.144531 184.429688 85.664062 183.832031 87.222656 C 183.71875 87.523438 183.519531 87.757812 183.242188 87.925781 C 182.964844 88.089844 182.664062 88.152344 182.34375 88.113281 Z M 106.648438 74.917969 C 106.316406 74.875 106.035156 74.726562 105.804688 74.480469 C 105.574219 74.230469 105.453125 73.941406 105.433594 73.605469 C 105.355469 72.203125 105.40625 70.808594 105.585938 69.417969 C 105.621094 69.160156 105.65625 68.902344 105.703125 68.648438 C 105.722656 68.457031 105.777344 68.273438 105.875 68.105469 C 105.96875 67.9375 106.09375 67.792969 106.246094 67.675781 C 106.402344 67.554688 106.570312 67.472656 106.761719 67.425781 C 106.949219 67.378906 107.136719 67.371094 107.328125 67.40625 C 107.519531 67.4375 107.699219 67.503906 107.859375 67.609375 C 108.023438 67.714844 108.160156 67.851562 108.265625 68.011719 C 108.375 68.171875 108.445312 68.351562 108.480469 68.539062 C 108.511719 68.730469 108.507812 68.921875 108.464844 69.109375 C 108.425781 69.328125 108.394531 69.550781 108.367188 69.777344 C 108.207031 71 108.164062 72.226562 108.230469 73.457031 C 108.242188 73.640625 108.214844 73.820312 108.152344 73.996094 C 108.09375 74.171875 108 74.328125 107.875 74.464844 C 107.75 74.601562 107.605469 74.710938 107.4375 74.792969 C 107.269531 74.871094 107.09375 74.917969 106.910156 74.929688 C 106.820312 74.933594 106.734375 74.929688 106.648438 74.917969 Z M 147.292969 76.148438 C 147.035156 76.113281 146.804688 76.015625 146.601562 75.855469 C 146.398438 75.691406 146.253906 75.492188 146.160156 75.246094 C 146.160156 75.238281 146.042969 74.949219 145.847656 74.445312 C 145.777344 74.273438 145.746094 74.09375 145.746094 73.910156 C 145.75 73.722656 145.789062 73.546875 145.859375 73.375 C 145.933594 73.203125 146.035156 73.054688 146.167969 72.925781 C 146.300781 72.792969 146.453125 72.695312 146.625 72.625 C 146.789062 72.558594 146.957031 72.523438 147.132812 72.523438 C 147.429688 72.023438 147.792969 71.417969 148.21875 70.742188 C 148.324219 70.597656 148.449219 70.476562 148.601562 70.382812 C 148.75 70.285156 148.914062 70.21875 149.089844 70.1875 C 149.265625 70.152344 149.441406 70.152344 149.613281 70.183594 C 149.789062 70.21875 149.953125 70.28125 150.105469 70.375 C 150.253906 70.472656 150.382812 70.589844 150.488281 70.734375 C 150.59375 70.878906 150.667969 71.035156 150.714844 71.210938 C 150.757812 71.382812 150.769531 71.558594 150.75 71.734375 C 150.726562 71.910156 150.675781 72.078125 150.589844 72.234375 C 149.421875 74.097656 148.71875 75.40625 148.707031 75.417969 C 148.578125 75.660156 148.394531 75.851562 148.152344 75.984375 C 147.914062 76.117188 147.65625 76.175781 147.378906 76.15625 Z M 184.90625 79.148438 L 184.847656 79.140625 C 184.664062 79.109375 184.496094 79.042969 184.339844 78.945312 C 184.179688 78.84375 184.050781 78.71875 183.941406 78.566406 C 183.835938 78.414062 183.761719 78.25 183.722656 78.070312 C 183.679688 77.886719 183.675781 77.707031 183.707031 77.523438 C 183.785156 77.082031 183.847656 76.648438 183.902344 76.226562 C 184.039062 75.195312 184.113281 74.15625 184.125 73.117188 C 184.125 72.929688 184.160156 72.75 184.234375 72.582031 C 184.304688 72.410156 184.410156 72.257812 184.539062 72.128906 C 184.671875 71.996094 184.824219 71.898438 184.996094 71.828125 C 185.167969 71.757812 185.347656 71.722656 185.535156 71.722656 C 185.71875 71.722656 185.898438 71.761719 186.070312 71.832031 C 186.242188 71.90625 186.390625 72.007812 186.523438 72.136719 C 186.652344 72.269531 186.753906 72.421875 186.824219 72.59375 C 186.894531 72.765625 186.929688 72.945312 186.929688 73.128906 C 186.917969 74.289062 186.839844 75.441406 186.6875 76.585938 C 186.625 77.046875 186.554688 77.519531 186.472656 78 C 186.441406 78.179688 186.378906 78.34375 186.28125 78.5 C 186.1875 78.652344 186.066406 78.785156 185.921875 78.890625 C 185.773438 79 185.613281 79.074219 185.4375 79.121094 C 185.261719 79.164062 185.085938 79.175781 184.90625 79.152344 Z M 145.089844 71.023438 C 144.582031 70.957031 144.222656 70.695312 144.003906 70.230469 C 143.335938 68.8125 142.636719 67.433594 141.929688 66.128906 C 141.824219 65.964844 141.75 65.789062 141.71875 65.59375 C 141.683594 65.398438 141.691406 65.207031 141.738281 65.015625 C 141.785156 64.828125 141.871094 64.652344 141.992188 64.496094 C 142.109375 64.339844 142.257812 64.21875 142.429688 64.121094 C 142.601562 64.027344 142.789062 63.972656 142.984375 63.957031 C 143.179688 63.941406 143.371094 63.964844 143.554688 64.027344 C 143.742188 64.09375 143.90625 64.191406 144.050781 64.324219 C 144.195312 64.457031 144.308594 64.613281 144.386719 64.792969 C 145.121094 66.144531 145.84375 67.570312 146.535156 69.039062 C 146.640625 69.273438 146.683594 69.515625 146.660156 69.769531 C 146.636719 70.023438 146.546875 70.253906 146.398438 70.460938 C 146.246094 70.667969 146.054688 70.824219 145.820312 70.925781 C 145.585938 71.027344 145.339844 71.058594 145.085938 71.027344 Z M 108.203125 65.796875 C 107.984375 65.769531 107.785156 65.695312 107.605469 65.574219 C 107.421875 65.449219 107.277344 65.292969 107.167969 65.105469 C 107.058594 64.914062 107 64.710938 106.984375 64.492188 C 106.972656 64.273438 107.007812 64.0625 107.09375 63.859375 C 107.75 62.324219 108.574219 60.882812 109.566406 59.535156 C 109.675781 59.386719 109.8125 59.261719 109.96875 59.167969 C 110.128906 59.070312 110.300781 59.007812 110.484375 58.980469 C 110.667969 58.953125 110.851562 58.964844 111.03125 59.007812 C 111.214844 59.054688 111.378906 59.128906 111.527344 59.242188 C 111.675781 59.351562 111.800781 59.488281 111.894531 59.644531 C 111.992188 59.804688 112.054688 59.976562 112.082031 60.160156 C 112.109375 60.34375 112.101562 60.527344 112.054688 60.707031 C 112.011719 60.890625 111.933594 61.054688 111.820312 61.203125 C 110.957031 62.375 110.242188 63.625 109.671875 64.960938 C 109.546875 65.25 109.347656 65.472656 109.078125 65.625 C 108.804688 65.78125 108.511719 65.839844 108.203125 65.796875 Z M 151.84375 69.003906 C 151.722656 68.988281 151.609375 68.957031 151.496094 68.910156 C 151.382812 68.863281 151.277344 68.804688 151.183594 68.730469 C 151.085938 68.65625 151 68.570312 150.925781 68.476562 C 150.851562 68.378906 150.789062 68.277344 150.742188 68.164062 C 150.695312 68.054688 150.660156 67.9375 150.644531 67.816406 C 150.625 67.699219 150.625 67.578125 150.636719 67.457031 C 150.648438 67.335938 150.679688 67.21875 150.722656 67.105469 C 150.765625 66.992188 150.824219 66.886719 150.894531 66.789062 C 151.890625 65.429688 152.894531 64.164062 153.886719 63.035156 C 154.011719 62.910156 154.15625 62.8125 154.320312 62.742188 C 154.484375 62.671875 154.65625 62.632812 154.832031 62.628906 C 155.011719 62.621094 155.183594 62.648438 155.351562 62.710938 C 155.515625 62.769531 155.667969 62.859375 155.800781 62.976562 C 155.933594 63.09375 156.042969 63.230469 156.125 63.390625 C 156.207031 63.546875 156.253906 63.714844 156.273438 63.890625 C 156.289062 64.070312 156.273438 64.242188 156.226562 64.414062 C 156.175781 64.585938 156.097656 64.742188 155.992188 64.882812 C 155.054688 65.949219 154.101562 67.148438 153.15625 68.441406 C 153.007812 68.648438 152.8125 68.800781 152.578125 68.902344 C 152.34375 69.003906 152.097656 69.039062 151.84375 69.007812 Z M 184.824219 69.890625 C 184.539062 69.851562 184.289062 69.738281 184.074219 69.546875 C 183.855469 69.355469 183.714844 69.117188 183.644531 68.839844 C 183.3125 67.472656 182.757812 66.203125 181.984375 65.03125 C 181.863281 64.878906 181.78125 64.707031 181.734375 64.519531 C 181.6875 64.332031 181.679688 64.140625 181.710938 63.949219 C 181.742188 63.757812 181.808594 63.582031 181.914062 63.417969 C 182.019531 63.257812 182.152344 63.121094 182.3125 63.011719 C 182.472656 62.90625 182.648438 62.832031 182.839844 62.796875 C 183.03125 62.761719 183.21875 62.765625 183.410156 62.808594 C 183.597656 62.851562 183.769531 62.933594 183.925781 63.046875 C 184.082031 63.160156 184.210938 63.300781 184.308594 63.46875 C 185.265625 64.910156 185.949219 66.472656 186.359375 68.15625 C 186.417969 68.382812 186.417969 68.605469 186.363281 68.832031 C 186.308594 69.054688 186.203125 69.253906 186.046875 69.425781 C 185.894531 69.601562 185.710938 69.726562 185.492188 69.808594 C 185.277344 69.890625 185.054688 69.914062 184.824219 69.886719 Z M 140.605469 62.824219 C 140.175781 62.769531 139.84375 62.558594 139.609375 62.191406 C 138.796875 60.917969 137.921875 59.691406 136.980469 58.511719 C 136.851562 58.367188 136.753906 58.203125 136.691406 58.019531 C 136.625 57.835938 136.601562 57.648438 136.617188 57.457031 C 136.632812 57.261719 136.683594 57.078125 136.773438 56.90625 C 136.863281 56.738281 136.984375 56.589844 137.136719 56.46875 C 137.289062 56.347656 137.457031 56.261719 137.644531 56.210938 C 137.832031 56.15625 138.019531 56.144531 138.214844 56.171875 C 138.40625 56.199219 138.582031 56.265625 138.75 56.367188 C 138.914062 56.46875 139.054688 56.597656 139.164062 56.757812 C 140.167969 58.015625 141.105469 59.320312 141.96875 60.679688 C 142.117188 60.910156 142.1875 61.160156 142.1875 61.433594 C 142.1875 61.703125 142.117188 61.957031 141.96875 62.183594 C 141.824219 62.414062 141.628906 62.585938 141.378906 62.703125 C 141.132812 62.816406 140.875 62.859375 140.605469 62.824219 Z M 113.660156 58.328125 C 113.386719 58.289062 113.148438 58.183594 112.9375 58.007812 C 112.730469 57.828125 112.585938 57.609375 112.503906 57.347656 C 112.425781 57.085938 112.421875 56.824219 112.496094 56.558594 C 112.566406 56.296875 112.707031 56.074219 112.910156 55.890625 C 114.144531 54.796875 115.476562 53.832031 116.898438 52.992188 C 117.054688 52.910156 117.222656 52.863281 117.402344 52.84375 C 117.578125 52.828125 117.753906 52.84375 117.925781 52.894531 C 118.097656 52.945312 118.253906 53.023438 118.394531 53.132812 C 118.535156 53.242188 118.652344 53.375 118.742188 53.527344 C 118.832031 53.679688 118.890625 53.847656 118.921875 54.023438 C 118.949219 54.199219 118.941406 54.375 118.902344 54.546875 C 118.863281 54.722656 118.792969 54.882812 118.695312 55.03125 C 118.59375 55.179688 118.46875 55.300781 118.320312 55.402344 C 117.054688 56.148438 115.871094 57.011719 114.769531 57.984375 C 114.449219 58.269531 114.082031 58.382812 113.660156 58.328125 Z M 158.054688 62.046875 C 157.785156 62.007812 157.542969 61.902344 157.335938 61.722656 C 157.128906 61.542969 156.984375 61.324219 156.90625 61.058594 C 156.828125 60.796875 156.824219 60.53125 156.902344 60.269531 C 156.976562 60.003906 157.117188 59.78125 157.324219 59.601562 C 158.746094 58.382812 160.148438 57.4375 161.5 56.796875 C 161.664062 56.730469 161.835938 56.699219 162.011719 56.699219 C 162.191406 56.703125 162.359375 56.734375 162.523438 56.800781 C 162.691406 56.863281 162.835938 56.957031 162.964844 57.078125 C 163.09375 57.199219 163.199219 57.339844 163.273438 57.5 C 163.351562 57.660156 163.394531 57.828125 163.40625 58.003906 C 163.417969 58.183594 163.398438 58.355469 163.347656 58.523438 C 163.292969 58.691406 163.210938 58.847656 163.101562 58.984375 C 162.988281 59.121094 162.855469 59.234375 162.703125 59.324219 C 161.578125 59.855469 160.382812 60.660156 159.152344 61.71875 C 158.835938 61.992188 158.46875 62.101562 158.054688 62.046875 Z M 179.71875 62.332031 C 179.488281 62.304688 179.277344 62.21875 179.085938 62.082031 C 177.910156 61.257812 176.644531 60.601562 175.289062 60.121094 C 175.101562 60.066406 174.933594 59.976562 174.785156 59.851562 C 174.636719 59.726562 174.519531 59.578125 174.429688 59.40625 C 174.34375 59.234375 174.292969 59.050781 174.28125 58.855469 C 174.269531 58.660156 174.300781 58.472656 174.367188 58.292969 C 174.433594 58.109375 174.53125 57.949219 174.667969 57.808594 C 174.800781 57.667969 174.957031 57.558594 175.132812 57.484375 C 175.3125 57.40625 175.5 57.371094 175.691406 57.371094 C 175.886719 57.371094 176.074219 57.414062 176.25 57.492188 C 177.84375 58.058594 179.332031 58.832031 180.714844 59.808594 C 180.976562 59.996094 181.148438 60.242188 181.238281 60.550781 C 181.328125 60.855469 181.3125 61.160156 181.195312 61.457031 C 181.078125 61.753906 180.882812 61.984375 180.605469 62.148438 C 180.332031 62.308594 180.035156 62.371094 179.71875 62.332031 Z M 134.683594 55.628906 C 134.40625 55.589844 134.160156 55.480469 133.945312 55.292969 C 132.753906 54.25 131.570312 53.492188 130.4375 53.042969 C 130.253906 52.984375 130.089844 52.890625 129.945312 52.761719 C 129.800781 52.632812 129.683594 52.480469 129.601562 52.304688 C 129.519531 52.128906 129.476562 51.945312 129.46875 51.75 C 129.464844 51.558594 129.496094 51.371094 129.570312 51.191406 C 129.640625 51.011719 129.746094 50.851562 129.882812 50.714844 C 130.019531 50.578125 130.179688 50.476562 130.359375 50.402344 C 130.539062 50.332031 130.726562 50.300781 130.917969 50.308594 C 131.113281 50.3125 131.296875 50.359375 131.472656 50.441406 C 132.902344 51.007812 134.355469 51.933594 135.792969 53.183594 C 136.023438 53.386719 136.167969 53.640625 136.234375 53.941406 C 136.296875 54.242188 136.265625 54.535156 136.140625 54.8125 C 136.011719 55.09375 135.816406 55.308594 135.546875 55.460938 C 135.277344 55.609375 134.992188 55.664062 134.683594 55.628906 Z M 121.652344 53.609375 C 121.332031 53.566406 121.058594 53.429688 120.835938 53.195312 C 120.609375 52.964844 120.480469 52.6875 120.445312 52.367188 C 120.414062 52.046875 120.480469 51.746094 120.652344 51.472656 C 120.824219 51.199219 121.0625 51.007812 121.367188 50.898438 C 122.945312 50.328125 124.570312 49.957031 126.242188 49.789062 C 126.421875 49.78125 126.59375 49.808594 126.761719 49.871094 C 126.929688 49.929688 127.082031 50.019531 127.214844 50.136719 C 127.347656 50.253906 127.457031 50.394531 127.539062 50.554688 C 127.617188 50.710938 127.667969 50.882812 127.683594 51.058594 C 127.699219 51.238281 127.683594 51.410156 127.632812 51.582031 C 127.582031 51.753906 127.503906 51.910156 127.394531 52.050781 C 127.285156 52.191406 127.152344 52.308594 127 52.398438 C 126.84375 52.488281 126.679688 52.546875 126.503906 52.574219 C 125.0625 52.726562 123.660156 53.046875 122.292969 53.539062 C 122.085938 53.613281 121.871094 53.636719 121.652344 53.609375 Z M 166.429688 58.546875 C 166.257812 58.519531 166.09375 58.457031 165.941406 58.367188 C 165.789062 58.277344 165.660156 58.160156 165.550781 58.023438 C 165.441406 57.882812 165.363281 57.726562 165.3125 57.558594 C 165.261719 57.386719 165.246094 57.214844 165.261719 57.039062 C 165.277344 56.863281 165.324219 56.695312 165.402344 56.535156 C 165.480469 56.378906 165.585938 56.238281 165.71875 56.121094 C 165.847656 56.003906 165.996094 55.910156 166.164062 55.847656 C 166.328125 55.785156 166.5 55.757812 166.675781 55.757812 C 167.925781 55.816406 169.058594 55.914062 170.203125 56.0625 C 170.625 56.117188 171.054688 56.179688 171.488281 56.257812 C 171.664062 56.296875 171.824219 56.367188 171.96875 56.46875 C 172.117188 56.570312 172.238281 56.695312 172.339844 56.84375 C 172.4375 56.992188 172.507812 57.15625 172.542969 57.332031 C 172.582031 57.503906 172.585938 57.679688 172.554688 57.855469 C 172.523438 58.03125 172.464844 58.199219 172.371094 58.351562 C 172.277344 58.503906 172.160156 58.632812 172.019531 58.742188 C 171.875 58.847656 171.71875 58.925781 171.546875 58.976562 C 171.375 59.023438 171.199219 59.035156 171.019531 59.015625 C 170.609375 58.949219 170.210938 58.890625 169.808594 58.835938 C 168.769531 58.699219 167.703125 58.609375 166.550781 58.558594 C 166.511719 58.558594 166.46875 58.554688 166.429688 58.550781 Z M 166.429688 58.546875 " fill-opacity="1" fill-rule="nonzero"/></g></svg>