<svg xmlns="http://www.w3.org/2000/svg" xmlns:xlink="http://www.w3.org/1999/xlink" width="500" zoomAndPan="magnify" viewBox="0 0 375 225" height="300" preserveAspectRatio="xMidYMid meet" version="1.0"><defs><clipPath id="fea6a4f16b"><path d="M 0 13.636719 L 375 13.636719 L 375 225 L 0 225 Z M 0 13.636719 " clip-rule="nonzero"/></clipPath></defs><g clip-path="url(#fea6a4f16b)"><path fill="#ffffff" d="M 357.226562 148.195312 C 358.21875 148.988281 359.199219 149.640625 360.039062 150.429688 C 361.445312 151.734375 362.8125 153.089844 364.117188 154.507812 C 365.5625 156.066406 366.929688 157.683594 368.308594 159.292969 C 368.722656 159.78125 369.074219 160.433594 368.773438 161.023438 C 368.484375 161.589844 367.832031 161.8125 367.144531 161.789062 C 366.992188 161.777344 366.839844 161.777344 366.691406 161.789062 C 366.214844 161.851562 365.574219 161.539062 365.359375 162.140625 C 365.285156 162.355469 365.789062 162.769531 366.039062 163.082031 C 367.28125 164.636719 368.546875 166.179688 369.792969 167.75 C 370.242188 168.316406 370.28125 168.96875 369.765625 169.484375 C 369.0625 170.199219 368.9375 171.050781 368.8125 171.980469 C 368.625 173.484375 368.246094 174.980469 367.945312 176.472656 C 367.921875 176.574219 367.933594 176.675781 367.921875 176.761719 C 367.820312 178.292969 367.644531 179.8125 367.632812 181.34375 C 367.59375 187.003906 367.632812 192.675781 367.605469 198.335938 C 367.605469 198.953125 367.871094 199.617188 367.34375 200.207031 C 367.230469 200.332031 367.457031 200.847656 367.632812 201.109375 C 369.027344 203.207031 369.617188 205.65625 370.757812 207.863281 C 371.597656 209.484375 372.414062 211.125 373.230469 212.757812 C 373.59375 213.472656 373.894531 214.214844 374.308594 214.890625 C 374.800781 215.683594 374.574219 216.535156 374.574219 217.351562 C 374.574219 217.839844 373.480469 218.332031 372.902344 218.207031 C 372.441406 218.105469 371.976562 217.980469 371.5 217.929688 C 369.902344 217.753906 368.296875 217.765625 366.742188 217.328125 C 366.554688 217.277344 366.339844 217.316406 366.140625 217.316406 C 364.46875 217.339844 362.851562 217.050781 361.230469 216.722656 C 360.078125 216.5 358.882812 216.535156 357.71875 216.386719 C 356.625 216.246094 355.546875 216.007812 354.453125 215.847656 C 353.5 215.707031 352.535156 215.609375 351.566406 215.480469 C 349.15625 215.179688 346.746094 214.96875 344.363281 214.539062 C 342.167969 214.152344 339.96875 213.875 337.761719 213.625 C 335.878906 213.410156 333.984375 213.199219 332.101562 213.007812 C 329.703125 212.769531 327.304688 212.59375 324.921875 212.382812 C 323.492188 212.257812 322.035156 212.371094 320.652344 212.09375 C 318.757812 211.714844 316.863281 212.054688 315.007812 211.816406 C 310.601562 211.238281 306.183594 211.640625 301.777344 211.554688 C 297.320312 211.476562 292.867188 211.328125 288.421875 211.617188 C 285.523438 211.804688 282.613281 211.542969 279.75 211.90625 C 277 212.257812 274.238281 211.855469 271.527344 212.195312 C 268.78125 212.546875 266.019531 212.179688 263.308594 212.519531 C 261.414062 212.757812 259.519531 212.507812 257.660156 212.808594 C 255.867188 213.097656 254.058594 212.820312 252.324219 213.121094 C 250.53125 213.4375 248.738281 213.121094 246.992188 213.410156 C 245.410156 213.675781 243.828125 213.523438 242.261719 213.699219 C 239.761719 213.976562 237.277344 214.214844 234.765625 214.300781 C 232.671875 214.378906 230.574219 214.601562 228.492188 214.90625 C 226.507812 215.191406 224.511719 215.355469 222.515625 215.53125 C 220.371094 215.707031 218.226562 215.910156 216.089844 216.160156 C 213.570312 216.449219 211.019531 216.648438 208.535156 217.300781 C 206.300781 217.90625 204.09375 218.558594 202.183594 219.914062 C 200.152344 221.355469 197.792969 222.035156 195.46875 222.75 C 192.933594 223.527344 190.300781 223.515625 187.6875 223.339844 C 185.832031 223.214844 184 222.671875 182.140625 222.484375 C 180.082031 222.285156 178.175781 221.621094 176.230469 220.992188 C 174.460938 220.425781 172.867188 219.535156 171.296875 218.632812 C 170.429688 218.144531 169.566406 217.777344 168.671875 217.652344 C 166.339844 217.328125 164.054688 216.824219 161.746094 216.421875 C 159.875 216.097656 157.96875 216.046875 156.085938 215.769531 C 153.75 215.433594 151.390625 215.382812 149.054688 215.105469 C 147.109375 214.878906 145.179688 215.042969 143.257812 214.867188 C 137.132812 214.316406 130.984375 214.390625 124.871094 214.652344 C 118.832031 214.90625 112.796875 214.601562 106.785156 214.941406 C 104.550781 215.066406 102.292969 214.90625 100.082031 215.230469 C 98.136719 215.519531 96.191406 215.230469 94.285156 215.53125 C 92.4375 215.820312 90.59375 215.542969 88.796875 215.832031 C 87.054688 216.121094 85.308594 215.847656 83.613281 216.132812 C 81.972656 216.410156 80.328125 216.160156 78.734375 216.4375 C 77.1875 216.699219 75.644531 216.460938 74.152344 216.738281 C 72.707031 217 71.277344 216.824219 69.871094 217.011719 C 67.539062 217.339844 65.175781 217.402344 62.832031 217.601562 C 60.886719 217.765625 58.953125 217.992188 57.007812 218.207031 C 55.261719 218.394531 53.519531 218.558594 51.796875 218.820312 C 50.015625 219.109375 48.234375 219.296875 46.4375 219.449219 C 44.378906 219.609375 42.347656 220.0625 40.289062 220.3125 C 38.871094 220.488281 37.414062 220.390625 36.023438 220.664062 C 34.691406 220.929688 33.335938 220.777344 32.003906 221.191406 C 31 221.507812 29.871094 221.445312 28.804688 221.53125 C 27.535156 221.644531 26.230469 221.59375 24.988281 221.871094 C 23.292969 222.234375 21.550781 222.183594 19.882812 222.722656 C 19.066406 222.988281 18.148438 222.925781 17.28125 223.0625 C 15.386719 223.351562 13.492188 223.691406 11.585938 223.964844 C 10.566406 224.117188 9.539062 224.140625 8.523438 224.292969 C 7.429688 224.457031 6.363281 224.769531 5.285156 224.871094 C 4.128906 224.96875 2.949219 224.996094 1.796875 224.859375 C 0.613281 224.71875 0.265625 223.628906 0.878906 222.371094 C 1.292969 221.53125 1.71875 220.703125 2.160156 219.875 C 3.464844 217.425781 4.746094 214.96875 6.101562 212.558594 C 7.140625 210.710938 8.132812 208.84375 8.585938 206.757812 C 8.722656 206.09375 8.960938 205.339844 8.773438 204.738281 C 8.335938 203.359375 8.683594 201.964844 8.496094 200.609375 C 8.121094 197.722656 8.472656 194.796875 8.144531 191.9375 C 7.757812 188.523438 8.070312 185.132812 7.894531 181.730469 C 7.808594 180.050781 7.917969 178.382812 7.667969 176.6875 C 7.429688 175.105469 7.78125 173.4375 7.917969 171.816406 C 7.945312 171.566406 8.234375 171.351562 8.410156 171.113281 C 9.726562 169.28125 11.058594 167.460938 12.363281 165.617188 C 12.4375 165.515625 12.351562 165.140625 12.300781 165.128906 C 11.773438 165.050781 11.460938 164.777344 11.546875 164.234375 C 11.621094 163.722656 11.660156 163.132812 11.949219 162.742188 C 13.101562 161.1875 14.371094 159.691406 15.574219 158.160156 C 17.28125 155.988281 18.851562 153.691406 20.671875 151.636719 C 22.554688 149.515625 23.882812 146.980469 25.957031 145.03125 C 26.21875 144.78125 26.21875 144.53125 25.753906 144.441406 C 24.726562 144.253906 23.695312 144.027344 22.667969 143.839844 C 21.738281 143.675781 20.808594 143.527344 19.96875 143.023438 C 18.964844 142.410156 18.863281 141.871094 19.65625 141.03125 C 21.125 139.460938 22.542969 137.855469 24.074219 136.335938 C 26.054688 134.363281 28.164062 132.496094 30.148438 130.523438 C 31.917969 128.753906 33.5625 126.871094 35.320312 125.089844 C 36.613281 123.785156 38.015625 122.578125 39.359375 121.3125 C 39.546875 121.136719 39.625 120.835938 39.75 120.582031 C 39.511719 120.546875 39.285156 120.484375 39.046875 120.457031 C 36.800781 120.257812 34.554688 120.144531 32.320312 119.832031 C 29.332031 119.417969 26.34375 118.902344 23.382812 118.3125 C 21.851562 118.011719 20.332031 117.796875 18.777344 117.695312 C 18.0625 117.648438 17.257812 117.34375 16.707031 116.90625 C 16.054688 116.390625 16.277344 115.460938 16.492188 114.808594 C 17.082031 112.992188 17.824219 111.21875 18.539062 109.4375 C 19.554688 106.890625 20.886719 104.503906 22.492188 102.273438 C 23.308594 101.128906 24.148438 100 25.066406 98.933594 C 26.785156 96.949219 28.542969 95.003906 30.3125 93.058594 C 31.792969 91.441406 33.3125 89.847656 34.816406 88.253906 C 36.851562 86.105469 38.859375 83.945312 40.941406 81.839844 C 49.125 73.53125 57.308594 65.234375 65.515625 56.960938 C 67.523438 54.941406 69.570312 52.933594 71.730469 51.074219 C 74.265625 48.878906 76.9375 46.832031 79.5625 44.726562 C 82.019531 42.753906 84.457031 40.734375 86.992188 38.839844 C 89.011719 37.332031 91.183594 36.003906 93.253906 34.558594 C 95 33.339844 96.691406 33.628906 98.449219 34.484375 C 100.722656 35.589844 103.019531 36.628906 105.304688 37.710938 C 107.800781 38.890625 110.335938 39.992188 112.769531 41.300781 C 113.574219 41.738281 113.710938 41.4375 114.050781 40.898438 C 115.882812 37.960938 117.742188 35.035156 119.613281 32.125 C 121.367188 29.386719 122.800781 26.476562 124.15625 23.539062 C 125.222656 21.230469 126.363281 18.957031 126.601562 16.359375 C 126.652344 15.820312 126.917969 15.28125 127.128906 14.765625 C 127.542969 13.8125 128.410156 13.609375 129.1875 14.289062 C 130.757812 15.632812 132.363281 16.949219 133.871094 18.378906 C 135.800781 20.214844 137.785156 22.046875 139.515625 24.066406 C 142.027344 26.976562 144.324219 30.054688 146.734375 33.054688 C 148.175781 34.847656 149.734375 36.542969 151.113281 38.375 C 153.160156 41.125 155.28125 43.796875 157.300781 46.570312 C 159.5625 49.671875 161.78125 52.796875 163.890625 55.996094 C 165.460938 58.367188 166.941406 60.789062 168.398438 63.226562 C 170.140625 66.136719 171.910156 69.035156 173.53125 72.023438 C 175.074219 74.859375 176.441406 77.796875 177.859375 80.695312 C 180.058594 85.203125 181.878906 89.847656 183.710938 94.515625 C 185.316406 98.621094 186.558594 102.835938 188.128906 106.953125 C 188.628906 108.269531 188.769531 109.714844 189.117188 111.09375 C 189.195312 111.410156 189.40625 111.683594 189.558594 111.972656 C 189.707031 111.734375 189.882812 111.507812 190.023438 111.269531 C 190.375 110.605469 190.675781 109.914062 191.078125 109.273438 C 192.632812 106.777344 194.140625 104.242188 195.808594 101.832031 C 197.566406 99.296875 199.5 96.875 201.367188 94.414062 C 203.300781 91.855469 205.410156 89.433594 207.695312 87.171875 C 210.96875 83.933594 214.171875 80.632812 217.472656 77.421875 C 220.15625 74.824219 222.917969 72.300781 225.691406 69.800781 C 227.851562 67.855469 230.035156 65.949219 232.292969 64.117188 C 234.816406 62.082031 237.441406 60.175781 240 58.191406 C 243.816406 55.253906 248.019531 52.921875 252.050781 50.308594 C 257.445312 46.820312 263.246094 44.121094 268.957031 41.261719 C 271.753906 39.855469 274.640625 38.636719 277.476562 37.296875 C 278.671875 36.730469 279.824219 36.089844 280.953125 35.425781 C 281.480469 35.109375 281.871094 35.175781 282.421875 35.425781 C 284.179688 36.214844 285.75 37.230469 287.253906 38.4375 C 289.742188 40.433594 292.3125 42.328125 294.863281 44.25 C 296.441406 45.441406 298.050781 46.582031 299.605469 47.800781 C 301.640625 49.382812 303.660156 51 305.644531 52.632812 C 306.632812 53.449219 307.574219 54.328125 308.53125 55.207031 C 310.210938 56.773438 311.894531 58.34375 313.550781 59.925781 C 316.058594 62.308594 318.582031 64.679688 321.03125 67.128906 C 322.625 68.710938 324.15625 70.367188 325.648438 72.050781 C 327.445312 74.070312 329.1875 76.128906 330.90625 78.210938 C 333.042969 80.808594 335.175781 83.40625 337.234375 86.054688 C 340.332031 90.023438 343.636719 93.835938 346.484375 98.003906 C 348.59375 101.09375 350.890625 104.042969 352.871094 107.203125 C 354.367188 109.578125 355.507812 112.175781 356.761719 114.683594 C 357.214844 115.589844 356.25 117.042969 355.183594 117.132812 C 353.714844 117.257812 352.21875 117.269531 350.765625 117.457031 C 349.007812 117.683594 347.273438 118.0625 345.515625 118.351562 C 344.652344 118.488281 343.773438 118.539062 342.917969 118.664062 C 341.363281 118.890625 339.820312 119.277344 338.277344 119.480469 C 336.832031 119.667969 335.402344 119.894531 333.984375 120.183594 C 331.800781 120.621094 329.617188 121.109375 327.445312 121.613281 C 325.183594 122.128906 322.925781 122.65625 320.679688 123.21875 C 317.929688 123.910156 315.167969 124.550781 312.46875 125.390625 C 308.945312 126.496094 305.453125 127.726562 301.976562 128.992188 C 299.167969 130.023438 296.417969 131.1875 293.65625 132.34375 C 284.832031 136.023438 276.324219 140.375 267.851562 144.78125 C 264.175781 146.691406 260.597656 148.785156 256.984375 150.792969 C 254.796875 152.011719 252.601562 153.191406 250.46875 154.484375 C 247.796875 156.101562 245.097656 157.710938 242.535156 159.503906 C 239.574219 161.574219 236.726562 163.820312 233.851562 166.03125 C 231.464844 167.863281 229.09375 169.722656 226.757812 171.617188 C 225.226562 172.859375 223.796875 174.203125 222.277344 175.457031 C 220.898438 176.597656 219.453125 177.664062 218.050781 178.796875 C 217.246094 179.449219 216.46875 180.136719 215.703125 180.828125 C 214.195312 182.210938 212.703125 183.613281 211.207031 185.007812 C 208.109375 187.90625 204.957031 190.757812 201.921875 193.71875 C 199.699219 195.890625 197.617188 198.199219 195.46875 200.445312 C 195.371094 200.546875 195.34375 200.722656 195.28125 200.871094 C 195.457031 200.824219 195.644531 200.796875 195.796875 200.710938 C 197.855469 199.453125 200.089844 198.5 201.996094 196.96875 C 203.953125 195.402344 206 193.957031 208.007812 192.449219 C 210.089844 190.882812 212.164062 189.300781 214.246094 187.730469 C 215.867188 186.515625 217.484375 185.285156 219.117188 184.09375 C 220.9375 182.75 222.753906 181.40625 224.601562 180.125 C 227.777344 177.917969 230.964844 175.734375 234.191406 173.585938 C 235.519531 172.695312 236.964844 171.980469 238.34375 171.164062 C 239.6875 170.375 240.929688 169.332031 242.375 168.804688 C 244.332031 168.089844 246.101562 167.058594 247.957031 166.15625 C 252.464844 163.960938 257.058594 162.003906 261.738281 160.207031 C 266.898438 158.238281 272.082031 156.339844 277.367188 154.699219 C 281.09375 153.542969 284.808594 152.335938 288.597656 151.398438 C 290.984375 150.804688 293.332031 150.089844 295.738281 149.601562 C 297.410156 149.261719 299.039062 148.75 300.710938 148.410156 C 303.007812 147.945312 305.328125 147.582031 307.636719 147.179688 C 309.949219 146.777344 312.257812 146.3125 314.578125 145.988281 C 316.5625 145.699219 318.558594 145.597656 320.539062 145.347656 C 322.597656 145.082031 324.632812 144.71875 326.691406 144.457031 C 328.058594 144.292969 329.453125 144.355469 330.808594 144.105469 C 332.289062 143.839844 333.832031 144.09375 335.277344 143.539062 C 335.5 143.453125 335.777344 143.539062 336.027344 143.527344 C 337.761719 143.425781 339.492188 143.339844 341.210938 143.226562 C 342.179688 143.164062 343.15625 143.023438 344.125 142.925781 C 345.089844 142.824219 346.070312 142.722656 347.035156 142.625 C 347.136719 142.609375 347.289062 142.660156 347.335938 142.609375 C 348.214844 141.570312 349.382812 142.097656 350.4375 142.035156 C 351.691406 141.957031 352.972656 142.058594 354.226562 142.007812 C 356.109375 141.945312 357.992188 141.820312 359.863281 141.707031 C 360 141.695312 360.125 141.632812 360.265625 141.582031 C 360.214844 141.40625 360.214844 141.179688 360.101562 141.066406 C 357.753906 138.808594 355.421875 136.523438 353.035156 134.316406 C 351.816406 133.183594 350.511719 132.128906 349.207031 131.089844 C 347.539062 129.769531 345.84375 128.476562 344.136719 127.222656 C 342.40625 125.941406 340.636719 124.699219 338.867188 123.46875 C 337.972656 122.84375 337.03125 122.265625 336.140625 121.636719 C 335.738281 121.363281 335.453125 120.910156 335.851562 120.519531 C 336.117188 120.257812 336.695312 120.09375 337.046875 120.195312 C 337.710938 120.382812 338.363281 120.722656 338.929688 121.109375 C 342.003906 123.230469 345.078125 125.351562 348.101562 127.550781 C 350.601562 129.355469 353.011719 131.277344 355.230469 133.4375 C 357.203125 135.355469 359.234375 137.214844 361.207031 139.132812 C 361.734375 139.636719 362.183594 140.238281 362.597656 140.828125 C 363.027344 141.445312 362.648438 142.472656 362.035156 142.925781 C 361.269531 143.488281 360.363281 143.664062 359.511719 143.777344 C 357.753906 144.015625 355.960938 144.027344 354.175781 144.117188 C 353.824219 144.140625 353.460938 144.09375 353.136719 144.167969 C 352.871094 144.230469 352.660156 144.429688 352.421875 144.582031 C 352.609375 144.730469 352.796875 144.882812 352.996094 145.03125 C 354.402344 146.101562 355.785156 147.105469 357.226562 148.195312 M 316.488281 122.015625 C 316.636719 122.015625 316.789062 122.050781 316.9375 122.015625 C 319.273438 121.410156 321.582031 120.773438 323.929688 120.207031 C 325.914062 119.730469 327.921875 119.328125 329.917969 118.914062 C 331.875 118.511719 333.84375 118.136719 335.816406 117.773438 C 337.183594 117.519531 338.5625 117.320312 339.933594 117.082031 C 341.488281 116.820312 343.03125 116.480469 344.589844 116.265625 C 345.855469 116.089844 347.148438 116.140625 348.402344 115.925781 C 350.1875 115.613281 351.957031 115.335938 353.777344 115.335938 C 354.742188 115.335938 354.804688 115.261719 354.328125 114.347656 C 353.171875 112.136719 352.054688 109.914062 350.777344 107.78125 C 349.597656 105.824219 348.265625 103.953125 346.921875 102.097656 C 345.367188 99.9375 343.746094 97.839844 342.128906 95.734375 C 340.421875 93.5 338.703125 91.277344 336.945312 89.082031 C 335.878906 87.738281 334.710938 86.46875 333.644531 85.140625 C 332.113281 83.257812 330.644531 81.324219 329.113281 79.429688 C 328.371094 78.511719 327.53125 77.660156 326.765625 76.753906 C 325.007812 74.710938 323.363281 72.539062 321.480469 70.617188 C 318.105469 67.167969 314.605469 63.839844 311.101562 60.515625 C 309.207031 58.707031 307.222656 56.976562 305.242188 55.253906 C 303.320312 53.585938 301.386719 51.90625 299.390625 50.324219 C 297.546875 48.867188 295.589844 47.535156 293.707031 46.117188 C 291.960938 44.8125 290.242188 43.484375 288.523438 42.152344 C 286.753906 40.796875 285.023438 39.402344 283.214844 38.097656 C 282.5625 37.621094 281.847656 37.472656 280.941406 37.921875 C 276.613281 40.042969 272.195312 41.976562 267.875 44.109375 C 264.425781 45.804688 261.035156 47.636719 257.671875 49.507812 C 254.824219 51.089844 251.976562 52.695312 249.289062 54.527344 C 244.957031 57.464844 240.453125 60.152344 236.5 63.601562 C 234.441406 65.398438 232.246094 67.015625 230.160156 68.773438 C 228.339844 70.304688 226.570312 71.886719 224.828125 73.492188 C 221.816406 76.265625 218.800781 79.027344 215.867188 81.875 C 214.03125 83.644531 212.414062 85.640625 210.582031 87.410156 C 207.253906 90.613281 204.242188 94.074219 201.480469 97.765625 C 200.1875 99.496094 198.894531 101.230469 197.691406 103.023438 C 195.871094 105.699219 194.0625 108.382812 192.382812 111.144531 C 191.203125 113.078125 190.210938 115.136719 190.097656 117.472656 C 190.023438 119.304688 189.898438 121.136719 189.847656 122.957031 C 189.546875 131.867188 190.125 140.777344 189.507812 149.691406 C 189.382812 151.558594 189.507812 153.441406 189.734375 155.335938 C 190.058594 158.046875 189.632812 160.808594 190.046875 163.558594 C 190.363281 165.605469 190.023438 167.710938 190.335938 169.808594 C 190.664062 171.957031 190.5625 174.175781 190.625 176.347656 C 190.839844 183.941406 190.585938 191.546875 191 199.128906 C 191.015625 199.429688 190.9375 199.753906 191.015625 200.03125 C 191.140625 200.457031 191.378906 200.847656 191.566406 201.25 C 191.90625 201.085938 192.308594 200.984375 192.558594 200.734375 C 194.089844 199.152344 195.570312 197.535156 197.078125 195.941406 C 198.683594 194.234375 200.277344 192.5 201.910156 190.820312 C 202.625 190.078125 203.476562 189.464844 204.242188 188.773438 C 205.785156 187.355469 207.34375 185.949219 208.835938 184.480469 C 211.449219 181.90625 214.183594 179.484375 217.046875 177.175781 C 219.101562 175.507812 221.074219 173.738281 223.121094 172.042969 C 225.214844 170.296875 227.363281 168.605469 229.484375 166.882812 C 231.152344 165.527344 232.746094 164.074219 234.492188 162.832031 C 238.382812 160.058594 242.085938 157.007812 246.265625 154.648438 C 249.351562 152.902344 252.289062 150.917969 255.402344 149.226562 C 258 147.808594 260.523438 146.277344 263.195312 144.984375 C 265.980469 143.628906 268.617188 141.957031 271.390625 140.589844 C 276.851562 137.890625 282.347656 135.304688 287.832031 132.683594 C 289.101562 132.082031 290.332031 131.390625 291.636719 130.875 C 294.371094 129.785156 297.183594 128.867188 299.894531 127.726562 C 303.949219 126.003906 308.140625 124.648438 312.320312 123.28125 C 313.574219 122.804688 314.878906 122.417969 316.488281 122.015625 M 164.71875 213.988281 C 165.324219 213.988281 166.101562 214.226562 166.503906 213.9375 C 167.332031 213.347656 167.769531 213.9375 168.296875 214.253906 C 169.476562 214.929688 170.46875 215.945312 171.863281 216.285156 C 172.125 216.347656 172.402344 216.523438 172.589844 216.710938 C 173.882812 217.992188 175.5625 218.519531 177.195312 219.148438 C 180.433594 220.378906 183.847656 220.855469 187.25 221.21875 C 189.394531 221.445312 191.628906 221.558594 193.789062 220.96875 C 194.414062 220.792969 195.03125 220.488281 195.671875 220.378906 C 197.992188 219.960938 200.011719 218.832031 201.972656 217.652344 C 203.414062 216.789062 204.65625 215.582031 206.023438 214.589844 C 206.664062 214.125 207.355469 213.726562 208.222656 213.664062 C 209.816406 213.550781 211.398438 213.285156 212.980469 213.085938 C 213.746094 212.984375 214.523438 212.921875 215.277344 212.769531 C 216.769531 212.496094 218.25 212.132812 219.757812 211.878906 C 221.800781 211.539062 223.847656 211.238281 225.90625 210.964844 C 228.304688 210.636719 230.714844 210.335938 233.109375 210.058594 C 235.144531 209.820312 237.191406 209.546875 239.234375 209.46875 C 241.894531 209.382812 244.53125 209.144531 247.179688 208.855469 C 248.597656 208.703125 250.027344 208.703125 251.460938 208.589844 C 254.382812 208.367188 257.332031 208.464844 260.285156 208.265625 C 265.140625 207.9375 270.011719 208.402344 274.878906 207.976562 C 279.261719 207.601562 283.691406 207.886719 288.109375 207.6875 C 294.472656 207.398438 300.847656 207.550781 307.222656 207.636719 C 313.550781 207.726562 319.886719 207.296875 326.226562 207.902344 C 329 208.164062 331.8125 207.726562 334.597656 208.175781 C 336.242188 208.441406 337.949219 208.277344 339.632812 208.464844 C 341.613281 208.691406 343.609375 208.792969 345.59375 209.105469 C 347.5625 209.417969 349.570312 209.671875 351.554688 209.707031 C 354.617188 209.769531 357.667969 209.960938 360.714844 210.3125 C 362.210938 210.472656 363.714844 210.488281 365.171875 210.9375 C 365.535156 211.050781 365.875 210.964844 365.800781 210.425781 C 365.6875 209.707031 365.523438 208.992188 365.511719 208.277344 C 365.460938 206.660156 365.460938 205.039062 365.511719 203.421875 C 365.535156 202.53125 365.335938 201.800781 364.683594 201.175781 C 364.179688 200.671875 364.230469 200.15625 364.910156 199.753906 C 365.449219 199.441406 365.484375 199.050781 365.5 198.539062 C 365.660156 192.0625 365.132812 185.558594 365.800781 179.085938 C 365.886719 178.269531 365.851562 177.464844 366.050781 176.613281 C 366.527344 174.601562 366.628906 172.507812 367.066406 170.488281 C 367.179688 169.972656 367.128906 169.808594 366.765625 169.671875 C 366.378906 169.519531 365.949219 169.417969 365.523438 169.355469 C 363.941406 169.144531 362.359375 168.941406 360.765625 168.742188 C 358.207031 168.429688 355.660156 168.027344 353.097656 167.863281 C 350.953125 167.726562 348.820312 167.460938 346.671875 167.261719 C 344.199219 167.023438 341.703125 166.910156 339.21875 166.945312 C 335.363281 167.011719 331.496094 166.597656 327.65625 167.210938 C 325.988281 167.488281 324.292969 167.636719 322.597656 167.824219 C 320.667969 168.039062 318.722656 168.238281 316.777344 168.441406 C 315.757812 168.542969 314.730469 168.605469 313.726562 168.765625 C 312.21875 169.019531 310.738281 169.382812 309.234375 169.644531 C 307.800781 169.898438 306.308594 169.882812 304.953125 170.3125 C 303.421875 170.800781 301.839844 170.839844 300.308594 171.152344 C 298.839844 171.453125 297.335938 171.527344 295.867188 171.792969 C 293.945312 172.144531 292.050781 172.59375 290.140625 172.996094 C 288.976562 173.234375 287.78125 173.386719 286.640625 173.726562 C 285.925781 173.9375 285.347656 174.113281 284.757812 173.5 C 284.621094 173.347656 284.292969 173.273438 284.09375 173.324219 C 283.175781 173.550781 282.285156 173.835938 281.382812 174.089844 C 278.757812 174.84375 276.136719 175.605469 273.511719 176.335938 C 270.285156 177.214844 267.046875 178.066406 263.808594 178.921875 C 261.714844 179.472656 259.605469 180.011719 257.523438 180.589844 C 255.074219 181.269531 252.640625 181.996094 250.203125 182.710938 C 248.171875 183.3125 246.152344 183.917969 244.128906 184.53125 C 240.125 185.734375 236.109375 186.890625 232.117188 188.160156 C 227.738281 189.539062 223.359375 190.917969 219.027344 192.464844 C 215.464844 193.730469 211.949219 195.160156 208.472656 196.644531 C 204.621094 198.285156 200.980469 200.359375 197.402344 202.53125 C 196.347656 203.167969 195.242188 203.734375 194.277344 204.488281 C 193.199219 205.328125 191.65625 204.273438 190.738281 205.492188 C 189.882812 204.890625 188.753906 205.441406 187.863281 204.726562 C 186.910156 203.960938 185.832031 203.320312 184.726562 202.792969 C 183.472656 202.191406 182.101562 201.8125 180.824219 201.238281 C 178.6875 200.28125 176.59375 199.242188 174.460938 198.261719 C 171.144531 196.742188 167.820312 195.238281 164.492188 193.757812 C 162.738281 192.976562 160.980469 192.238281 159.199219 191.535156 C 157.152344 190.730469 155.082031 190.003906 153.023438 189.238281 C 149.910156 188.082031 146.808594 186.878906 143.683594 185.773438 C 140.683594 184.707031 137.660156 183.714844 134.621094 182.738281 C 131.410156 181.695312 128.207031 180.601562 124.945312 179.722656 C 121.894531 178.910156 118.859375 178.042969 115.785156 177.3125 C 114.878906 177.101562 113.710938 176.285156 112.808594 177.539062 C 112.734375 177.640625 112.417969 177.589844 112.230469 177.566406 C 111.175781 177.441406 110.109375 177.351562 109.070312 177.152344 C 106.871094 176.722656 104.699219 176.199219 102.515625 175.757812 C 101.199219 175.496094 99.855469 175.355469 98.527344 175.117188 C 96.453125 174.742188 94.394531 174.339844 92.339844 173.925781 C 90.984375 173.660156 89.640625 173.324219 88.285156 173.097656 C 86.765625 172.832031 85.234375 172.621094 83.703125 172.417969 C 82.636719 172.28125 81.542969 172.292969 80.488281 172.09375 C 78.859375 171.765625 77.238281 171.476562 75.582031 171.503906 C 75.382812 171.503906 75.167969 171.539062 74.980469 171.503906 C 73.3125 171.125 71.628906 170.875 69.921875 170.902344 C 69.519531 170.902344 69.082031 171 68.71875 170.886719 C 66.757812 170.25 64.6875 170.902344 62.742188 170.296875 C 56.667969 170.488281 50.582031 169.984375 44.507812 170.574219 C 41.632812 170.851562 38.71875 170.375 35.832031 170.875 C 34.476562 171.113281 33.085938 171.015625 31.703125 171.125 C 29.105469 171.339844 26.507812 171.414062 23.921875 171.792969 C 22.140625 172.054688 20.320312 172.09375 18.5625 172.433594 C 16.015625 172.933594 13.492188 173.625 10.96875 174.226562 C 9.789062 174.503906 9.765625 174.492188 9.777344 175.570312 C 9.816406 177.902344 9.800781 180.238281 10.027344 182.585938 C 10.378906 186.414062 9.816406 190.292969 10.34375 194.144531 C 10.632812 196.253906 10.417969 198.398438 10.605469 200.546875 C 10.855469 203.382812 10.871094 206.257812 11.257812 209.09375 C 11.484375 210.75 11.535156 212.445312 11.558594 214.125 C 11.570312 214.816406 11.8125 215.003906 12.414062 214.90625 C 12.652344 214.867188 12.878906 214.804688 13.101562 214.753906 C 14.824219 214.402344 16.542969 214 18.285156 213.710938 C 19.804688 213.449219 21.363281 213.347656 22.894531 213.085938 C 24.964844 212.734375 26.996094 212.21875 29.066406 211.90625 C 31.515625 211.527344 33.976562 211.265625 36.421875 210.988281 C 38.457031 210.761719 40.503906 210.472656 42.546875 210.398438 C 44.90625 210.3125 47.242188 210.046875 49.578125 209.796875 C 51.246094 209.621094 52.929688 209.660156 54.609375 209.519531 C 58.199219 209.207031 61.800781 209.570312 65.417969 209.21875 C 69.496094 208.828125 73.613281 209.246094 77.730469 208.929688 C 83.175781 208.515625 88.660156 208.992188 94.144531 208.640625 C 97.824219 208.402344 101.539062 208.339844 105.253906 208.828125 C 107.664062 209.144531 110.109375 208.84375 112.570312 209.105469 C 115.207031 209.382812 117.867188 209.40625 120.515625 209.757812 C 122.222656 209.984375 123.964844 209.984375 125.699219 210.085938 C 125.898438 210.097656 126.113281 210.046875 126.300781 210.097656 C 128.070312 210.488281 129.851562 210.726562 131.660156 210.699219 C 131.910156 210.699219 132.238281 210.601562 132.414062 210.710938 C 133.105469 211.175781 133.855469 210.925781 134.574219 211 C 135.289062 211.089844 136.003906 211.238281 136.71875 211.289062 C 138.351562 211.414062 139.996094 211.351562 141.589844 211.652344 C 142.667969 211.855469 143.785156 211.679688 144.789062 211.96875 C 145.628906 212.207031 146.445312 212.132812 147.261719 212.21875 C 148.128906 212.304688 148.992188 212.445312 149.871094 212.519531 C 151.289062 212.644531 152.734375 212.621094 154.140625 212.859375 C 155.921875 213.148438 157.714844 213.285156 159.5 213.488281 C 160.980469 213.648438 162.449219 213.726562 163.929688 213.75 C 164.09375 213.699219 164.253906 213.886719 164.71875 213.988281 M 187.9375 114.269531 C 187.9375 114.019531 188.003906 113.742188 187.925781 113.515625 C 187.375 111.671875 186.808594 109.839844 186.21875 108.007812 C 184.613281 103.023438 182.96875 98.042969 180.960938 93.199219 C 179.515625 89.695312 178.226562 86.132812 176.644531 82.691406 C 175.199219 79.542969 173.519531 76.492188 171.835938 73.453125 C 170.089844 70.316406 168.121094 67.316406 166.414062 64.167969 C 164.066406 59.863281 161.242188 55.871094 158.519531 51.816406 C 156.824219 49.292969 154.90625 46.933594 153.074219 44.511719 C 150.824219 41.550781 148.589844 38.5625 146.308594 35.636719 C 144.890625 33.832031 143.382812 32.085938 141.914062 30.316406 C 140.347656 28.433594 138.777344 26.5625 137.195312 24.679688 C 136.96875 24.417969 136.667969 24.203125 136.453125 23.929688 C 134.507812 21.332031 132.0625 19.257812 129.527344 17.289062 C 129 16.875 128.761719 16.75 128.75 17.578125 C 128.75 17.789062 128.496094 17.992188 128.472656 18.21875 C 128.121094 20.628906 126.890625 22.722656 126 24.933594 C 125.359375 26.539062 124.457031 28.046875 123.589844 29.550781 C 121.996094 32.335938 120.425781 35.148438 118.671875 37.835938 C 115.847656 42.152344 113.121094 46.53125 109.945312 50.613281 C 108.175781 52.894531 106.519531 55.28125 104.726562 57.550781 C 103.121094 59.585938 101.324219 61.492188 99.71875 63.527344 C 98.300781 65.335938 96.945312 67.214844 95.6875 69.136719 C 93.855469 71.949219 92.1875 74.871094 90.355469 77.695312 C 88.058594 81.222656 85.949219 84.851562 84.054688 88.605469 C 82.433594 91.816406 80.953125 95.105469 79.4375 98.367188 C 79.324219 98.605469 79.371094 98.90625 79.359375 99.183594 C 79.636719 99.160156 79.914062 99.171875 80.175781 99.121094 C 81.332031 98.871094 82.5 98.632812 83.652344 98.34375 C 85.019531 98.003906 86.414062 97.878906 87.792969 97.703125 C 89.527344 97.476562 91.257812 97.125 93.015625 97.152344 C 94.546875 97.175781 96.066406 97.328125 97.597656 97.441406 C 98.613281 97.515625 99.644531 97.617188 100.660156 97.753906 C 101.3125 97.839844 101.976562 97.980469 102.617188 98.15625 C 105.015625 98.808594 107.4375 99.398438 109.695312 100.476562 C 112.144531 101.644531 114.652344 102.722656 117 104.089844 C 119.132812 105.347656 121.179688 106.777344 123.175781 108.296875 C 125.976562 110.429688 128.785156 112.539062 131.296875 115.011719 C 134.144531 117.808594 136.996094 120.609375 139.480469 123.746094 C 141.148438 125.867188 142.992188 127.851562 144.714844 129.933594 C 146.394531 131.953125 148 134.039062 149.660156 136.070312 C 150.648438 137.289062 151.691406 138.457031 152.644531 139.6875 C 154.503906 142.097656 156.296875 144.542969 158.128906 146.964844 C 160.050781 149.515625 162.097656 151.972656 163.890625 154.597656 C 166.839844 158.914062 169.691406 163.308594 172.453125 167.738281 C 174.496094 171.015625 176.265625 174.464844 178.3125 177.742188 C 180.621094 181.417969 182.628906 185.246094 184.625 189.085938 C 185.945312 191.621094 187.585938 194.007812 188.289062 196.832031 C 188.328125 196.996094 188.566406 197.121094 188.703125 197.257812 C 188.753906 197.082031 188.867188 196.917969 188.867188 196.742188 C 188.71875 192.640625 189.042969 188.535156 188.628906 184.417969 C 188.265625 180.691406 188.78125 176.914062 188.289062 173.160156 C 188.050781 171.300781 188.289062 169.40625 188.027344 167.511719 C 187.675781 164.914062 187.6875 162.242188 187.675781 159.605469 C 187.636719 152.527344 187.625 145.445312 187.675781 138.355469 C 187.726562 130.761719 187.863281 123.167969 187.976562 115.5625 C 187.953125 115.210938 188.039062 114.824219 187.9375 114.269531 M 97.484375 62.988281 C 97.621094 62.75 97.734375 62.472656 97.910156 62.257812 C 100.042969 59.699219 102.242188 57.1875 104.324219 54.589844 C 105.742188 52.832031 107.058594 50.976562 108.402344 49.15625 C 109.53125 47.613281 110.613281 46.019531 111.753906 44.472656 C 112.417969 43.582031 112.40625 43.355469 111.402344 42.804688 C 111.203125 42.691406 110.988281 42.589844 110.777344 42.503906 C 108.351562 41.386719 105.929688 40.28125 103.507812 39.164062 C 101.386719 38.1875 99.265625 37.207031 97.132812 36.242188 C 96.066406 35.75 95.085938 35.75 94.121094 36.578125 C 93.480469 37.132812 92.664062 37.472656 91.972656 37.960938 C 89.976562 39.378906 87.984375 40.808594 86.039062 42.289062 C 84.332031 43.59375 82.785156 45.113281 81.03125 46.332031 C 77.476562 48.792969 74.328125 51.714844 71.101562 54.539062 C 68.113281 57.152344 65.339844 60 62.515625 62.773438 C 61.523438 63.738281 60.695312 64.882812 59.707031 65.847656 C 56.339844 69.164062 52.914062 72.414062 49.550781 75.738281 C 48.207031 77.070312 46.964844 78.511719 45.671875 79.894531 C 44.203125 81.460938 42.75 83.03125 41.269531 84.601562 C 39.195312 86.785156 37.113281 88.941406 35.054688 91.125 C 33.789062 92.46875 32.519531 93.8125 31.300781 95.191406 C 29.320312 97.441406 27.335938 99.710938 25.402344 102.007812 C 24.136719 103.5 23.082031 105.144531 22.226562 106.902344 C 21.460938 108.460938 20.734375 110.027344 20.042969 111.609375 C 19.605469 112.640625 19.226562 113.707031 18.902344 114.773438 C 18.828125 115.011719 18.550781 115.613281 19.304688 115.652344 C 21.375 115.75 23.421875 116.152344 25.453125 116.542969 C 27.488281 116.929688 29.570312 117.042969 31.589844 117.507812 C 33.675781 117.984375 35.820312 117.921875 37.902344 118.375 C 38.519531 118.511719 39.171875 118.488281 39.8125 118.523438 C 40.488281 118.5625 41.382812 118.890625 41.808594 118.574219 C 42.710938 117.921875 42.761719 119.203125 43.476562 119.050781 C 44.292969 118.890625 45.207031 119.164062 46.0625 119.328125 C 47.417969 119.59375 48.75 119.957031 50.089844 120.195312 C 51.972656 120.546875 53.894531 120.746094 55.765625 121.160156 C 57.648438 121.5625 59.480469 122.289062 61.375 122.605469 C 64.574219 123.117188 67.613281 124.199219 70.75 124.925781 C 73.550781 125.578125 76.296875 126.421875 79.058594 127.199219 C 82.082031 128.0625 85.132812 128.890625 88.132812 129.847656 C 92.902344 131.378906 97.671875 132.882812 102.339844 134.742188 C 105.429688 135.972656 108.515625 137.175781 111.503906 138.644531 C 115.671875 140.691406 119.789062 142.835938 123.902344 144.957031 C 125.738281 145.898438 127.582031 146.828125 129.390625 147.84375 C 133.128906 149.941406 136.84375 152.0625 140.558594 154.21875 C 142.316406 155.238281 144.0625 156.292969 145.753906 157.421875 C 148.691406 159.378906 151.617188 161.386719 154.492188 163.433594 C 155.996094 164.5 157.425781 165.679688 158.832031 166.859375 C 160.464844 168.214844 162.035156 169.644531 163.628906 171.039062 C 166.039062 173.148438 168.535156 175.179688 170.855469 177.390625 C 174.621094 180.980469 178.226562 184.746094 181.613281 188.699219 C 181.738281 188.847656 181.964844 188.910156 182.140625 189.011719 C 182.128906 188.773438 182.214844 188.460938 182.089844 188.308594 C 181.160156 187.203125 180.648438 185.875 179.945312 184.644531 C 178.210938 181.605469 176.390625 178.621094 174.597656 175.632812 C 173.355469 173.5625 172.113281 171.492188 170.84375 169.457031 C 169.390625 167.121094 167.808594 164.863281 166.414062 162.492188 C 164.332031 158.941406 161.859375 155.664062 159.472656 152.324219 C 158.15625 150.492188 156.835938 148.648438 155.46875 146.851562 C 153.875 144.769531 152.21875 142.722656 150.574219 140.691406 C 149.519531 139.398438 148.417969 138.15625 147.363281 136.863281 C 145.84375 134.96875 144.375 133.035156 142.84375 131.152344 C 141.765625 129.820312 140.632812 128.527344 139.515625 127.210938 C 137.773438 125.152344 136.078125 123.042969 134.246094 121.0625 C 132.324219 118.988281 130.253906 117.042969 128.257812 115.035156 C 128.007812 114.785156 127.78125 114.507812 127.507812 114.296875 C 125.433594 112.714844 123.390625 111.082031 121.253906 109.589844 C 118.882812 107.917969 116.511719 106.210938 113.976562 104.820312 C 111.566406 103.488281 108.980469 102.460938 106.421875 101.46875 C 104.9375 100.890625 103.34375 100.566406 101.777344 100.238281 C 99.945312 99.863281 98.085938 99.421875 96.242188 99.359375 C 93.605469 99.273438 90.957031 99.433594 88.335938 99.648438 C 86.777344 99.773438 85.234375 100.1875 83.703125 100.539062 C 82.132812 100.902344 80.601562 101.355469 79.046875 101.730469 C 78.394531 101.894531 77.714844 101.984375 77.050781 102.035156 C 76.511719 102.070312 76.234375 101.730469 76.285156 101.191406 C 76.308594 100.867188 76.335938 100.503906 76.460938 100.199219 C 77.765625 97.152344 79.058594 94.101562 80.441406 91.078125 C 81.09375 89.621094 81.90625 88.238281 82.660156 86.835938 C 83.878906 84.550781 85.046875 82.242188 86.351562 80.019531 C 87.457031 78.136719 88.824219 76.402344 89.929688 74.507812 C 92.175781 70.554688 94.683594 66.800781 97.484375 62.988281 M 185.667969 199.71875 C 186.394531 200.09375 187.136719 200.484375 187.863281 200.859375 C 187.488281 200.03125 187.25 199.089844 186.710938 198.375 C 184.6875 195.652344 182.628906 192.953125 180.496094 190.328125 C 179.265625 188.824219 177.910156 187.417969 176.53125 186.050781 C 172.738281 182.296875 168.898438 178.59375 165.070312 174.890625 C 164.21875 174.0625 163.328125 173.285156 162.410156 172.53125 C 160.300781 170.800781 158.191406 169.066406 156.046875 167.386719 C 154.152344 165.894531 152.257812 164.386719 150.261719 163.019531 C 147.5625 161.148438 144.8125 159.339844 142.027344 157.632812 C 138.726562 155.613281 135.363281 153.707031 132.011719 151.785156 C 130.503906 150.917969 128.9375 150.179688 127.40625 149.351562 C 123.890625 147.441406 120.425781 145.433594 116.886719 143.601562 C 113.773438 141.996094 110.585938 140.515625 107.386719 139.070312 C 104.914062 137.96875 102.402344 136.925781 99.855469 136.007812 C 96.328125 134.742188 92.765625 133.585938 89.210938 132.40625 C 86.941406 131.652344 84.667969 130.886719 82.371094 130.234375 C 79.5625 129.433594 76.710938 128.753906 73.886719 128 C 71.742188 127.4375 69.621094 126.835938 67.472656 126.28125 C 64.863281 125.617188 62.242188 124.964844 59.617188 124.363281 C 56.980469 123.757812 54.332031 123.207031 51.683594 122.628906 C 50.34375 122.339844 49 122.027344 47.632812 121.789062 C 46.113281 121.523438 44.582031 121.335938 43.050781 121.109375 C 42.421875 121.023438 41.894531 121.1875 41.480469 121.726562 C 40.941406 122.429688 40.390625 123.117188 39.761719 123.746094 C 36.949219 126.582031 34.113281 129.40625 31.289062 132.230469 C 31 132.519531 30.710938 132.796875 30.4375 133.097656 C 29.394531 134.226562 28.402344 135.417969 27.3125 136.5 C 25.71875 138.078125 24.035156 139.585938 22.417969 141.128906 C 22.304688 141.230469 22.289062 141.46875 22.289062 141.644531 C 22.289062 141.683594 22.542969 141.730469 22.679688 141.757812 C 24.058594 141.957031 25.464844 142.082031 26.820312 142.386719 C 28.855469 142.824219 30.851562 143.4375 32.871094 143.867188 C 35.996094 144.53125 39.148438 145.058594 42.285156 145.710938 C 44.984375 146.277344 47.65625 146.890625 50.328125 147.53125 C 52.488281 148.046875 54.648438 148.585938 56.792969 149.164062 C 59.617188 149.914062 62.429688 150.707031 65.242188 151.472656 C 68.015625 152.238281 70.789062 152.992188 73.550781 153.769531 C 75.40625 154.296875 77.238281 154.875 79.085938 155.414062 C 81.796875 156.191406 84.53125 156.917969 87.230469 157.746094 C 89.425781 158.425781 91.574219 159.242188 93.742188 159.96875 C 97.660156 161.273438 101.574219 162.527344 105.492188 163.859375 C 108.101562 164.75 110.664062 165.792969 113.296875 166.632812 C 117.402344 167.953125 121.34375 169.671875 125.347656 171.265625 C 127.21875 172.003906 129.039062 172.871094 130.894531 173.625 C 134.144531 174.929688 137.433594 176.160156 140.671875 177.488281 C 143.519531 178.65625 146.34375 179.898438 149.183594 181.128906 C 152.746094 182.671875 156.3125 184.203125 159.851562 185.785156 C 161.519531 186.527344 163.074219 187.570312 164.78125 188.171875 C 167.730469 189.199219 170.332031 190.90625 173.078125 192.324219 C 175.878906 193.769531 178.578125 195.425781 181.300781 197.019531 C 182.691406 197.824219 184.097656 198.703125 185.667969 199.71875 M 227.699219 180.753906 C 225.769531 182.070312 223.824219 183.375 221.914062 184.730469 C 219.757812 186.261719 217.636719 187.84375 215.5 189.402344 C 213.871094 190.59375 212.238281 191.785156 210.617188 192.992188 C 210.492188 193.089844 210.46875 193.328125 210.394531 193.492188 C 210.53125 193.453125 210.683594 193.417969 210.820312 193.367188 C 214.535156 191.949219 218.210938 190.441406 221.953125 189.113281 C 225.089844 187.996094 228.277344 187.054688 231.464844 186.0625 C 235.09375 184.933594 238.734375 183.828125 242.375 182.722656 C 244.34375 182.121094 246.3125 181.46875 248.296875 180.917969 C 251.109375 180.136719 253.957031 179.460938 256.78125 178.683594 C 259.453125 177.941406 262.101562 177.101562 264.777344 176.359375 C 268.59375 175.320312 272.433594 174.339844 276.261719 173.3125 C 278.496094 172.71875 280.714844 172.09375 282.9375 171.492188 C 285.210938 170.875 287.480469 170.234375 289.777344 169.683594 C 291.671875 169.21875 293.617188 168.980469 295.488281 168.429688 C 298.816406 167.460938 302.203125 166.808594 305.566406 166.019531 C 307.976562 165.453125 310.414062 165.027344 312.820312 164.460938 C 315.332031 163.871094 317.878906 163.535156 320.402344 163.019531 C 321.871094 162.71875 323.378906 162.640625 324.847656 162.378906 C 326.917969 162.015625 328.949219 161.539062 331.019531 161.1875 C 333.167969 160.824219 335.3125 160.546875 337.472656 160.269531 C 339.304688 160.03125 341.148438 159.816406 342.980469 159.667969 C 344.953125 159.515625 346.949219 159.339844 348.917969 159.378906 C 352.570312 159.453125 356.222656 159.101562 359.875 159.617188 C 361.65625 159.867188 363.515625 159.667969 365.335938 159.65625 C 365.472656 159.65625 365.613281 159.605469 365.75 159.566406 C 365.648438 159.429688 365.5625 159.265625 365.449219 159.140625 C 364.921875 158.601562 364.304688 158.125 363.855469 157.519531 C 361.996094 155.011719 359.839844 152.789062 357.429688 150.804688 C 356.824219 150.316406 356.222656 149.816406 355.609375 149.339844 C 354.316406 148.320312 352.996094 147.328125 351.71875 146.289062 C 351.179688 145.847656 350.777344 145.222656 350.199219 144.855469 C 349.921875 144.683594 349.410156 144.027344 348.96875 144.78125 C 347.800781 144.78125 346.570312 144.53125 345.492188 144.84375 C 343.847656 145.308594 342.203125 144.945312 340.558594 145.335938 C 338.902344 145.722656 337.097656 145.460938 335.402344 145.75 C 334.320312 145.9375 333.253906 145.898438 332.1875 146.011719 C 330.03125 146.261719 327.894531 146.640625 325.738281 146.890625 C 323.601562 147.140625 321.457031 147.304688 319.3125 147.503906 C 318.394531 147.59375 317.464844 147.667969 316.550781 147.820312 C 314.804688 148.09375 313.0625 148.433594 311.316406 148.710938 C 309.835938 148.949219 308.339844 149.0625 306.871094 149.339844 C 305.003906 149.691406 303.15625 150.128906 301.300781 150.542969 C 299.632812 150.90625 297.949219 151.234375 296.292969 151.648438 C 294.234375 152.148438 292.1875 152.714844 290.140625 153.277344 C 287.015625 154.144531 283.867188 154.949219 280.78125 155.941406 C 273.777344 158.175781 266.808594 160.472656 259.980469 163.230469 C 256.554688 164.625 253.128906 166.007812 249.804688 167.574219 C 245.898438 169.417969 242.148438 171.554688 238.34375 173.613281 C 236.886719 174.402344 235.46875 175.269531 234.101562 176.199219 C 231.980469 177.628906 229.921875 179.132812 227.699219 180.753906 M 26.921875 162.390625 C 28.351562 162.492188 29.769531 162.59375 31.203125 162.691406 C 32.734375 162.804688 34.25 162.753906 35.78125 162.917969 C 38.269531 163.183594 40.765625 163.320312 43.261719 163.558594 C 45.109375 163.734375 46.941406 163.921875 48.773438 164.1875 C 50.808594 164.476562 52.851562 164.613281 54.898438 164.8125 C 55.863281 164.914062 56.84375 164.976562 57.808594 165.128906 C 59.65625 165.402344 61.5 165.765625 63.359375 166.019531 C 64.574219 166.179688 65.84375 166.09375 67.011719 166.382812 C 67.902344 166.597656 68.792969 166.445312 69.621094 166.671875 C 71.640625 167.222656 73.75 167.097656 75.785156 167.523438 C 76.976562 167.777344 78.230469 167.738281 79.449219 167.863281 C 80.265625 167.953125 81.078125 168.050781 81.894531 168.191406 C 83.550781 168.464844 85.195312 168.792969 86.839844 169.066406 C 88.222656 169.292969 89.613281 169.445312 90.984375 169.695312 C 92.851562 170.046875 94.699219 170.488281 96.554688 170.886719 C 97.808594 171.164062 99.054688 171.453125 100.308594 171.714844 C 102.304688 172.15625 104.300781 172.59375 106.292969 172.996094 C 107.976562 173.335938 109.695312 173.5625 111.351562 173.988281 C 115.054688 174.929688 118.734375 175.945312 122.410156 176.964844 C 125.863281 177.917969 129.300781 178.871094 132.726562 179.886719 C 135.0625 180.578125 137.382812 181.355469 139.691406 182.121094 C 142.980469 183.214844 146.28125 184.28125 149.53125 185.472656 C 152.34375 186.5 155.054688 187.808594 157.878906 188.761719 C 161.746094 190.078125 165.386719 191.898438 169.113281 193.53125 C 171.433594 194.546875 173.632812 195.800781 175.902344 196.929688 C 176.316406 197.132812 176.804688 197.195312 177.269531 197.28125 C 177.359375 197.296875 177.484375 197.171875 177.597656 197.121094 C 177.507812 197.082031 177.421875 197.042969 177.347656 196.996094 C 176.355469 196.46875 175.363281 195.925781 174.359375 195.398438 C 171.371094 193.820312 168.398438 192.226562 165.386719 190.695312 C 163.464844 189.714844 161.558594 188.710938 159.550781 187.921875 C 156.109375 186.5625 152.808594 184.90625 149.394531 183.476562 C 146.984375 182.472656 144.625 181.304688 142.203125 180.3125 C 139.265625 179.109375 136.277344 178.015625 133.328125 176.824219 C 131.546875 176.109375 129.816406 175.292969 128.03125 174.589844 C 124.253906 173.097656 120.464844 171.628906 116.648438 170.183594 C 113.410156 168.96875 110.160156 167.777344 106.882812 166.644531 C 101 164.613281 95.097656 162.605469 89.1875 160.648438 C 86.199219 159.65625 83.1875 158.75 80.175781 157.847656 C 77.703125 157.105469 75.207031 156.429688 72.707031 155.714844 C 70.222656 155.011719 67.738281 154.257812 65.242188 153.605469 C 62.679688 152.941406 60.070312 152.449219 57.523438 151.710938 C 53.46875 150.542969 49.402344 149.476562 45.257812 148.722656 C 42.460938 148.207031 39.6875 147.542969 36.898438 146.914062 C 34.363281 146.339844 31.84375 145.6875 29.308594 145.121094 C 28.894531 145.03125 28.203125 145.109375 28 145.382812 C 26.320312 147.554688 24.761719 149.800781 23.105469 151.988281 C 21.414062 154.234375 19.640625 156.429688 17.910156 158.636719 C 17.308594 159.402344 16.667969 160.132812 16.140625 160.949219 C 15.8125 161.449219 14.796875 161.875 15.289062 162.464844 C 15.589844 162.84375 16.617188 162.703125 17.308594 162.679688 C 20.421875 162.605469 23.519531 162.492188 26.921875 162.390625 M 62.429688 215.808594 C 62.59375 215.707031 62.742188 215.53125 62.90625 215.519531 C 65.351562 215.304688 67.789062 215.082031 70.234375 214.917969 C 71.765625 214.816406 73.285156 214.941406 74.816406 214.640625 C 76.261719 214.363281 77.753906 214.601562 79.246094 214.351562 C 80.941406 214.078125 82.699219 214.289062 84.429688 214.027344 C 86.136719 213.761719 87.871094 214.039062 89.613281 213.738281 C 91.460938 213.421875 93.367188 213.726562 95.25 213.421875 C 97.09375 213.121094 99.003906 213.335938 100.886719 213.148438 C 103.757812 212.859375 106.660156 212.921875 109.558594 212.832031 C 115.621094 212.644531 121.695312 212.785156 127.769531 212.769531 C 128.183594 212.769531 128.597656 212.65625 129.023438 212.609375 C 128.574219 212.457031 128.132812 212.308594 127.683594 212.179688 C 127.492188 212.132812 127.28125 212.179688 127.078125 212.167969 C 125.847656 212.09375 124.632812 212.054688 123.402344 211.941406 C 120.867188 211.703125 118.304688 211.566406 115.769531 211.277344 C 114.453125 211.125 113.121094 211.175781 111.792969 211.027344 C 109.484375 210.761719 107.125 210.738281 104.789062 210.726562 C 99.417969 210.6875 94.058594 210.488281 88.671875 210.914062 C 83.578125 211.316406 78.445312 210.761719 73.324219 211.226562 C 69.195312 211.605469 65.027344 211.203125 60.859375 211.503906 C 56.503906 211.804688 52.113281 211.605469 47.757812 212.167969 C 45.949219 212.40625 44.105469 212.394531 42.273438 212.496094 C 42.171875 212.496094 42.070312 212.480469 41.972656 212.496094 C 40.539062 212.695312 39.109375 212.933594 37.664062 213.085938 C 36.347656 213.234375 35.015625 213.285156 33.699219 213.398438 C 32.785156 213.472656 31.855469 213.5625 30.9375 213.699219 C 29.144531 213.976562 27.347656 214.300781 25.554688 214.601562 C 24.171875 214.828125 22.792969 214.992188 21.414062 215.242188 C 20.007812 215.496094 18.625 215.832031 17.21875 216.121094 C 15.8125 216.410156 14.394531 216.613281 13.015625 216.964844 C 10.757812 217.539062 9.449219 216.585938 9.4375 214.253906 C 9.4375 213.449219 9.449219 212.632812 9.425781 211.828125 C 9.414062 211.640625 9.25 211.453125 9.148438 211.277344 C 9.023438 211.441406 8.886719 211.605469 8.785156 211.792969 C 8.382812 212.53125 8.007812 213.285156 7.617188 214.039062 C 6.25 216.660156 4.894531 219.285156 3.515625 221.894531 C 3.214844 222.472656 3.351562 222.863281 3.992188 222.800781 C 5.433594 222.648438 6.851562 222.398438 8.296875 222.210938 C 10.078125 221.984375 11.875 221.859375 13.65625 221.582031 C 15.976562 221.230469 18.273438 220.726562 20.597656 220.402344 C 22.527344 220.125 24.476562 219.988281 26.40625 219.773438 C 27.324219 219.675781 28.277344 219.6875 29.15625 219.449219 C 30.574219 219.046875 32.03125 219.109375 33.472656 218.894531 C 34.828125 218.683594 36.222656 218.71875 37.589844 218.558594 C 39.75 218.292969 41.882812 217.929688 44.042969 217.664062 C 45.460938 217.503906 46.890625 217.453125 48.308594 217.351562 C 48.460938 217.339844 48.621094 217.378906 48.75 217.328125 C 49.941406 216.863281 51.222656 216.949219 52.449219 216.761719 C 53.757812 216.574219 55.113281 216.648438 56.417969 216.410156 C 58.335938 216.046875 60.21875 215.785156 62.429688 215.808594 M 23.28125 169.671875 C 25.152344 169.292969 27.074219 169.496094 28.957031 169.105469 C 30.386719 168.804688 31.878906 169.105469 33.386719 168.816406 C 35.167969 168.476562 37.027344 168.527344 38.859375 168.464844 C 43.515625 168.289062 48.171875 168.703125 52.839844 168.203125 C 55.289062 167.9375 57.785156 168.128906 60.269531 168.164062 C 61.699219 168.191406 63.121094 168.367188 64.539062 168.441406 C 64.6875 168.453125 64.839844 168.328125 64.988281 168.265625 C 64.851562 168.226562 64.726562 168.175781 64.574219 168.152344 C 63.195312 167.953125 61.8125 167.636719 60.433594 167.574219 C 58.625 167.488281 56.855469 167.25 55.074219 166.960938 C 52.789062 166.597656 50.480469 166.320312 48.171875 166.042969 C 46.1875 165.804688 44.203125 165.542969 42.210938 165.453125 C 39.898438 165.351562 37.628906 165.089844 35.332031 164.851562 C 33.261719 164.625 31.175781 164.5625 29.09375 164.539062 C 25.441406 164.5 21.800781 164.5625 18.148438 164.75 C 16.378906 164.851562 15.023438 165.050781 14.09375 166.707031 C 13.117188 168.441406 11.972656 170.074219 10.90625 171.753906 C 10.855469 171.84375 10.84375 171.96875 10.820312 172.066406 C 10.917969 172.082031 11.046875 172.128906 11.109375 172.09375 C 12.488281 171.253906 14.121094 171.289062 15.625 170.9375 C 18.023438 170.347656 20.507812 170.074219 23.28125 169.671875 M 336.203125 164.8125 C 339.457031 164.914062 342.695312 165.015625 345.945312 165.113281 C 346.09375 165.113281 346.257812 165.078125 346.394531 165.113281 C 348.101562 165.617188 349.871094 165.464844 351.605469 165.703125 C 352.972656 165.878906 354.351562 165.867188 355.722656 166.042969 C 357.679688 166.292969 359.613281 166.734375 361.570312 166.910156 C 363.113281 167.046875 364.65625 167.160156 366.175781 167.539062 C 366.339844 167.574219 366.527344 167.449219 366.714844 167.398438 C 366.640625 167.222656 366.601562 167.023438 366.492188 166.882812 C 366.226562 166.582031 365.875 166.34375 365.648438 166.019531 C 364.769531 164.777344 363.941406 163.496094 363.050781 162.242188 C 362.902344 162.027344 362.585938 161.828125 362.335938 161.800781 C 361.066406 161.664062 359.789062 161.488281 358.519531 161.5 C 353.761719 161.550781 348.992188 161.261719 344.238281 161.777344 C 342.769531 161.9375 341.261719 161.851562 339.820312 162.140625 C 338.941406 162.316406 338.074219 162.289062 337.207031 162.402344 C 335.453125 162.65625 333.71875 163.019531 331.976562 163.292969 C 330.394531 163.535156 328.800781 163.671875 327.21875 163.921875 C 325.472656 164.1875 323.730469 164.539062 321.984375 164.8125 C 321.167969 164.953125 320.316406 164.902344 319.535156 165.140625 C 317.0625 165.90625 314.464844 165.992188 311.96875 166.632812 C 310.8125 166.921875 309.632812 167.109375 308.480469 167.375 C 308.253906 167.425781 308.066406 167.574219 307.851562 167.6875 C 308.066406 167.75 308.292969 167.863281 308.492188 167.851562 C 309.207031 167.777344 309.949219 167.738281 310.636719 167.535156 C 312.308594 167.058594 314 166.773438 315.722656 166.632812 C 316.6875 166.558594 317.652344 166.445312 318.621094 166.308594 C 319.761719 166.144531 320.878906 165.894531 322.023438 165.742188 C 323.140625 165.589844 324.269531 165.605469 325.386719 165.414062 C 327.367188 165.078125 329.351562 164.851562 331.359375 164.824219 C 332.878906 164.800781 334.382812 164.8125 336.203125 164.8125 M 347.136719 211.253906 C 346.121094 211.152344 345.101562 211.039062 344.074219 210.949219 C 342.65625 210.839844 341.175781 210.9375 339.808594 210.601562 C 337.773438 210.085938 335.703125 210.3125 333.667969 210.121094 C 329.488281 209.734375 325.261719 209.835938 321.054688 209.734375 C 320.855469 209.734375 320.578125 209.820312 320.464844 209.722656 C 319.6875 209.105469 318.808594 209.582031 317.992188 209.445312 C 317.855469 209.417969 317.691406 209.59375 317.542969 209.671875 C 317.703125 209.796875 317.855469 210.011719 318.019531 210.023438 C 319.398438 210.085938 320.78125 210.210938 322.148438 210.273438 C 325.308594 210.425781 328.460938 210.574219 331.609375 210.902344 C 333.542969 211.101562 335.488281 211.226562 337.421875 211.527344 C 339.34375 211.828125 341.300781 211.957031 343.234375 212.15625 C 344.097656 212.242188 344.976562 212.320312 345.84375 212.46875 C 347.4375 212.746094 349.019531 213.121094 350.625 213.359375 C 352.507812 213.625 354.429688 213.664062 356.285156 214.039062 C 357.164062 214.214844 358.054688 214.125 358.898438 214.316406 C 361.082031 214.792969 363.300781 214.941406 365.511719 215.191406 C 365.863281 215.230469 366.226562 215.144531 366.566406 215.21875 C 368.386719 215.609375 370.21875 215.832031 372.089844 215.808594 C 372.816406 215.796875 372.277344 215.519531 372.175781 215.332031 C 371.738281 214.503906 371.273438 213.6875 370.882812 212.832031 C 369.96875 210.839844 368.585938 209.054688 368.171875 206.820312 C 368.148438 206.671875 367.894531 206.558594 367.757812 206.421875 C 367.707031 206.558594 367.632812 206.683594 367.632812 206.820312 C 367.621094 207.171875 367.605469 207.539062 367.632812 207.886719 C 367.71875 209.054688 367.859375 210.234375 367.921875 211.402344 C 367.957031 212.019531 367.230469 213.058594 366.714844 213.070312 C 365.210938 213.097656 363.566406 213.398438 362.234375 212.898438 C 360.214844 212.132812 358.15625 212.257812 356.125 211.917969 C 354.378906 211.628906 352.570312 212.003906 350.789062 211.589844 C 349.710938 211.339844 348.566406 211.351562 347.136719 211.253906 M 235.746094 212.46875 C 236.109375 212.371094 236.460938 212.21875 236.839844 212.179688 C 238.054688 212.054688 239.273438 211.941406 240.503906 211.878906 C 241.933594 211.804688 243.339844 211.828125 244.78125 211.628906 C 246.503906 211.390625 248.273438 211.589844 250.003906 211.300781 C 250.933594 211.152344 251.925781 211.367188 252.878906 211.253906 C 253.707031 211.152344 254.558594 211.089844 255.386719 211.027344 C 258.578125 210.800781 261.765625 210.761719 264.953125 210.675781 C 265.707031 210.648438 266.472656 210.675781 267.222656 210.664062 C 267.3125 210.664062 267.449219 210.472656 267.449219 210.375 C 267.449219 210.273438 267.324219 210.097656 267.222656 210.085938 C 266.921875 210.046875 266.621094 210.058594 266.320312 210.074219 C 263.683594 210.171875 261.050781 210.261719 258.414062 210.386719 C 256.480469 210.472656 254.558594 210.285156 252.613281 210.625 C 250.933594 210.925781 249.164062 210.625 247.445312 210.964844 C 246.300781 211.191406 245.097656 211.140625 243.929688 211.214844 C 241.128906 211.402344 238.332031 211.566406 235.546875 211.890625 C 233.460938 212.132812 231.367188 212.292969 229.28125 212.519531 C 229.144531 212.53125 229.03125 212.722656 228.90625 212.832031 C 229.042969 212.933594 229.207031 213.121094 229.320312 213.097656 C 231.339844 212.65625 233.386719 212.457031 235.746094 212.46875 Z M 235.746094 212.46875 " fill-opacity="1" fill-rule="nonzero"/></g><path fill="#ffffff" d="M 208.574219 201.839844 C 211.910156 200.722656 215.085938 199.605469 218.273438 198.5 C 221.113281 197.523438 223.9375 196.492188 226.796875 195.640625 C 229.644531 194.785156 232.53125 194.09375 235.40625 193.34375 C 238.417969 192.550781 241.433594 191.746094 244.457031 191.007812 C 246.441406 190.519531 248.449219 190.167969 250.445312 189.691406 C 253.441406 188.972656 256.46875 188.421875 259.441406 187.605469 C 261.601562 187.015625 263.859375 186.789062 266.058594 186.351562 C 268.328125 185.886719 270.585938 185.308594 272.871094 184.859375 C 274.703125 184.492188 276.5625 184.253906 278.40625 183.929688 C 280.515625 183.550781 282.625 183.085938 284.734375 182.738281 C 286.265625 182.472656 287.808594 182.359375 289.339844 182.109375 C 290.945312 181.84375 292.527344 181.480469 294.121094 181.21875 C 295.085938 181.054688 296.066406 181.054688 297.03125 180.890625 C 298.976562 180.550781 300.960938 180.539062 302.894531 180.023438 C 303.824219 179.773438 304.816406 180 305.804688 179.75 C 307.023438 179.433594 308.339844 179.511719 309.609375 179.386719 C 310.273438 179.324219 310.9375 179.195312 311.605469 179.085938 C 312.21875 178.984375 312.910156 179.371094 313.460938 178.796875 C 313.511719 178.746094 313.664062 178.796875 313.761719 178.78125 C 315.34375 178.683594 316.953125 178.734375 318.484375 178.429688 C 319.964844 178.15625 321.507812 178.445312 322.949219 177.867188 C 323.039062 177.828125 323.152344 177.867188 323.25 177.867188 C 325.132812 177.765625 327.015625 177.679688 328.886719 177.554688 C 329.753906 177.488281 330.621094 177.351562 331.496094 177.265625 C 332.3125 177.175781 333.179688 177.476562 333.957031 176.964844 C 334.035156 176.914062 334.160156 176.964844 334.257812 176.949219 C 336.191406 176.851562 338.125 176.800781 340.046875 176.636719 C 341.339844 176.523438 342.605469 176.246094 343.898438 176.046875 C 344.148438 176.007812 344.4375 175.957031 344.652344 176.058594 C 344.964844 176.210938 345.203125 176.472656 345.480469 176.699219 C 345.230469 176.886719 344.976562 177.203125 344.703125 177.238281 C 343.484375 177.390625 342.253906 177.414062 341.035156 177.578125 C 338.550781 177.902344 336.054688 178.042969 333.554688 178.21875 C 331.210938 178.382812 328.875 178.65625 326.527344 178.820312 C 324.179688 178.984375 321.847656 179.257812 319.5 179.433594 C 317.617188 179.574219 315.707031 179.800781 313.839844 180.050781 C 311.640625 180.339844 309.40625 180.375 307.222656 180.878906 C 306.09375 181.140625 304.878906 181.066406 303.710938 181.21875 C 302.46875 181.382812 301.25 181.632812 300.007812 181.808594 C 299.089844 181.945312 298.164062 181.984375 297.246094 182.121094 C 295.351562 182.410156 293.429688 182.5625 291.546875 183 C 289.992188 183.351562 288.371094 183.390625 286.804688 183.652344 C 284.78125 183.992188 282.773438 184.417969 280.753906 184.78125 C 279.949219 184.933594 279.136719 185.007812 278.332031 185.160156 C 276.410156 185.523438 274.492188 185.910156 272.570312 186.289062 C 271.351562 186.527344 270.125 186.726562 268.917969 186.980469 C 266.683594 187.441406 264.460938 187.957031 262.230469 188.421875 C 260.546875 188.773438 258.851562 189.0625 257.171875 189.402344 C 255.726562 189.691406 254.285156 189.992188 252.839844 190.316406 C 251.132812 190.707031 249.425781 191.109375 247.730469 191.535156 C 244.15625 192.425781 240.601562 193.417969 237 194.207031 C 233.8125 194.898438 230.675781 195.765625 227.5625 196.71875 C 222.90625 198.148438 218.25 199.617188 213.667969 201.285156 C 210.59375 202.402344 207.507812 203.519531 204.417969 204.601562 C 202.660156 205.214844 200.941406 205.96875 199.234375 206.722656 C 198.507812 207.046875 197.867188 207.5625 197.164062 207.953125 C 196.964844 208.0625 196.648438 208.113281 196.449219 208.039062 C 195.871094 207.800781 196.421875 207.324219 196.488281 207.273438 C 196.976562 206.835938 197.492188 206.382812 198.082031 206.117188 C 200.476562 205.066406 202.898438 204.074219 205.308594 203.070312 C 206.328125 202.628906 207.378906 202.253906 208.574219 201.839844 Z M 208.574219 201.839844 " fill-opacity="1" fill-rule="nonzero"/><path fill="#ffffff" d="M 88.082031 197.296875 C 93.492188 197.296875 98.75 197.257812 104.011719 197.308594 C 106.597656 197.332031 109.207031 197.332031 111.765625 197.660156 C 113.3125 197.859375 114.828125 197.796875 116.347656 197.898438 C 119.097656 198.085938 121.84375 198.273438 124.59375 198.511719 C 126.640625 198.6875 128.6875 198.863281 130.71875 199.128906 C 132.753906 199.390625 134.785156 199.667969 136.84375 199.742188 C 138.488281 199.820312 140.121094 200.09375 141.75 200.332031 C 143.695312 200.609375 145.640625 200.960938 147.601562 201.222656 C 148.765625 201.386719 149.949219 201.398438 151.113281 201.550781 C 152.207031 201.6875 153.285156 201.902344 154.367188 202.113281 C 155.117188 202.265625 155.882812 202.203125 156.660156 202.390625 C 158.34375 202.792969 160.140625 202.769531 161.859375 203.082031 C 164.683594 203.597656 167.570312 203.734375 170.34375 204.574219 C 170.519531 204.625 170.792969 204.574219 170.894531 204.6875 C 171.058594 204.875 171.234375 205.226562 171.160156 205.390625 C 171.070312 205.578125 170.679688 205.753906 170.46875 205.730469 C 168.761719 205.480469 167.066406 205.175781 165.359375 204.890625 C 163.050781 204.488281 160.742188 204.035156 158.433594 203.683594 C 156.597656 203.40625 154.753906 203.308594 152.921875 203.054688 C 151.0625 202.804688 149.230469 202.441406 147.375 202.164062 C 146.457031 202.027344 145.542969 201.953125 144.613281 201.851562 C 142.46875 201.636719 140.320312 201.511719 138.1875 201.222656 C 136.203125 200.960938 134.207031 200.773438 132.226562 200.597656 C 130.34375 200.421875 128.460938 200.15625 126.566406 199.992188 C 123.917969 199.769531 121.269531 199.59375 118.632812 199.339844 C 117.300781 199.214844 115.960938 199.304688 114.652344 199.089844 C 112.46875 198.738281 110.261719 199.054688 108.113281 198.738281 C 106.167969 198.460938 104.25 198.550781 102.316406 198.511719 C 96.140625 198.375 89.941406 198 83.789062 198.273438 C 77.351562 198.574219 70.914062 198.148438 64.5 198.5625 C 61.097656 198.777344 57.683594 198.488281 54.308594 198.863281 C 51.859375 199.140625 49.402344 198.828125 47.003906 199.152344 C 45.160156 199.402344 43.3125 199.179688 41.519531 199.453125 C 39.9375 199.691406 38.332031 199.503906 36.789062 199.769531 C 35.558594 199.980469 34.316406 199.832031 33.121094 200.042969 C 30.824219 200.445312 28.492188 200.359375 26.207031 200.886719 C 24.925781 201.175781 23.570312 201.109375 22.242188 201.222656 C 21.761719 201.261719 21.375 201.046875 21.386719 200.632812 C 21.398438 200.410156 21.890625 200.058594 22.191406 200.03125 C 23.660156 199.867188 25.140625 199.855469 26.609375 199.691406 C 28.816406 199.441406 31.015625 199.101562 33.210938 198.800781 C 33.261719 198.789062 33.3125 198.800781 33.359375 198.800781 C 35.191406 198.703125 37.011719 198.574219 38.84375 198.5 C 41.582031 198.386719 44.355469 198.5 47.054688 198.136719 C 49.5 197.796875 51.960938 198.1875 54.371094 197.859375 C 58.222656 197.347656 62.089844 197.871094 65.929688 197.558594 C 73.246094 196.96875 80.589844 197.484375 88.082031 197.296875 Z M 88.082031 197.296875 " fill-opacity="1" fill-rule="nonzero"/><path fill="#ffffff" d="M 105.980469 190.003906 C 103.582031 189.800781 101.335938 189.675781 99.101562 189.375 C 97.070312 189.101562 95 189.035156 92.992188 188.710938 C 91.246094 188.421875 89.453125 188.886719 87.769531 188.195312 C 87.679688 188.160156 87.570312 188.195312 87.46875 188.195312 C 85.183594 188.097656 82.886719 188.121094 80.617188 187.855469 C 78.734375 187.632812 76.8125 187.832031 74.980469 187.53125 C 73.234375 187.242188 71.492188 187.53125 69.785156 187.265625 C 67.296875 186.878906 64.777344 187.265625 62.328125 186.929688 C 59.679688 186.566406 57.042969 186.789062 54.410156 186.691406 C 50.65625 186.550781 46.902344 186.277344 43.164062 186.4375 C 39.160156 186.601562 35.15625 186.601562 31.152344 186.714844 C 28.753906 186.777344 26.355469 187.078125 23.972656 187.304688 C 23.457031 187.355469 22.945312 187.53125 22.429688 187.582031 C 22.265625 187.59375 21.976562 187.40625 21.953125 187.265625 C 21.914062 187.105469 22.066406 186.839844 22.203125 186.703125 C 22.367188 186.550781 22.605469 186.425781 22.832031 186.402344 C 23.898438 186.277344 24.964844 186.164062 26.042969 186.085938 C 27.925781 185.960938 29.832031 186.0625 31.679688 185.722656 C 33.523438 185.382812 35.34375 185.496094 37.175781 185.484375 C 44.003906 185.449219 50.832031 185.347656 57.660156 185.523438 C 60.695312 185.597656 63.757812 185.546875 66.785156 185.835938 C 68.78125 186.039062 70.777344 185.800781 72.734375 186.113281 C 74.527344 186.402344 76.324219 186.136719 78.066406 186.425781 C 79.5625 186.664062 81.03125 186.539062 82.5 186.691406 C 85.296875 186.992188 88.097656 187.15625 90.894531 187.332031 C 93.089844 187.46875 95.261719 187.820312 97.472656 187.921875 C 99.667969 188.007812 101.863281 188.222656 104.046875 188.523438 C 105.878906 188.773438 107.738281 188.910156 109.558594 189.164062 C 111.703125 189.464844 113.902344 189.453125 116.023438 189.992188 C 117.050781 190.253906 118.15625 190.21875 119.222656 190.316406 C 120.566406 190.441406 121.894531 190.582031 123.226562 190.894531 C 124.066406 191.09375 124.945312 190.996094 125.835938 191.183594 C 127.59375 191.558594 129.414062 191.585938 131.183594 191.859375 C 133.40625 192.199219 135.601562 192.6875 137.808594 193.054688 C 139.390625 193.316406 140.984375 193.417969 142.566406 193.679688 C 144.589844 194.019531 146.597656 194.460938 148.605469 194.835938 C 149.355469 194.972656 150.121094 195.050781 150.886719 195.1875 C 152.484375 195.476562 154.078125 195.816406 155.671875 196.089844 C 157.101562 196.328125 158.542969 196.480469 159.964844 196.71875 C 161.179688 196.917969 162.398438 197.171875 163.617188 197.421875 C 164.40625 197.585938 165.195312 197.761719 165.988281 197.921875 C 166.136719 197.949219 166.339844 197.859375 166.4375 197.9375 C 166.742188 198.160156 167.269531 198.476562 167.242188 198.703125 C 167.191406 199.089844 166.714844 199.214844 166.261719 199.140625 C 164.933594 198.914062 163.601562 198.738281 162.285156 198.488281 C 160.878906 198.222656 159.5 197.898438 158.09375 197.621094 C 156.035156 197.207031 153.988281 196.78125 151.917969 196.417969 C 150.5 196.164062 149.042969 196.039062 147.625 195.789062 C 145.515625 195.425781 143.410156 194.960938 141.300781 194.597656 C 139.78125 194.332031 138.226562 194.21875 136.695312 193.96875 C 134.382812 193.59375 132.074219 193.152344 129.765625 192.765625 C 128.898438 192.625 128.035156 192.550781 127.15625 192.449219 C 125.222656 192.25 123.265625 192.125 121.34375 191.824219 C 118.847656 191.433594 116.347656 191.082031 113.824219 190.917969 C 111.980469 190.792969 110.148438 190.542969 108.316406 190.328125 C 107.574219 190.230469 106.859375 190.105469 105.980469 190.003906 Z M 105.980469 190.003906 " fill-opacity="1" fill-rule="nonzero"/><path fill="#ffffff" d="M 28.289062 181.207031 C 25.554688 181.304688 22.945312 181.269531 20.382812 181.570312 C 19.050781 181.730469 17.734375 181.757812 16.40625 181.808594 C 16.101562 181.820312 15.828125 181.859375 15.828125 181.367188 C 15.828125 180.929688 16.027344 180.902344 16.367188 180.890625 C 17.898438 180.804688 19.453125 180.867188 20.933594 180.550781 C 22.878906 180.152344 24.8125 180.503906 26.734375 180.265625 C 31.691406 179.660156 36.660156 180.074219 41.632812 180 C 46.640625 179.914062 51.648438 179.8125 56.644531 180.050781 C 59.542969 180.1875 62.441406 180.074219 65.316406 180.363281 C 66.949219 180.527344 68.578125 180.488281 70.199219 180.601562 C 72.945312 180.789062 75.695312 180.980469 78.445312 181.21875 C 80.441406 181.382812 82.421875 181.582031 84.40625 181.832031 C 86.464844 182.097656 88.496094 182.449219 90.554688 182.722656 C 91.722656 182.875 92.902344 182.898438 94.070312 183.050781 C 95.160156 183.1875 96.230469 183.4375 97.320312 183.628906 C 98.136719 183.765625 98.953125 183.851562 99.769531 183.953125 C 101.550781 184.167969 103.34375 184.304688 105.128906 184.582031 C 107.449219 184.933594 109.746094 185.410156 112.054688 185.773438 C 113.738281 186.039062 115.433594 186.148438 117.113281 186.402344 C 118.621094 186.640625 120.101562 187.003906 121.605469 187.265625 C 122.460938 187.417969 123.339844 187.457031 124.207031 187.605469 C 125.761719 187.871094 127.304688 188.183594 128.863281 188.445312 C 129.714844 188.597656 130.582031 188.660156 131.445312 188.824219 C 133.417969 189.1875 135.375 189.589844 137.347656 189.953125 C 138.664062 190.203125 139.996094 190.390625 141.3125 190.644531 C 143.132812 190.996094 144.9375 191.421875 146.757812 191.773438 C 148.128906 192.035156 149.507812 192.238281 150.875 192.464844 C 151.027344 192.488281 151.214844 192.414062 151.328125 192.476562 C 151.703125 192.6875 152.042969 192.941406 152.40625 193.179688 C 152.054688 193.34375 151.691406 193.667969 151.339844 193.65625 C 150.425781 193.617188 149.507812 193.480469 148.605469 193.316406 C 147.199219 193.066406 145.804688 192.753906 144.414062 192.464844 C 141.988281 191.960938 139.566406 191.445312 137.144531 190.96875 C 135.828125 190.71875 134.484375 190.566406 133.152344 190.328125 C 131.144531 189.953125 129.136719 189.515625 127.117188 189.148438 C 125.75 188.898438 124.355469 188.734375 122.976562 188.511719 C 121.179688 188.222656 119.386719 187.882812 117.589844 187.605469 C 116.007812 187.367188 114.414062 187.230469 112.832031 186.980469 C 111.175781 186.714844 109.546875 186.363281 107.902344 186.085938 C 107.085938 185.949219 106.269531 185.875 105.453125 185.773438 C 102.957031 185.472656 100.445312 185.171875 97.949219 184.859375 C 95.652344 184.570312 93.34375 184.304688 91.046875 183.929688 C 89.3125 183.640625 87.582031 183.488281 85.835938 183.300781 C 83.902344 183.085938 81.957031 182.875 80.027344 182.699219 C 77.527344 182.460938 75.03125 182.296875 72.546875 182.058594 C 71.113281 181.921875 69.671875 182.046875 68.265625 181.808594 C 65.78125 181.394531 63.257812 181.808594 60.808594 181.46875 C 58.210938 181.117188 55.625 181.253906 53.039062 181.242188 C 44.820312 181.167969 36.625 181.207031 28.289062 181.207031 Z M 28.289062 181.207031 " fill-opacity="1" fill-rule="nonzero"/><path fill="#ffffff" d="M 286.890625 193.34375 C 290.140625 193.003906 293.242188 192.902344 296.34375 192.664062 C 297.972656 192.539062 299.617188 192.664062 301.226562 192.414062 C 303.710938 192.023438 306.234375 192.414062 308.679688 192.074219 C 311.328125 191.710938 313.964844 191.859375 316.601562 191.847656 C 326.3125 191.796875 336.015625 191.835938 345.730469 191.824219 C 347.324219 191.824219 348.894531 191.597656 350.398438 191.019531 C 350.636719 190.933594 350.941406 191.03125 351.214844 191.058594 C 351.152344 191.332031 351.164062 191.648438 351.027344 191.875 C 350.511719 192.675781 349.570312 192.640625 348.820312 192.714844 C 343.609375 193.265625 338.375 193.277344 333.179688 192.964844 C 329.011719 192.714844 324.847656 192.652344 320.714844 192.828125 C 316.664062 193.003906 312.597656 192.800781 308.554688 193.128906 C 306.359375 193.304688 304.160156 193.105469 302.003906 193.40625 C 300.207031 193.65625 298.414062 193.429688 296.667969 193.71875 C 295.125 193.96875 293.59375 193.804688 292.085938 193.996094 C 289.652344 194.285156 287.207031 194.496094 284.757812 194.597656 C 282.710938 194.683594 280.679688 194.972656 278.632812 195.1875 C 276.789062 195.375 274.957031 195.589844 273.125 195.789062 C 271.441406 195.976562 269.746094 196.152344 268.066406 196.40625 C 266.359375 196.65625 264.675781 197.019531 262.980469 197.296875 C 262.117188 197.433594 261.25 197.484375 260.382812 197.609375 C 258.527344 197.871094 256.65625 197.960938 254.835938 198.488281 C 253.957031 198.738281 253.003906 198.675781 252.085938 198.828125 C 250.480469 199.078125 248.875 199.304688 247.292969 199.691406 C 245.949219 200.03125 244.53125 200.082031 243.152344 200.34375 C 241.191406 200.710938 239.246094 201.273438 237.277344 201.5 C 235.972656 201.652344 234.703125 201.902344 233.4375 202.164062 C 230.652344 202.753906 227.875 203.371094 225.101562 204.023438 C 224.199219 204.238281 223.332031 204.625 222.429688 204.863281 C 222.203125 204.925781 221.914062 204.738281 221.652344 204.675781 C 221.816406 204.4375 221.914062 204.125 222.128906 203.972656 C 222.515625 203.722656 222.945312 203.484375 223.394531 203.382812 C 225.917969 202.753906 228.453125 202.164062 230.976562 201.550781 C 232.582031 201.160156 234.164062 200.671875 235.785156 200.359375 C 237.765625 199.980469 239.789062 199.769531 241.769531 199.417969 C 243.125 199.179688 244.445312 198.765625 245.800781 198.539062 C 247.367188 198.273438 248.960938 198.125 250.554688 197.910156 C 251.988281 197.722656 253.429688 197.535156 254.847656 197.296875 C 255.789062 197.144531 256.695312 196.832031 257.636719 196.707031 C 260.132812 196.367188 262.644531 196.140625 265.140625 195.765625 C 267.589844 195.402344 270.023438 194.984375 272.496094 194.824219 C 274.226562 194.699219 275.960938 194.394531 277.703125 194.234375 C 279.902344 194.019531 282.070312 193.679688 284.28125 193.65625 C 285.097656 193.617188 285.914062 193.441406 286.890625 193.34375 Z M 286.890625 193.34375 " fill-opacity="1" fill-rule="nonzero"/><path fill="#ffffff" d="M 262.378906 203.132812 C 262.128906 203.257812 261.941406 203.34375 261.765625 203.359375 C 259.628906 203.46875 257.496094 203.519531 255.363281 203.683594 C 253.265625 203.835938 251.171875 204.023438 249.085938 204.300781 C 247.53125 204.511719 246 204.902344 244.457031 205.175781 C 244.21875 205.214844 243.890625 205.066406 243.679688 204.902344 C 243.414062 204.699219 243.300781 204.410156 243.792969 204.285156 C 244.519531 204.085938 245.234375 203.820312 245.976562 203.695312 C 246.878906 203.535156 247.832031 203.558594 248.722656 203.359375 C 251.007812 202.867188 253.367188 203.054688 255.640625 202.464844 C 255.738281 202.441406 255.839844 202.464844 255.941406 202.464844 C 257.921875 202.367188 259.90625 202.339844 261.878906 202.152344 C 265.378906 201.8125 268.894531 201.699219 272.394531 201.476562 C 274.027344 201.375 275.671875 201.4375 277.277344 201.238281 C 279.964844 200.898438 282.6875 201.199219 285.335938 200.886719 C 287.84375 200.582031 290.332031 200.859375 292.804688 200.632812 C 298.273438 200.15625 303.761719 200.632812 309.21875 200.269531 C 312.886719 200.019531 316.539062 199.945312 320.175781 200.105469 C 326.214844 200.371094 332.238281 200.132812 338.261719 200.433594 C 341.011719 200.570312 343.773438 200.359375 346.484375 200.710938 C 348.929688 201.023438 351.367188 200.835938 353.800781 200.972656 C 354.152344 201 354.503906 201.222656 354.84375 201.363281 C 354.480469 201.625 354.101562 202.140625 353.75 202.128906 C 351.917969 202.050781 350.0625 202.492188 348.253906 201.875 C 347.890625 201.75 347.449219 201.863281 347.046875 201.863281 C 341.226562 201.765625 335.390625 201.875 329.578125 201.511719 C 321.820312 201.035156 314.078125 201.199219 306.332031 201.363281 C 302.078125 201.449219 297.796875 201.238281 293.570312 201.625 C 290.820312 201.875 288.058594 201.574219 285.347656 201.914062 C 283.050781 202.203125 280.742188 201.890625 278.496094 202.226562 C 276.5 202.53125 274.503906 202.214844 272.546875 202.515625 C 270.75 202.792969 268.957031 202.542969 267.210938 202.832031 C 265.605469 203.070312 264.035156 202.980469 262.378906 203.132812 Z M 262.378906 203.132812 " fill-opacity="1" fill-rule="nonzero"/><path fill="#ffffff" d="M 313.601562 184.84375 C 312.984375 184.945312 312.519531 185.109375 312.054688 185.132812 C 310.109375 185.234375 308.164062 185.382812 306.234375 185.734375 C 305.027344 185.949219 303.773438 185.847656 302.582031 186.085938 C 300.9375 186.425781 299.242188 186.375 297.636719 186.941406 C 296.832031 187.230469 295.902344 187.15625 295.039062 187.28125 C 292.867188 187.59375 290.695312 187.894531 288.546875 188.460938 C 287.207031 188.8125 285.773438 188.835938 284.40625 189.113281 C 281.933594 189.613281 279.421875 189.914062 276.976562 190.582031 C 275.230469 191.058594 273.386719 191.15625 271.605469 191.535156 C 269.054688 192.074219 266.535156 192.726562 264 193.304688 C 263.347656 193.453125 262.679688 193.554688 262.015625 193.628906 C 261.765625 193.65625 261.375 193.792969 261.386719 193.265625 C 261.386719 192.929688 261.425781 192.789062 261.851562 192.703125 C 262.855469 192.488281 263.824219 192.050781 264.828125 191.835938 C 267.800781 191.195312 270.800781 190.632812 273.777344 189.992188 C 275.996094 189.515625 278.207031 188.9375 280.441406 188.496094 C 281.910156 188.207031 283.414062 188.121094 284.882812 187.855469 C 286.238281 187.617188 287.558594 187.21875 288.914062 186.980469 C 290.332031 186.714844 291.800781 186.652344 293.203125 186.339844 C 294.785156 185.972656 296.441406 186.039062 298 185.484375 C 298.703125 185.234375 299.519531 185.421875 300.308594 185.195312 C 301.375 184.894531 302.542969 184.984375 303.660156 184.832031 C 304.941406 184.667969 306.21875 184.417969 307.511719 184.242188 C 308.53125 184.105469 309.546875 184.003906 310.574219 183.941406 C 312.609375 183.816406 314.65625 183.867188 316.664062 183.589844 C 318.394531 183.351562 320.164062 183.566406 321.847656 183.277344 C 323.792969 182.9375 325.722656 183.199219 327.644531 183.023438 C 331.949219 182.636719 336.253906 182.800781 340.574219 182.699219 C 342.167969 182.660156 343.746094 182.308594 345.328125 182.132812 C 345.582031 182.109375 345.84375 182.273438 346.105469 182.335938 C 346.019531 182.597656 346.007812 182.988281 345.832031 183.113281 C 345.453125 183.363281 344.976562 183.589844 344.539062 183.613281 C 341.550781 183.753906 338.550781 183.851562 335.566406 183.929688 C 334.046875 183.964844 332.527344 183.902344 331.007812 183.941406 C 328.070312 184.015625 325.109375 183.980469 322.183594 184.304688 C 320.539062 184.492188 318.910156 184.332031 317.304688 184.59375 C 316.085938 184.78125 314.929688 184.832031 313.601562 184.84375 Z M 313.601562 184.84375 " fill-opacity="1" fill-rule="nonzero"/><path fill="#ffffff" d="M 64.476562 191.296875 C 69.660156 191.222656 74.765625 191.222656 79.875 191.222656 C 80.402344 191.222656 81.269531 191.03125 81.292969 191.648438 C 81.316406 192.300781 80.464844 192.113281 79.949219 192.125 C 76.964844 192.226562 73.964844 192.363281 70.976562 192.425781 C 68.753906 192.476562 66.519531 192.300781 64.300781 192.464844 C 59.84375 192.777344 55.363281 192.539062 50.917969 192.816406 C 48.574219 192.964844 46.226562 192.777344 43.917969 193.089844 C 42.222656 193.316406 40.539062 193.191406 38.882812 193.367188 C 36.636719 193.605469 34.402344 193.84375 32.15625 193.980469 C 30.097656 194.121094 28.050781 194.570312 26.007812 194.847656 C 25.503906 194.910156 24.988281 194.886719 24.488281 194.835938 C 24.324219 194.824219 24.085938 194.621094 24.035156 194.460938 C 23.933594 194.132812 24.058594 193.96875 24.488281 193.917969 C 25.679688 193.78125 26.847656 193.480469 28.027344 193.34375 C 30.261719 193.089844 32.53125 193.066406 34.742188 192.664062 C 35.933594 192.449219 37.113281 192.601562 38.253906 192.386719 C 40.089844 192.035156 41.945312 192.351562 43.742188 192.0625 C 45.835938 191.710938 47.921875 192 49.992188 191.796875 C 54.648438 191.359375 59.316406 191.546875 63.972656 191.496094 C 64.148438 191.523438 64.273438 191.421875 64.476562 191.296875 Z M 64.476562 191.296875 " fill-opacity="1" fill-rule="nonzero"/><path fill="#ffffff" d="M 316.9375 173.613281 C 319.171875 173.511719 321.28125 173.597656 323.328125 173.261719 C 325.421875 172.910156 327.507812 173.210938 329.578125 172.996094 C 332.964844 172.644531 336.378906 172.53125 339.757812 172.769531 C 343.058594 173.007812 346.347656 172.972656 349.632812 172.996094 C 350.25 172.996094 350.863281 172.734375 351.480469 172.734375 C 351.804688 172.734375 352.132812 173.046875 352.445312 173.210938 C 352.183594 173.449219 351.945312 173.863281 351.667969 173.886719 C 350 174.050781 348.292969 174.351562 346.648438 174.175781 C 341.386719 173.625 336.117188 173.9375 330.84375 173.988281 C 328.421875 174.011719 325.964844 174.027344 323.554688 174.289062 C 322.121094 174.453125 320.679688 174.300781 319.285156 174.554688 C 316.902344 174.980469 314.441406 174.804688 312.070312 175.40625 C 311.039062 175.671875 309.921875 175.582031 308.867188 175.746094 C 307.363281 175.984375 305.882812 176.347656 304.375 176.597656 C 301.890625 177 299.46875 177.578125 297.082031 178.40625 C 296.894531 178.46875 296.605469 178.207031 296.355469 178.09375 C 296.492188 177.816406 296.554688 177.363281 296.769531 177.289062 C 297.785156 176.925781 298.816406 176.597656 299.871094 176.359375 C 301.765625 175.921875 303.671875 175.519531 305.582031 175.144531 C 307.210938 174.816406 308.855469 174.503906 310.511719 174.238281 C 311.464844 174.089844 312.445312 174.027344 313.410156 173.925781 C 314.542969 173.8125 315.660156 173.710938 316.9375 173.613281 Z M 316.9375 173.613281 " fill-opacity="1" fill-rule="nonzero"/><path fill="#ffffff" d="M 33.136719 176.347656 C 36.738281 176.246094 40.199219 176.347656 43.628906 175.984375 C 46.375 175.683594 49.136719 176.035156 51.847656 175.695312 C 54.394531 175.367188 56.957031 175.707031 59.453125 175.382812 C 61.398438 175.117188 63.320312 175.230469 65.253906 175.15625 C 65.464844 175.144531 65.691406 175.367188 65.917969 175.480469 C 65.71875 175.671875 65.542969 175.984375 65.304688 176.035156 C 64.5 176.199219 63.671875 176.324219 62.855469 176.347656 C 59.152344 176.472656 55.4375 176.347656 51.761719 176.738281 C 49.050781 177.011719 46.351562 176.6875 43.691406 177.011719 C 40.890625 177.363281 38.078125 177.027344 35.320312 177.339844 C 33.625 177.527344 31.941406 177.414062 30.285156 177.589844 C 27.386719 177.902344 24.488281 178.066406 21.589844 178.230469 C 19.339844 178.355469 17.121094 178.808594 14.859375 178.796875 C 14.710938 178.796875 14.507812 178.769531 14.433594 178.859375 C 13.90625 179.410156 13.519531 178.957031 13.453125 178.582031 C 13.378906 178.078125 13.832031 177.917969 14.347656 177.878906 C 16.792969 177.703125 19.253906 177.566406 21.675781 177.265625 C 24.222656 176.949219 26.757812 176.699219 29.320312 176.660156 C 30.550781 176.625 31.765625 176.449219 33.136719 176.347656 Z M 33.136719 176.347656 " fill-opacity="1" fill-rule="nonzero"/></svg>