<svg xmlns="http://www.w3.org/2000/svg" xmlns:xlink="http://www.w3.org/1999/xlink" width="500" zoomAndPan="magnify" viewBox="0 0 375 225" height="300" preserveAspectRatio="xMidYMid meet" version="1.0"><defs><clipPath id="2da2d6b790"><path d="M 19.738281 11 L 323 11 L 323 219.671875 L 19.738281 219.671875 Z M 19.738281 11 " clip-rule="nonzero"/></clipPath><clipPath id="1883ebd548"><path d="M 219 5.226562 L 355.277344 5.226562 L 355.277344 135 L 219 135 Z M 219 5.226562 " clip-rule="nonzero"/></clipPath></defs><g clip-path="url(#2da2d6b790)"><path fill="#ffffff" d="M 311.835938 81.023438 L 311.835938 209.078125 C 311.835938 209.414062 311.550781 209.691406 311.195312 209.691406 L 280.9375 209.691406 C 269.953125 204.773438 254.371094 201.648438 237.089844 201.648438 C 219.796875 201.648438 204.21875 204.773438 193.234375 209.691406 L 151.671875 209.691406 C 140.6875 204.773438 125.109375 201.648438 107.824219 201.648438 C 90.535156 201.648438 70.191406 204.773438 59.207031 209.691406 L 30.855469 209.691406 C 30.855469 209.691406 30.214844 209.414062 30.214844 209.078125 L 30.214844 47.007812 C 30.214844 46.664062 30.5 46.394531 30.5 46.394531 L 38.074219 46.394531 L 38.074219 36.40625 L 30.855469 36.40625 C 24.714844 36.40625 19.738281 41.148438 19.738281 47.007812 L 19.738281 209.078125 C 19.738281 214.929688 24.714844 219.671875 30.855469 219.671875 L 311.195312 219.671875 C 317.335938 219.671875 322.3125 214.929688 322.3125 209.078125 L 322.3125 71.0625 L 312.144531 80.765625 C 312.042969 80.855469 311.941406 80.941406 311.835938 81.023438 Z M 297.316406 203.890625 L 297.316406 79.082031 L 245.136719 128.835938 L 246.375 130.007812 L 216.328125 137.679688 L 224.382812 109.039062 L 225.613281 110.210938 L 296.910156 40.058594 C 291.152344 28.796875 266.054688 11.132812 237.089844 11.132812 C 205.351562 11.132812 179.355469 21.671875 177.03125 34.460938 C 176.917969 34.542969 176.863281 34.589844 176.863281 34.589844 L 176.863281 203.890625 C 176.863281 203.890625 212.429688 191.171875 237.089844 191.171875 C 268.304688 191.171875 297.316406 203.890625 297.316406 203.890625 Z M 107.824219 191.171875 C 76.601562 191.171875 42.835938 203.890625 42.835938 203.890625 L 42.835938 34.589844 C 42.835938 34.589844 42.890625 34.542969 43.003906 34.46875 C 45.320312 21.671875 76.089844 11.132812 107.824219 11.132812 C 139.554688 11.132812 165.550781 21.671875 167.886719 34.460938 C 167.996094 34.542969 168.054688 34.589844 168.054688 34.589844 L 168.054688 203.890625 C 168.054688 203.890625 132.484375 191.171875 107.824219 191.171875 " fill-opacity="1" fill-rule="nonzero"/></g><g clip-path="url(#1883ebd548)"><path fill="#ffffff" d="M 344.605469 30.089844 L 328.925781 14.609375 C 328.21875 15.261719 327.660156 15.792969 327.363281 16.070312 C 327.230469 16.203125 327.101562 16.339844 326.988281 16.480469 L 326.960938 16.453125 L 227.539062 111.429688 L 243.710938 126.824219 L 335.222656 39.410156 C 336.570312 42.507812 335.929688 46.207031 333.296875 48.730469 L 306.042969 74.753906 C 304.84375 75.917969 304.84375 77.777344 306.050781 78.929688 C 307.261719 80.085938 309.222656 80.085938 310.425781 78.929688 L 337.675781 52.894531 C 342.746094 48.050781 343.445312 40.609375 339.789062 35.046875 L 343.136719 31.847656 L 343.109375 31.828125 C 343.148438 31.800781 343.660156 31.269531 344.605469 30.089844 Z M 349.378906 7.914062 C 347.601562 6.566406 345.109375 5.03125 342.765625 5.253906 C 339.109375 5.589844 334.777344 9.839844 332.058594 12.128906 C 331.84375 12.304688 331.648438 12.5 331.472656 12.714844 L 346.773438 28.097656 C 349.882812 25.71875 353.871094 21.511719 354.988281 18.414062 C 356.402344 14.519531 352.179688 10.042969 349.378906 7.914062 Z M 219.695312 134.472656 L 225.613281 113.421875 L 241.769531 128.835938 Z M 219.695312 134.472656 " fill-opacity="1" fill-rule="nonzero"/></g></svg>