
<svg xmlns="http://www.w3.org/2000/svg"
     class="svg-snoweb svg-theme-light"
     x="0"
     y="0"
     width="100%"
     height="100%"
     viewBox="0 0 100 100"
     preserveAspectRatio="xMidYMid meet"
>
<defs>
    <style>
        
            
            
            
        

        .svg-fill-primary {
            fill: #ecf0f3;
        }

        .svg-fill-secondary {
            fill: #65CDAE;
        }

        .svg-fill-tertiary {
            fill: #E5E7EB;
        }

        .svg-stroke-primary {
            stroke: #ecf0f3;
        }

        .svg-stroke-secondary {
            stroke: #65CDAE;
        }

        .svg-stroke-tertiary {
            stroke: #E5E7EB;
        }
    </style>
</defs>
    

<clipPath id="clip-path-202403-1110-0210-39d109de-cb45-4338-a35d-689d1c62b3c0">
    <rect x="0" y="95" width="100" height="5"></rect>
</clipPath>
<g clip-path="url(#clip-path-202403-1110-0210-39d109de-cb45-4338-a35d-689d1c62b3c0)">
    <rect 
            class="svg-fill-tertiary"
            x="0"
            y="95"
            width="100"
            height="5">
    </rect>
    <g transform="translate(0, 50)">
        <circle 
                class="svg-fill-secondary svg-builder-circle"
                cx="50"
                cy="50"
                r="50">
        </circle>
    </g>
</g>

    <g transform="translate(20.00, 20.00) scale(0.60, 0.60)">
        
    <path d="M66.6,50A16.6,16.6,0,1,0,50,66.6,16.6,16.6,0,0,0,66.6,50Zm0,0v6.2a10.4,10.4,0,0,0,20.8,0V50A37.4,37.4,0,1,0,50,87.4m18.7-5a37.2,37.2,0,0,1-18.7,5"
      fill="none"
      class="svg-stroke-primary"
      stroke-linecap="round"
      stroke-linejoin="round"
      stroke-width="9"/>


    </g>
</svg>