<svg xmlns="http://www.w3.org/2000/svg" xmlns:xlink="http://www.w3.org/1999/xlink" width="500" zoomAndPan="magnify" viewBox="0 0 375 374.999991" height="500" preserveAspectRatio="xMidYMid meet" version="1.0"><defs><clipPath id="edfacec049"><path d="M 71 18.75 L 229 18.75 L 229 205 L 71 205 Z M 71 18.75 " clip-rule="nonzero"/></clipPath><clipPath id="9e00201dbd"><path d="M 19 198 L 356.25 198 L 356.25 356.25 L 19 356.25 Z M 19 198 " clip-rule="nonzero"/></clipPath></defs><path fill="#ffffff" d="M 317.066406 324.351562 C 317.066406 324.6875 317.03125 325.019531 316.96875 325.351562 C 316.902344 325.679688 316.804688 326 316.675781 326.308594 C 316.546875 326.621094 316.390625 326.914062 316.203125 327.195312 C 316.015625 327.476562 315.804688 327.734375 315.566406 327.972656 C 315.328125 328.207031 315.070312 328.421875 314.789062 328.609375 C 314.511719 328.792969 314.214844 328.953125 313.90625 329.082031 C 313.59375 329.210938 313.273438 329.304688 312.945312 329.371094 C 312.613281 329.4375 312.28125 329.46875 311.945312 329.46875 C 311.609375 329.46875 311.277344 329.4375 310.945312 329.371094 C 310.617188 329.304688 310.296875 329.210938 309.988281 329.082031 C 309.675781 328.953125 309.382812 328.792969 309.101562 328.609375 C 308.820312 328.421875 308.5625 328.207031 308.324219 327.972656 C 308.085938 327.734375 307.875 327.476562 307.6875 327.195312 C 307.503906 326.914062 307.34375 326.621094 307.214844 326.308594 C 307.085938 326 306.988281 325.679688 306.925781 325.351562 C 306.859375 325.019531 306.824219 324.6875 306.824219 324.351562 C 306.824219 324.015625 306.859375 323.683594 306.925781 323.351562 C 306.988281 323.023438 307.085938 322.703125 307.214844 322.390625 C 307.34375 322.082031 307.503906 321.785156 307.6875 321.507812 C 307.875 321.226562 308.085938 320.96875 308.324219 320.730469 C 308.5625 320.492188 308.820312 320.28125 309.101562 320.09375 C 309.382812 319.90625 309.675781 319.75 309.988281 319.621094 C 310.296875 319.492188 310.617188 319.394531 310.945312 319.328125 C 311.277344 319.265625 311.609375 319.230469 311.945312 319.230469 C 312.28125 319.230469 312.613281 319.265625 312.945312 319.328125 C 313.273438 319.394531 313.59375 319.492188 313.90625 319.621094 C 314.214844 319.75 314.511719 319.90625 314.789062 320.09375 C 315.070312 320.28125 315.328125 320.492188 315.566406 320.730469 C 315.804688 320.96875 316.015625 321.226562 316.203125 321.507812 C 316.390625 321.785156 316.546875 322.082031 316.675781 322.390625 C 316.804688 322.703125 316.902344 323.023438 316.96875 323.351562 C 317.03125 323.683594 317.066406 324.015625 317.066406 324.351562 Z M 317.066406 324.351562 " fill-opacity="1" fill-rule="nonzero"/><path fill="#ffffff" d="M 155.207031 167.21875 C 158.359375 166.824219 161.113281 164.066406 161.113281 160.523438 L 161.113281 152.648438 C 161.113281 151.464844 159.539062 149.101562 157.175781 147.921875 L 155.601562 147.132812 Z M 155.207031 167.21875 " fill-opacity="1" fill-rule="nonzero"/><g clip-path="url(#edfacec049)"><path fill="#ffffff" d="M 115.039062 204.238281 L 184.347656 204.238281 C 185.53125 204.238281 206.796875 204.238281 219.398438 189.664062 C 226.488281 181.394531 229.636719 170.367188 227.667969 156.980469 C 222.550781 114.839844 184.742188 80.183594 171.746094 71.519531 C 171.746094 71.519531 190.652344 49.074219 191.042969 48.679688 C 193.40625 42.773438 190.652344 36.078125 184.742188 33.714844 L 176.867188 30.566406 C 176.472656 23.871094 170.960938 18.75 164.265625 18.75 L 135.515625 18.75 C 128.820312 18.75 123.308594 23.871094 122.914062 30.566406 L 115.039062 33.714844 C 109.128906 36.078125 106.375 42.773438 108.738281 48.679688 C 109.128906 49.074219 128.035156 71.519531 128.035156 71.519531 C 114.644531 80.578125 76.835938 115.234375 71.71875 157.375 C 70.144531 170.761719 72.898438 181.789062 79.988281 190.058594 C 92.984375 204.238281 113.855469 204.238281 115.039062 204.238281 Z M 170.960938 122.324219 C 170.960938 125.082031 168.597656 127.050781 166.234375 127.050781 C 163.871094 127.050781 161.507812 124.6875 161.507812 122.324219 L 161.507812 118.777344 C 161.507812 115.628906 159.144531 112.476562 155.601562 112.085938 L 155.601562 136.5 L 162.296875 139.257812 C 167.414062 141.226562 170.960938 146.738281 171.355469 152.648438 L 171.355469 160.523438 C 171.355469 169.1875 164.265625 176.671875 155.601562 177.0625 L 155.601562 182.972656 C 155.601562 185.726562 153.238281 187.695312 150.875 187.695312 C 148.511719 187.695312 146.148438 185.335938 146.148438 182.972656 L 146.148438 177.0625 L 145.753906 177.0625 C 136.699219 177.0625 129.214844 169.582031 129.214844 160.523438 L 129.214844 156.980469 C 129.214844 154.222656 131.578125 152.253906 133.941406 152.253906 C 136.699219 152.253906 138.667969 154.617188 138.667969 156.980469 L 138.667969 160.523438 C 138.667969 164.066406 141.816406 167.21875 145.363281 167.21875 L 145.753906 167.21875 L 145.753906 143.195312 L 137.484375 140.046875 C 130.003906 136.894531 128.425781 130.199219 128.425781 126.65625 L 128.425781 118.777344 C 128.425781 109.722656 135.910156 102.238281 144.96875 102.238281 C 144.96875 102.238281 145.753906 102.238281 145.753906 102.238281 L 145.753906 96.726562 C 145.753906 93.96875 148.117188 92 150.480469 92 C 152.84375 92 155.207031 94.363281 155.207031 96.726562 L 155.207031 102.238281 C 163.871094 102.632812 170.960938 109.722656 170.960938 118.777344 Z M 118.582031 43.167969 L 126.457031 40.015625 L 132.367188 51.042969 C 133.152344 52.617188 134.730469 53.800781 136.699219 53.800781 C 139.453125 53.800781 141.816406 51.4375 141.421875 48.679688 C 141.421875 47.890625 141.03125 47.105469 141.03125 46.316406 C 141.03125 46.316406 132.757812 30.957031 132.367188 30.566406 C 132.757812 29.382812 133.941406 28.59375 135.121094 28.59375 L 163.871094 28.59375 C 165.050781 28.59375 166.234375 29.382812 166.628906 30.566406 L 158.359375 45.921875 C 157.175781 48.285156 157.964844 51.4375 160.328125 52.617188 C 161.113281 53.011719 161.902344 53.011719 162.691406 53.011719 C 164.660156 53.011719 166.234375 51.832031 167.023438 50.253906 L 172.929688 39.226562 L 180.410156 42.378906 C 181.199219 42.773438 181.59375 43.167969 181.59375 43.953125 L 161.113281 67.582031 C 153.238281 66.796875 145.363281 66.796875 137.484375 67.582031 L 117.007812 43.953125 C 117.402344 43.953125 117.792969 43.558594 118.582031 43.167969 Z M 118.582031 43.167969 " fill-opacity="1" fill-rule="nonzero"/></g><path fill="#ffffff" d="M 138.273438 118.777344 L 138.273438 126.65625 C 138.273438 127.835938 139.453125 130.59375 142.210938 131.382812 L 145.363281 132.5625 L 145.363281 112.085938 L 144.96875 112.085938 C 141.421875 112.085938 138.273438 115.234375 138.273438 118.777344 Z M 138.273438 118.777344 " fill-opacity="1" fill-rule="nonzero"/><g clip-path="url(#9e00201dbd)"><path fill="#ffffff" d="M 352.113281 346.796875 L 289.890625 346.796875 L 289.890625 238.105469 L 341.875 238.105469 C 344.632812 238.105469 346.601562 235.742188 346.601562 233.378906 C 346.601562 231.015625 344.632812 228.261719 341.875 228.261719 L 289.890625 228.261719 L 289.890625 212.507812 C 289.890625 209.75 287.527344 207.78125 285.167969 207.78125 C 282.804688 207.78125 280.441406 210.144531 280.441406 212.507812 L 280.441406 228.261719 L 252.480469 228.261719 C 249.722656 228.261719 247.753906 230.621094 247.753906 232.984375 L 247.753906 247.164062 L 238.695312 247.164062 L 209.949219 221.957031 C 209.160156 221.171875 207.976562 220.777344 206.796875 220.777344 L 127.640625 220.777344 C 125.277344 220.777344 122.914062 222.351562 122.914062 225.109375 L 122.519531 228.261719 C 122.519531 235.347656 124.882812 242.042969 129.214844 247.558594 L 123.703125 247.558594 L 104.011719 216.839844 C 97.710938 204.632812 83.925781 194.785156 69.75 199.511719 C 62.265625 201.875 61.871094 202.269531 61.871094 202.269531 C 60.691406 202.660156 59.511719 203.84375 59.117188 205.023438 C 58.722656 206.207031 58.722656 207.78125 59.511719 208.964844 L 61.085938 211.71875 C 50.058594 205.8125 36.273438 205.023438 26.824219 214.082031 C 20.914062 219.988281 20.523438 220.382812 20.523438 220.382812 C 18.945312 222.351562 18.945312 225.503906 21.308594 227.472656 C 21.308594 227.472656 91.804688 276.304688 91.804688 276.304688 C 92.195312 276.699219 202.859375 317.65625 202.859375 317.65625 C 202.859375 317.65625 234.757812 318.050781 246.964844 318.050781 L 246.964844 325.925781 C 246.964844 328.683594 249.328125 330.652344 251.691406 330.652344 L 279.652344 330.652344 L 279.652344 351.523438 C 279.652344 354.28125 282.015625 356.25 284.378906 356.25 L 351.328125 356.25 C 354.085938 356.25 356.054688 353.886719 356.054688 351.523438 C 356.054688 349.160156 354.476562 346.796875 352.113281 346.796875 Z M 72.503906 208.964844 C 81.167969 206.207031 90.621094 213.292969 94.953125 221.957031 L 105.585938 238.5 L 76.835938 221.957031 L 70.144531 209.75 Z M 246.964844 307.8125 L 205.617188 307.8125 L 96.921875 267.640625 L 31.941406 222.746094 L 33.519531 221.171875 C 40.214844 214.476562 51.632812 216.839844 59.511719 222.351562 L 118.1875 256.222656 C 118.976562 256.613281 119.765625 257.007812 120.550781 257.007812 L 191.042969 257.007812 C 193.800781 257.007812 195.769531 254.644531 195.769531 252.28125 C 195.769531 249.917969 193.40625 247.558594 191.042969 247.558594 L 146.148438 247.558594 C 138.667969 246.375 133.152344 238.105469 132.367188 230.621094 L 204.039062 230.621094 L 233.183594 255.828125 C 233.96875 256.613281 235.152344 257.007812 236.332031 257.007812 L 247.359375 257.007812 Z M 246.964844 307.8125 " fill-opacity="1" fill-rule="nonzero"/></g></svg>