<svg xmlns="http://www.w3.org/2000/svg" xmlns:xlink="http://www.w3.org/1999/xlink" width="500" zoomAndPan="magnify" viewBox="0 0 375 374.999991" height="500" preserveAspectRatio="xMidYMid meet" version="1.0"><defs><clipPath id="6f557405d1"><path d="M 17 24 L 358.816406 24 L 358.816406 351 L 17 351 Z M 17 24 " clip-rule="nonzero"/></clipPath></defs><g clip-path="url(#6f557405d1)"><path fill="#545454" d="M 17.761719 148.175781 C 16.425781 152.292969 17.539062 156.820312 20.644531 159.84375 L 96.097656 233.394531 L 78.285156 337.238281 C 77.554688 341.507812 79.308594 345.824219 82.816406 348.375 C 86.339844 350.941406 90.980469 351.265625 94.816406 349.242188 L 188.070312 300.21875 L 281.320312 349.242188 C 282.988281 350.121094 284.816406 350.554688 286.628906 350.554688 C 288.984375 350.554688 291.34375 349.820312 293.324219 348.371094 C 296.828125 345.824219 298.585938 341.507812 297.851562 337.238281 L 280.042969 233.394531 L 355.496094 159.84375 C 358.601562 156.820312 359.710938 152.289062 358.378906 148.175781 C 357.03125 144.046875 353.472656 141.042969 349.175781 140.421875 L 244.914062 125.269531 L 198.28125 30.796875 C 194.453125 23.007812 181.683594 23.007812 177.859375 30.796875 L 131.226562 125.269531 L 26.960938 140.421875 C 22.667969 141.042969 19.109375 144.046875 17.761719 148.175781 Z M 140.425781 146.953125 C 144.140625 146.417969 147.34375 144.082031 149.003906 140.722656 L 188.070312 61.574219 L 227.136719 140.722656 C 228.792969 144.082031 232 146.417969 235.714844 146.953125 L 323.058594 159.644531 L 259.851562 221.257812 C 257.171875 223.875 255.949219 227.644531 256.582031 231.339844 L 271.5 318.339844 L 193.375 277.269531 C 191.707031 276.390625 189.894531 275.957031 188.070312 275.957031 C 186.246094 275.957031 184.433594 276.390625 182.761719 277.269531 L 104.640625 318.339844 L 119.558594 231.339844 C 120.191406 227.644531 118.96875 223.875 116.285156 221.257812 L 53.082031 159.644531 Z M 140.425781 146.953125 " fill-opacity="1" fill-rule="nonzero"/></g></svg>