<svg xmlns="http://www.w3.org/2000/svg" xmlns:xlink="http://www.w3.org/1999/xlink" width="500" zoomAndPan="magnify" viewBox="0 0 375 374.999991" height="500" preserveAspectRatio="xMidYMid meet" version="1.0"><defs><clipPath id="6c160fb95c"><path d="M 14.613281 14.613281 L 360.363281 14.613281 L 360.363281 360.363281 L 14.613281 360.363281 Z M 14.613281 14.613281 " clip-rule="nonzero"/></clipPath></defs><g clip-path="url(#6c160fb95c)"><path fill="#ffbd59" d="M 187.496094 14.613281 C 184.664062 14.613281 181.839844 14.683594 179.011719 14.820312 C 176.1875 14.960938 173.367188 15.167969 170.550781 15.445312 C 167.734375 15.722656 164.925781 16.070312 162.128906 16.484375 C 159.328125 16.898438 156.542969 17.382812 153.765625 17.9375 C 150.992188 18.488281 148.234375 19.109375 145.488281 19.796875 C 142.742188 20.484375 140.019531 21.238281 137.308594 22.058594 C 134.601562 22.878906 131.917969 23.765625 129.253906 24.71875 C 126.589844 25.671875 123.949219 26.691406 121.335938 27.773438 C 118.722656 28.855469 116.136719 30.003906 113.578125 31.210938 C 111.019531 32.421875 108.496094 33.695312 106 35.027344 C 103.503906 36.359375 101.042969 37.753906 98.617188 39.210938 C 96.191406 40.664062 93.800781 42.179688 91.449219 43.75 C 89.09375 45.320312 86.78125 46.949219 84.511719 48.636719 C 82.238281 50.320312 80.007812 52.0625 77.820312 53.855469 C 75.632812 55.652344 73.492188 57.5 71.394531 59.398438 C 69.296875 61.296875 67.25 63.25 65.25 65.25 C 63.25 67.25 61.296875 69.296875 59.398438 71.394531 C 57.5 73.492188 55.652344 75.632812 53.855469 77.820312 C 52.0625 80.007812 50.320312 82.238281 48.636719 84.511719 C 46.949219 86.78125 45.320312 89.09375 43.75 91.449219 C 42.179688 93.800781 40.664062 96.191406 39.210938 98.617188 C 37.753906 101.042969 36.359375 103.503906 35.027344 106 C 33.695312 108.496094 32.421875 111.019531 31.210938 113.578125 C 30.003906 116.136719 28.855469 118.722656 27.773438 121.335938 C 26.691406 123.949219 25.671875 126.589844 24.71875 129.253906 C 23.765625 131.917969 22.878906 134.601562 22.058594 137.308594 C 21.238281 140.019531 20.484375 142.742188 19.796875 145.488281 C 19.109375 148.234375 18.488281 150.992188 17.9375 153.765625 C 17.382812 156.542969 16.898438 159.328125 16.484375 162.128906 C 16.070312 164.925781 15.722656 167.734375 15.445312 170.550781 C 15.167969 173.367188 14.960938 176.1875 14.820312 179.011719 C 14.683594 181.839844 14.613281 184.664062 14.613281 187.496094 C 14.613281 190.324219 14.683594 193.152344 14.820312 195.976562 C 14.960938 198.804688 15.167969 201.625 15.445312 204.441406 C 15.722656 207.257812 16.070312 210.0625 16.484375 212.863281 C 16.898438 215.660156 17.382812 218.449219 17.9375 221.222656 C 18.488281 223.996094 19.109375 226.757812 19.796875 229.5 C 20.484375 232.246094 21.238281 234.972656 22.058594 237.679688 C 22.878906 240.386719 23.765625 243.074219 24.71875 245.738281 C 25.671875 248.402344 26.691406 251.039062 27.773438 253.652344 C 28.855469 256.265625 30.003906 258.851562 31.210938 261.410156 C 32.421875 263.96875 33.695312 266.496094 35.027344 268.992188 C 36.359375 271.484375 37.753906 273.945312 39.210938 276.375 C 40.664062 278.800781 42.179688 281.191406 43.75 283.542969 C 45.320312 285.894531 46.949219 288.207031 48.636719 290.480469 C 50.320312 292.753906 52.0625 294.980469 53.855469 297.167969 C 55.652344 299.355469 57.5 301.5 59.398438 303.59375 C 61.296875 305.691406 63.25 307.738281 65.25 309.738281 C 67.25 311.742188 69.296875 313.691406 71.394531 315.589844 C 73.492188 317.492188 75.632812 319.339844 77.820312 321.132812 C 80.007812 322.929688 82.238281 324.667969 84.511719 326.355469 C 86.78125 328.039062 89.09375 329.667969 91.449219 331.238281 C 93.800781 332.8125 96.191406 334.324219 98.617188 335.78125 C 101.042969 337.234375 103.503906 338.628906 106 339.960938 C 108.496094 341.296875 111.019531 342.566406 113.578125 343.777344 C 116.136719 344.988281 118.722656 346.132812 121.335938 347.214844 C 123.949219 348.296875 126.589844 349.316406 129.253906 350.269531 C 131.917969 351.222656 134.601562 352.109375 137.308594 352.929688 C 140.019531 353.753906 142.742188 354.507812 145.488281 355.195312 C 148.234375 355.882812 150.992188 356.5 153.765625 357.054688 C 156.542969 357.605469 159.328125 358.089844 162.128906 358.503906 C 164.925781 358.917969 167.734375 359.265625 170.550781 359.542969 C 173.367188 359.820312 176.1875 360.027344 179.011719 360.167969 C 181.839844 360.304688 184.664062 360.375 187.496094 360.375 C 190.324219 360.375 193.152344 360.304688 195.976562 360.167969 C 198.804688 360.027344 201.625 359.820312 204.441406 359.542969 C 207.257812 359.265625 210.0625 358.917969 212.863281 358.503906 C 215.660156 358.089844 218.449219 357.605469 221.222656 357.054688 C 223.996094 356.5 226.757812 355.882812 229.5 355.195312 C 232.246094 354.507812 234.972656 353.753906 237.679688 352.929688 C 240.386719 352.109375 243.074219 351.222656 245.738281 350.269531 C 248.402344 349.316406 251.039062 348.296875 253.652344 347.214844 C 256.265625 346.132812 258.851562 344.988281 261.410156 343.777344 C 263.96875 342.566406 266.496094 341.296875 268.992188 339.960938 C 271.484375 338.628906 273.945312 337.234375 276.375 335.78125 C 278.800781 334.324219 281.191406 332.8125 283.542969 331.238281 C 285.894531 329.667969 288.207031 328.039062 290.480469 326.355469 C 292.753906 324.667969 294.980469 322.929688 297.167969 321.132812 C 299.355469 319.339844 301.5 317.492188 303.59375 315.589844 C 305.691406 313.691406 307.738281 311.742188 309.738281 309.738281 C 311.742188 307.738281 313.691406 305.691406 315.589844 303.59375 C 317.492188 301.5 319.339844 299.355469 321.132812 297.167969 C 322.929688 294.980469 324.667969 292.753906 326.355469 290.480469 C 328.039062 288.207031 329.667969 285.894531 331.238281 283.542969 C 332.8125 281.191406 334.324219 278.800781 335.78125 276.375 C 337.234375 273.945312 338.628906 271.484375 339.960938 268.992188 C 341.296875 266.496094 342.566406 263.96875 343.777344 261.410156 C 344.988281 258.851562 346.132812 256.265625 347.214844 253.652344 C 348.296875 251.039062 349.316406 248.402344 350.269531 245.738281 C 351.222656 243.074219 352.109375 240.386719 352.929688 237.679688 C 353.753906 234.972656 354.507812 232.246094 355.195312 229.5 C 355.882812 226.757812 356.5 223.996094 357.054688 221.222656 C 357.605469 218.449219 358.089844 215.660156 358.503906 212.863281 C 358.917969 210.0625 359.265625 207.257812 359.542969 204.441406 C 359.820312 201.625 360.027344 198.804688 360.167969 195.976562 C 360.304688 193.152344 360.375 190.324219 360.375 187.496094 C 360.375 184.664062 360.304688 181.839844 360.167969 179.011719 C 360.027344 176.1875 359.820312 173.367188 359.542969 170.550781 C 359.261719 167.734375 358.917969 164.925781 358.5 162.128906 C 358.085938 159.332031 357.601562 156.542969 357.050781 153.769531 C 356.5 150.996094 355.878906 148.234375 355.191406 145.488281 C 354.503906 142.746094 353.75 140.019531 352.925781 137.3125 C 352.105469 134.605469 351.21875 131.917969 350.265625 129.257812 C 349.3125 126.59375 348.292969 123.953125 347.210938 121.339844 C 346.128906 118.726562 344.980469 116.140625 343.769531 113.582031 C 342.5625 111.023438 341.289062 108.5 339.957031 106.003906 C 338.621094 103.507812 337.226562 101.046875 335.773438 98.621094 C 334.320312 96.195312 332.804688 93.804688 331.234375 91.453125 C 329.660156 89.101562 328.03125 86.789062 326.347656 84.515625 C 324.660156 82.242188 322.921875 80.011719 321.125 77.828125 C 319.332031 75.640625 317.484375 73.496094 315.585938 71.402344 C 313.683594 69.304688 311.734375 67.257812 309.734375 65.257812 C 307.734375 63.253906 305.683594 61.304688 303.589844 59.40625 C 301.492188 57.503906 299.351562 55.65625 297.164062 53.863281 C 294.976562 52.066406 292.746094 50.328125 290.472656 48.640625 C 288.203125 46.957031 285.890625 45.328125 283.539062 43.757812 C 281.183594 42.183594 278.796875 40.671875 276.367188 39.214844 C 273.941406 37.761719 271.480469 36.367188 268.984375 35.035156 C 266.492188 33.699219 263.964844 32.429688 261.40625 31.21875 C 258.847656 30.007812 256.265625 28.863281 253.648438 27.78125 C 251.035156 26.695312 248.398438 25.679688 245.734375 24.726562 C 243.070312 23.773438 240.382812 22.882812 237.675781 22.0625 C 234.96875 21.242188 232.242188 20.488281 229.5 19.800781 C 226.753906 19.113281 223.996094 18.492188 221.222656 17.9375 C 218.445312 17.386719 215.660156 16.902344 212.859375 16.488281 C 210.0625 16.074219 207.253906 15.726562 204.441406 15.449219 C 201.625 15.171875 198.804688 14.960938 195.976562 14.824219 C 193.152344 14.683594 190.324219 14.613281 187.496094 14.613281 Z M 247.679688 185.117188 C 246.1875 185.125 244.710938 184.988281 243.246094 184.699219 C 241.785156 184.414062 240.363281 183.984375 238.984375 183.414062 C 237.609375 182.84375 236.300781 182.144531 235.0625 181.3125 C 233.824219 180.480469 232.683594 179.53125 231.632812 178.472656 L 210.238281 157.132812 L 210.238281 272.800781 C 210.238281 273.546875 210.203125 274.289062 210.128906 275.03125 C 210.058594 275.769531 209.949219 276.507812 209.800781 277.238281 C 209.65625 277.96875 209.476562 278.691406 209.261719 279.402344 C 209.042969 280.117188 208.792969 280.816406 208.507812 281.503906 C 208.222656 282.191406 207.90625 282.867188 207.554688 283.523438 C 207.203125 284.179688 206.820312 284.816406 206.40625 285.4375 C 205.992188 286.054688 205.550781 286.652344 205.078125 287.230469 C 204.605469 287.804688 204.105469 288.355469 203.578125 288.882812 C 203.050781 289.410156 202.5 289.910156 201.925781 290.382812 C 201.347656 290.855469 200.75 291.296875 200.132812 291.710938 C 199.511719 292.125 198.875 292.507812 198.214844 292.859375 C 197.558594 293.210938 196.886719 293.527344 196.199219 293.8125 C 195.511719 294.097656 194.808594 294.351562 194.097656 294.566406 C 193.382812 294.78125 192.664062 294.964844 191.933594 295.109375 C 191.203125 295.253906 190.464844 295.363281 189.722656 295.4375 C 188.984375 295.507812 188.238281 295.546875 187.496094 295.546875 C 186.75 295.546875 186.007812 295.507812 185.265625 295.4375 C 184.523438 295.363281 183.789062 295.253906 183.058594 295.109375 C 182.328125 294.964844 181.605469 294.78125 180.890625 294.566406 C 180.179688 294.351562 179.480469 294.097656 178.789062 293.8125 C 178.101562 293.527344 177.429688 293.210938 176.773438 292.859375 C 176.117188 292.507812 175.476562 292.125 174.859375 291.710938 C 174.238281 291.296875 173.640625 290.855469 173.066406 290.382812 C 172.488281 289.910156 171.9375 289.410156 171.410156 288.882812 C 170.886719 288.355469 170.386719 287.804688 169.914062 287.230469 C 169.441406 286.652344 168.996094 286.054688 168.582031 285.4375 C 168.167969 284.816406 167.785156 284.179688 167.4375 283.523438 C 167.085938 282.867188 166.765625 282.191406 166.480469 281.503906 C 166.195312 280.816406 165.945312 280.117188 165.730469 279.402344 C 165.511719 278.691406 165.332031 277.96875 165.1875 277.238281 C 165.042969 276.507812 164.933594 275.769531 164.859375 275.03125 C 164.785156 274.289062 164.75 273.546875 164.75 272.800781 L 164.75 157.132812 L 143.355469 178.472656 C 142.308594 179.53125 141.164062 180.480469 139.925781 181.3125 C 138.691406 182.144531 137.382812 182.84375 136.003906 183.414062 C 134.625 183.984375 133.207031 184.414062 131.742188 184.699219 C 130.277344 184.988281 128.800781 185.125 127.3125 185.117188 C 126.199219 185.105469 125.089844 185.015625 123.992188 184.84375 C 122.894531 184.671875 121.8125 184.421875 120.75 184.089844 C 119.6875 183.761719 118.652344 183.355469 117.648438 182.871094 C 116.644531 182.390625 115.683594 181.839844 114.761719 181.21875 C 113.839844 180.59375 112.964844 179.910156 112.144531 179.160156 C 111.320312 178.410156 110.558594 177.601562 109.851562 176.742188 C 109.148438 175.878906 108.511719 174.972656 107.9375 174.015625 C 107.367188 173.0625 106.867188 172.070312 106.441406 171.042969 C 106.015625 170.015625 105.664062 168.960938 105.394531 167.882812 C 105.121094 166.804688 104.929688 165.710938 104.816406 164.605469 C 104.703125 163.496094 104.671875 162.386719 104.722656 161.273438 C 104.769531 160.164062 104.902344 159.0625 105.113281 157.96875 C 105.324219 156.875 105.613281 155.804688 105.980469 154.753906 C 106.347656 153.703125 106.789062 152.683594 107.304688 151.699219 C 107.820312 150.714844 108.40625 149.769531 109.0625 148.871094 C 109.714844 147.96875 110.433594 147.121094 111.210938 146.328125 L 171.394531 86.144531 C 171.921875 85.613281 172.472656 85.113281 173.046875 84.636719 C 173.625 84.160156 174.222656 83.714844 174.839844 83.300781 C 175.460938 82.882812 176.097656 82.5 176.757812 82.144531 C 177.414062 81.792969 178.085938 81.472656 178.777344 81.1875 C 179.464844 80.898438 180.167969 80.648438 180.878906 80.429688 C 181.59375 80.210938 182.316406 80.03125 183.050781 79.882812 C 183.78125 79.738281 184.519531 79.628906 185.261719 79.554688 C 186.003906 79.480469 186.75 79.445312 187.496094 79.445312 C 188.242188 79.445312 188.984375 79.480469 189.726562 79.554688 C 190.472656 79.628906 191.207031 79.738281 191.941406 79.882812 C 192.671875 80.03125 193.394531 80.210938 194.109375 80.429688 C 194.824219 80.648438 195.523438 80.898438 196.214844 81.1875 C 196.902344 81.472656 197.574219 81.792969 198.234375 82.144531 C 198.890625 82.5 199.53125 82.882812 200.148438 83.300781 C 200.769531 83.714844 201.367188 84.160156 201.941406 84.636719 C 202.515625 85.113281 203.066406 85.613281 203.59375 86.144531 L 263.777344 146.328125 C 264.558594 147.121094 265.273438 147.96875 265.929688 148.871094 C 266.582031 149.769531 267.167969 150.714844 267.683594 151.699219 C 268.199219 152.683594 268.644531 153.703125 269.011719 154.753906 C 269.378906 155.804688 269.667969 156.875 269.878906 157.96875 C 270.089844 159.0625 270.21875 160.164062 270.269531 161.273438 C 270.320312 162.386719 270.285156 163.496094 270.175781 164.605469 C 270.0625 165.710938 269.871094 166.804688 269.597656 167.882812 C 269.324219 168.960938 268.972656 170.015625 268.546875 171.042969 C 268.121094 172.070312 267.621094 173.0625 267.050781 174.015625 C 266.480469 174.972656 265.839844 175.878906 265.136719 176.742188 C 264.433594 177.601562 263.667969 178.410156 262.847656 179.160156 C 262.023438 179.910156 261.152344 180.59375 260.230469 181.21875 C 259.304688 181.839844 258.34375 182.390625 257.339844 182.871094 C 256.335938 183.355469 255.304688 183.761719 254.242188 184.089844 C 253.179688 184.421875 252.097656 184.671875 250.996094 184.84375 C 249.898438 185.015625 248.792969 185.105469 247.679688 185.117188 Z M 247.679688 185.117188 " fill-opacity="1" fill-rule="nonzero"/></g></svg>